<svg transform="scale(1)" version="1.1" id="_x30_516_x5F_Add_to_Cart_3" xmlns="http://www.w3.org/2000/svg" xmlns:xlink="http://www.w3.org/1999/xlink" x="0px" y="0px" viewBox="0 0 500 500" xml:space="preserve" class="show_show__wrapper__graphic__5Waiy "><title>React</title><style type="text/css">
	.st0{fill:#732A09;}
	.st1{fill:#FFFFFF;}
	.st2{fill:#F75454;}
	.st3{fill:none;}
</style><g id="shopping-list"><polygon class="st0" points="236.3,209.1 220.7,199.3 97,199.3 77.8,209.1 	"></polygon><path class="st0" d="M236.3,209.7H77.8c-0.2,0-0.4-0.2-0.5-0.4c-0.1-0.2,0.1-0.5,0.3-0.6l19.2-9.8c0.1,0,0.2-0.1,0.2-0.1h123.8
		c0.1,0,0.2,0,0.3,0.1l15.6,9.8c0.2,0.1,0.3,0.4,0.2,0.6C236.8,209.5,236.6,209.7,236.3,209.7z M79.9,208.6h154.6l-14-8.8H97.1
		L79.9,208.6z"></path><polygon class="st1" points="67.7,267.1 77.8,209.1 236.3,209.1 248.3,267.2 	"></polygon><path class="st0" d="M248.3,267.7L248.3,267.7l-180.5-0.2c-0.3,0-0.5-0.2-0.5-0.5c0,0,0-0.1,0-0.1l10-57.9c0-0.2,0.3-0.4,0.5-0.4
		h158.5c0.2,0,0.5,0.2,0.5,0.4l12,58.1c0.1,0.3-0.1,0.6-0.4,0.6C248.4,267.7,248.4,267.7,248.3,267.7L248.3,267.7z M68.3,266.6
		l179.3,0.2l-11.7-57.1H78.2L68.3,266.6z"></path><polygon class="st2" points="148.6,233 155.5,235.5 176.6,261.7 163.1,261.7 	"></polygon><path class="st0" d="M176.6,262.2h-13.5c-0.2,0-0.4-0.1-0.5-0.3l-14.4-28.7c-0.1-0.2-0.1-0.4,0.1-0.6c0.1-0.1,0.3-0.2,0.5-0.1
		l6.9,2.5c0.1,0,0.2,0.1,0.2,0.2l21.1,26.2c0.1,0.2,0.1,0.4,0.1,0.5C177,262.1,176.8,262.2,176.6,262.2z M163.4,261.1h12.1
		l-20.3-25.2l-5.6-2L163.4,261.1z"></path><polygon class="st1" points="167.3,270.1 148.6,233 77.8,251.6 77.8,274.1 	"></polygon><path class="st0" d="M77.8,274.6c-0.1,0-0.3-0.1-0.4-0.1c-0.1-0.1-0.2-0.2-0.2-0.4v-22.5c0-0.2,0.2-0.4,0.4-0.5l70.8-18.6
		c0.2-0.1,0.5,0.1,0.6,0.3l18.8,37.1c0.1,0.2,0.1,0.3,0,0.5c-0.1,0.2-0.2,0.2-0.4,0.3L77.8,274.6L77.8,274.6z M78.3,251.9v21.6
		l88.2-3.8l-18.2-36.1L78.3,251.9z"></path><path class="st2" d="M138.3,243.3c0.9-0.4,1.9,0,2.2,0.9c0.1,0.2,0.1,0.3,0.1,0.5c0.6,6.3,0.9,23.6-15.4,26.3
		c-16.3,2.7-24.7-9.7-27.3-14.4c-0.5-0.8-0.2-1.8,0.7-2.3c0.1,0,0.2-0.1,0.3-0.1l0.5-0.2c0.8-0.3,1.7,0.1,2.1,0.8
		c1.8,3.5,7.3,12.7,16.1,13.4c10.6,0.8,22.4-6,19.6-23C137,244.4,137.4,243.6,138.3,243.3L138.3,243.3z"></path><path class="st0" d="M120.7,272c-13.3,0-20.5-10.3-23.2-15.1c-0.3-0.6-0.4-1.2-0.1-1.8c0.2-0.6,0.7-1.1,1.3-1.3l0.5-0.2
		c1.1-0.4,2.2,0.1,2.7,1.1c1.9,3.7,7.2,12.5,15.7,13.1c6,0.5,11.6-1.6,15.2-5.4c3.7-4,5.1-9.9,3.9-17c-0.2-1,0.4-2,1.3-2.4l0.3,0.5
		l-0.2-0.5c1.1-0.5,2.4,0,2.9,1.1c0.1,0.2,0.2,0.4,0.2,0.7c0.6,5.6,1.1,24.1-15.8,26.9C123.8,271.8,122.2,272,120.7,272z
		 M99.9,254.4c-0.1,0-0.3,0-0.4,0.1l-0.5,0.2c-0.6,0.2-0.9,0.9-0.7,1.5c0,0.1,0,0.1,0.1,0.2c2.8,5.2,11.1,16.8,26.8,14.1
		c5.2-0.9,17.1-5.2,14.9-25.8c-0.1-0.6-0.6-1.1-1.3-1.1c-0.1,0-0.3,0-0.4,0.1h-0.1c-0.5,0.2-0.8,0.8-0.7,1.3
		c1.2,7.4-0.2,13.6-4.1,17.9c-3.7,4.1-9.7,6.2-16,5.7c-9-0.7-14.5-9.8-16.5-13.7C100.9,254.6,100.4,254.4,99.9,254.4L99.9,254.4z"></path><path class="st0" d="M174.4,243.9c0,0,1.8-24.3,14.5-30.6c12.7-6.3,21.2,7.1,23.9,15.3c1.7,5,3,10.1,4,15.3H212
		c0,0-4.4-21.4-12-25.6s-12.9,1-15.3,6c-3.9,8.2-4.4,19.5-4.4,19.5H174.4z"></path><path class="st0" d="M216.8,244.4H212c-0.2,0-0.5-0.2-0.5-0.4c0-0.2-4.4-21.2-11.8-25.2c-2.3-1.4-5.1-1.8-7.7-1
		c-2.7,0.9-5.3,3.4-6.9,6.8c-3.8,8-4.3,19.2-4.3,19.4c0,0.3-0.2,0.5-0.5,0.5h-6c-0.3,0-0.5-0.2-0.5-0.5c0,0,0,0,0,0
		c0.1-1,2.1-24.7,14.8-31c3.6-2,7.8-2.2,11.6-0.7c6.5,2.7,11.1,10.4,13,16.3c1.7,5,3,10.2,4,15.4c0,0.2,0,0.3-0.1,0.4
		C217.1,244.3,217,244.4,216.8,244.4z M212.5,243.4h3.7c-1-4.9-2.3-9.8-3.9-14.6c-1.9-5.6-6.3-13.1-12.5-15.6
		c-3.5-1.4-7.4-1.2-10.7,0.6c-11.2,5.5-13.8,26-14.2,29.6h4.9c0.2-2.3,1-12,4.4-19.3c1.8-3.7,4.5-6.4,7.5-7.4c2.9-0.8,6-0.4,8.5,1.1
		C207.5,221.8,211.8,240.3,212.5,243.4z"></path><polygon class="st1" points="154.7,269.9 162.4,240.6 236.3,237.9 246.3,271.8 	"></polygon><path class="st0" d="M246.3,272.3L246.3,272.3l-91.6-1.9c-0.2,0-0.3-0.1-0.4-0.2c-0.1-0.1-0.1-0.3-0.1-0.4l7.8-29.3
		c0.1-0.2,0.3-0.4,0.5-0.4l73.9-2.7c0.2,0,0.5,0.1,0.5,0.4l9.9,33.9c0.1,0.2,0,0.3-0.1,0.5C246.6,272.3,246.4,272.3,246.3,272.3z
		 M155.3,269.4l90.2,1.8l-9.6-32.8l-73.1,2.6L155.3,269.4z"></path><polygon class="st0" points="225.9,234.8 236.3,237.9 162.4,240.6 172.8,237.1 	"></polygon><path class="st0" d="M162.4,241.1c-0.3,0-0.6-0.1-0.6-0.4c0-0.3,0.1-0.6,0.4-0.6l10.3-3.6h0.1l53.1-2.3c0.1,0,0.1,0,0.2,0l10.4,3.2
		c0.3,0,0.5,0.3,0.4,0.6s-0.3,0.5-0.6,0.4L162.4,241.1L162.4,241.1z M172.9,237.6l-7,2.4l67.4-2.4l-7.4-2.2L172.9,237.6z"></path><path class="st2" d="M181,245.6c0,0,1.9-24.3,14.5-30.6c12.6-6.3,21.2,7.1,23.9,15.3c1.7,5,3,10.1,4,15.3h-4.8
		c0,0-4.4-21.4-12-25.6c-7.6-4.1-12.9,1-15.3,6c-3.9,8.3-4.4,19.6-4.4,19.6L181,245.6z"></path><path class="st0" d="M223.4,246.1h-4.8c-0.2,0-0.5-0.2-0.5-0.4c0-0.2-4.4-21.2-11.8-25.2c-2.3-1.4-5.1-1.8-7.7-1
		c-2.7,0.9-5.3,3.4-6.9,6.8c-3.8,8-4.3,19.2-4.3,19.4c0,0.3-0.2,0.5-0.5,0.5h-6c-0.1,0-0.3-0.1-0.4-0.2c-0.1-0.1-0.1-0.2-0.1-0.4
		c0.1-1,2-24.7,14.8-31c3.6-1.9,7.8-2.2,11.6-0.7c6.5,2.7,11.1,10.4,13,16.3c1.7,5,3,10.2,4,15.4c0,0.2,0,0.3-0.1,0.4
		C223.7,246,223.6,246.1,223.4,246.1z M219.1,245.1h3.7c-1-4.9-2.3-9.8-3.8-14.6c-1.9-5.6-6.3-13.1-12.5-15.6
		c-3.5-1.4-7.4-1.2-10.7,0.6c-11.2,5.5-13.8,26-14.2,29.6h4.9c0.2-2.3,1-12,4.4-19.3c1.8-3.7,4.5-6.4,7.5-7.4
		c2.9-0.8,5.9-0.4,8.5,1.1C214.1,223.5,218.4,241.9,219.1,245.1z"></path><polygon class="st1" points="159.8,203 168.4,204.1 226.4,203.6 227.5,143.8 174.4,144.9 162.6,140.5 	"></polygon><path class="st0" d="M168.4,204.7l-8.6-1c-0.3,0-0.5-0.3-0.5-0.5l2.8-62.5c0-0.2,0.1-0.3,0.2-0.4c0.1-0.1,0.3-0.1,0.5-0.1l11.7,4.3
		l53-1.1l0,0c0.3,0,0.5,0.2,0.5,0.5l-1.1,59.8c0,0.3-0.2,0.5-0.5,0.5c0,0,0,0,0,0L168.4,204.7z M160.3,202.6l8.1,1l57.5-0.5l1-58.8
		l-52.6,1.1c-0.1,0-0.1,0-0.2,0l-11.1-4.1L160.3,202.6z"></path><line class="st3" x1="174.4" y1="148.4" x2="171" y2="203"></line><path class="st0" d="M171,203.6L171,203.6c-0.3,0-0.5-0.2-0.5-0.5c0,0,0,0,0,0l3.3-54.6c0-0.3,0.2-0.5,0.5-0.5c0,0,0,0,0,0
		c0.3,0,0.5,0.3,0.5,0.5c0,0,0,0,0,0l-3.3,54.7C171.5,203.4,171.3,203.6,171,203.6z"></path><polygon class="st0" points="162.6,140.5 211.3,140.5 227.5,143.8 174.4,144.9 	"></polygon><path class="st0" d="M174.4,145.4c-0.1,0-0.1,0-0.2,0l-11.8-4.4c-0.2-0.1-0.4-0.3-0.3-0.6c0-0.2,0.3-0.4,0.5-0.4h48.7l16.3,3.3
		c0.3,0.1,0.4,0.3,0.4,0.6c0,0.3-0.2,0.5-0.5,0.5L174.4,145.4L174.4,145.4z M165.5,141l9,3.3l48.4-1l-11.6-2.4L165.5,141z"></path><path class="st2" d="M123.1,164.5c2.8-1.5,9.6-4.6,16.2-2.5c0.7,0.2,1.2,0.8,1.4,1.5l9.4,37.8l-15.6,4.3l-1.8-3.6
		c0,0-12.5,4.1-21.4,4.5s-15.9,2.2-15.4-4.6s18.9-11.7,23.9-17.7c4-4.8,2.8-14,2.2-17.5C122,165.7,122.4,164.9,123.1,164.5z"></path><path class="st0" d="M102.4,207.4c-2.5,0-4.5-0.4-5.7-1.5c-1-1.1-1.4-2.6-1.2-4.1c0.3-4.2,6.9-7.7,13.2-11c4.3-2.3,8.8-4.6,10.9-7
		c3.9-4.6,2.7-13.5,2.1-17.1c-0.2-1.1,0.3-2.2,1.3-2.7l0,0c2.7-1.5,9.7-4.7,16.6-2.5c0.9,0.3,1.5,1,1.8,1.8l9.4,37.8
		c0.1,0.3-0.1,0.5-0.4,0.6c0,0,0,0,0,0l-15.6,4.3c-0.2,0.1-0.5,0-0.6-0.3l-1.6-3.2c-2.3,0.7-13.2,4-21.1,4.4c-1.4,0.1-2.7,0.2-4,0.3
		C105.6,207.3,103.8,207.4,102.4,207.4z M123.4,164.9c-0.6,0.3-0.9,1-0.8,1.6c0.7,3.7,1.9,13-2.3,17.9c-2.2,2.6-6.6,4.9-11.2,7.3
		c-6.1,3.2-12.4,6.4-12.6,10.1c-0.2,1.2,0.1,2.4,0.9,3.3c1.6,1.6,5.3,1.3,10,1c1.3-0.1,2.6-0.2,4-0.3c8.7-0.4,21.2-4.4,21.3-4.5
		c0.2-0.1,0.5,0,0.6,0.3l1.6,3.2l14.7-4l-9.3-37.3c-0.1-0.5-0.5-0.9-1-1.1C132.8,160.3,126.1,163.4,123.4,164.9L123.4,164.9z"></path><path class="st2" d="M149.2,162.7c3.1-1,10.3-2.6,16.4,0.8c0.6,0.4,1,1,1,1.7l1.8,38.9l-16.1,1.1l-1-3.9c0,0-13.1,1.5-21.9,0.2
		s-16.1-1-14.2-7.6c1.9-6.6,20.8-7.7,27-12.6c4.9-3.9,5.5-13.2,5.6-16.7C147.8,163.7,148.3,162.9,149.2,162.7z"></path><path class="st0" d="M152.2,205.7c-0.2,0-0.4-0.2-0.5-0.4l-0.9-3.5c-2.4,0.2-13.7,1.3-21.6,0.1c-1.4-0.2-2.7-0.4-3.9-0.5
		c-4.9-0.6-8.9-1.1-10.3-3.4c-0.8-1.3-0.9-2.9-0.3-4.3c1.2-4.1,8.3-6.2,15.1-8.1c4.7-1.4,9.6-2.8,12.1-4.7
		c4.7-3.7,5.3-12.7,5.4-16.3c0-1.1,0.8-2.1,1.8-2.4l0,0c2.9-0.9,10.5-2.7,16.8,0.8c0.8,0.4,1.3,1.3,1.3,2.2l1.7,38.9
		c0,0.3-0.2,0.5-0.5,0.5L152.2,205.7L152.2,205.7z M151.2,200.8c0.2,0,0.4,0.2,0.5,0.4l0.9,3.5l15.2-1l-1.7-38.4
		c0-0.5-0.3-1-0.8-1.3c-6-3.3-13.2-1.6-16-0.7c-0.6,0.2-1,0.8-1,1.4c-0.1,3.8-0.7,13.1-5.8,17.1c-2.7,2.1-7.4,3.5-12.4,4.9
		c-6.6,1.9-13.4,3.9-14.4,7.4c-0.5,1.1-0.4,2.4,0.2,3.4c1.2,1.9,4.9,2.4,9.6,3c1.3,0.2,2.6,0.3,4,0.5
		C138.1,202.3,151.1,200.8,151.2,200.8z"></path><path class="st0" d="M184.6,150.2c-0.5,0-0.8,0.5-0.8,0.9c0,0,0,0.1,0,0.1c0.9,4.1,5.2,20.3,18.3,18.9
		c12.9-1.4,15.8-15.1,16.3-18.9c0.1-0.5-0.2-0.9-0.7-1c-0.1,0-0.1,0-0.2,0l0,0c-0.5,0-0.8,0.3-0.9,0.8c-0.3,3.2-2.3,15.3-14.9,17.2
		c-11.6,1.7-15.2-13.7-15.8-17.4c-0.1-0.4-0.5-0.8-0.9-0.7L184.6,150.2z"></path><path class="st0" d="M200.9,170.7c-4.4,0-13.8-2.1-17.5-19.4c-0.2-0.7,0.3-1.5,1.1-1.6c0.1,0,0.1,0,0.2,0l0,0h0.5
		c0.7-0.1,1.4,0.4,1.5,1.1c0.6,3.1,4.1,18.7,15.2,17c12.2-1.8,14.1-13.3,14.4-16.7c0.1-0.7,0.7-1.3,1.4-1.3c0.8,0,1.4,0.6,1.4,1.3
		c0,0.1,0,0.2,0,0.2c-0.6,4.2-3.6,17.9-16.8,19.3C201.8,170.7,201.3,170.7,200.9,170.7z M184.7,150.7c-0.1,0-0.2,0.1-0.3,0.2
		c-0.1,0.1-0.1,0.2-0.1,0.3c4,18.5,14.6,18.8,17.8,18.5c12.5-1.3,15.3-14.4,15.9-18.4c0-0.1,0-0.2-0.1-0.3c-0.1-0.1-0.2-0.1-0.3-0.1
		c-0.2,0-0.3,0.1-0.4,0.3c-0.3,3.7-2.4,15.8-15.3,17.7c-12.2,1.8-15.8-14.5-16.4-17.8c0-0.2-0.2-0.3-0.4-0.3L184.7,150.7z"></path></g><g id="trolley"><rect class="st1" x="155.9" y="327.6" transform="matrix(0.5 -0.866 0.866 0.5 -251.2174 329.5669)" width="7.8" height="109.4"></rect><path class="st0" d="M205.2,413.6c-0.1,0-0.2,0-0.3-0.1l-94.8-54.7c-0.1-0.1-0.2-0.2-0.2-0.3c-0.1-0.1-0.1-0.3,0-0.4l3.9-6.8
		c0.1-0.2,0.4-0.3,0.7-0.2c0,0,0,0,0,0l94.8,54.7c0.1,0.1,0.2,0.2,0.2,0.3c0,0.1,0,0.3-0.1,0.4l-3.9,6.8
		C205.5,413.5,205.4,413.6,205.2,413.6z M111.2,358.2l93.9,54.2l3.4-5.9l-93.9-54.2L111.2,358.2z"></path><rect class="st1" x="105.1" y="378.4" transform="matrix(0.866 -0.5 0.5 0.866 -169.763 131.1241)" width="109.4" height="7.8"></rect><path class="st0" d="M114.4,413.6c-0.2,0-0.4-0.1-0.4-0.3l-3.9-6.8c-0.1-0.1-0.1-0.3,0-0.4c0-0.1,0.1-0.2,0.2-0.3l94.8-54.7
		c0.2-0.1,0.5-0.1,0.7,0.2c0,0,0,0,0,0l3.9,6.8c0.1,0.1,0.1,0.3,0.1,0.4c0,0.1-0.1,0.2-0.2,0.3l-94.8,54.7
		C114.6,413.6,114.5,413.6,114.4,413.6z M111.2,406.5l3.4,5.9l93.9-54.2l-3.4-5.9L111.2,406.5z"></path><circle class="st2" cx="118.1" cy="414.8" r="15.1"></circle><path class="st0" d="M118.1,430.4c-8.6,0-15.6-7-15.6-15.6c0-8.6,7-15.6,15.6-15.6s15.6,7,15.6,15.6
		C133.7,423.4,126.7,430.4,118.1,430.4z M118.1,400.2c-8.1,0-14.6,6.5-14.6,14.6c0,8.1,6.5,14.6,14.6,14.6s14.6-6.5,14.6-14.6l0,0
		C132.7,406.7,126.2,400.2,118.1,400.2z"></path><circle class="st1" cx="118.1" cy="414.8" r="7.8"></circle><path class="st0" d="M118.1,423.1c-4.6,0-8.4-3.7-8.4-8.3c0-4.6,3.7-8.4,8.3-8.4c4.6,0,8.4,3.7,8.4,8.3c0,0,0,0,0,0
		C126.5,419.4,122.7,423.1,118.1,423.1z M118.1,407.5c-4,0-7.3,3.3-7.3,7.3c0,4,3.3,7.3,7.3,7.3c4,0,7.3-3.3,7.3-7.3c0,0,0,0,0,0
		C125.4,410.7,122.2,407.5,118.1,407.5z"></path><path class="st0" d="M137.1,414.8H99.1c0-10.5,8.5-19,19-19C128.6,395.8,137.1,404.3,137.1,414.8z"></path><path class="st0" d="M137.1,415.3H99.1c-0.3,0-0.5-0.2-0.5-0.5c0-10.8,8.7-19.5,19.5-19.5c10.8,0,19.5,8.7,19.5,19.5
		C137.6,415.1,137.4,415.3,137.1,415.3z M99.7,414.3h36.9c-0.2-10.2-8.7-18.3-18.9-18C107.8,396.5,99.9,404.4,99.7,414.3z"></path><circle class="st2" cx="215.1" cy="414.8" r="15.1"></circle><path class="st0" d="M215.1,430.4c-8.6,0-15.6-7-15.6-15.6c0-8.6,7-15.6,15.6-15.6c8.6,0,15.6,7,15.6,15.6
		C230.7,423.4,223.7,430.4,215.1,430.4z M215.1,400.2c-8.1,0-14.6,6.5-14.6,14.6s6.5,14.6,14.6,14.6c8.1,0,14.6-6.5,14.6-14.6
		C229.7,406.7,223.1,400.2,215.1,400.2z"></path><circle class="st1" cx="215.1" cy="414.8" r="7.8"></circle><path class="st0" d="M215.1,423.1c-4.6,0-8.4-3.7-8.4-8.4s3.7-8.4,8.4-8.4s8.4,3.7,8.4,8.4S219.7,423.1,215.1,423.1
		C215.1,423.1,215.1,423.1,215.1,423.1z M215.1,407.5c-4,0-7.3,3.3-7.3,7.3c0,4,3.3,7.3,7.3,7.3c4,0,7.3-3.3,7.3-7.3c0,0,0,0,0,0
		C222.4,410.7,219.1,407.5,215.1,407.5z"></path><path class="st0" d="M234.1,414.8h-37.9c0-10.5,8.5-19,19-19C225.6,395.8,234.1,404.3,234.1,414.8
		C234.1,414.8,234.1,414.8,234.1,414.8z"></path><path class="st0" d="M234.1,415.3h-37.9c-0.3,0-0.5-0.2-0.5-0.5c0-10.8,8.7-19.5,19.5-19.5c10.8,0,19.5,8.7,19.5,19.5
		C234.6,415.1,234.3,415.3,234.1,415.3z M196.6,414.3h36.9c-0.3-10.2-8.9-18.2-19.1-17.8C204.8,396.8,197,404.6,196.6,414.3z"></path><path class="st1" d="M251.8,271.8c-2,0-3.6-1.6-3.6-3.6c0-0.3,0-0.7,0.1-1l9.1-32.4c1-3.6,3.4-6.7,6.6-8.5
		c12.4-7.2,12.4-7.2,14.1-6.6c1.9,0.6,2.9,2.7,2.3,4.6c-0.3,1-1,1.8-2,2.2l-0.3,0.1c-0.6,0.3-2.7,1.4-10.6,6
		c-1.6,0.9-2.8,2.4-3.3,4.2l-9.1,32.4C254.8,270.7,253.4,271.8,251.8,271.8z"></path><path class="st0" d="M251.8,272.3c-2.3,0-4.1-1.9-4.1-4.2c0-0.4,0.1-0.7,0.2-1.1l9.1-32.4c1-3.7,3.5-6.9,6.8-8.8
		c12.6-7.3,12.6-7.3,14.5-6.7c1.1,0.4,2,1.2,2.5,2.3c0.9,2.1,0,4.5-2.1,5.4l-0.3,0.1c-0.4,0.2-2.5,1.3-10.5,6
		c-1.5,0.9-2.6,2.3-3,3.9l-9.1,32.4C255.3,271.1,253.6,272.3,251.8,272.3z M277,220c-1.2,0-3.2,1.2-12.8,6.7
		c-3.1,1.8-5.4,4.8-6.4,8.3l-9.1,32.4c-0.5,1.6,0.5,3.4,2.1,3.8c0,0,0,0,0,0c1.6,0.4,3.3-0.5,3.8-2.1l9.1-32.4
		c0.5-1.9,1.8-3.6,3.5-4.5c7.7-4.5,10-5.7,10.6-6l0.3-0.1c1.6-0.7,2.3-2.5,1.6-4.1c-0.4-0.8-1-1.4-1.9-1.7
		C277.6,220.1,277.3,220,277,220L277,220z"></path><path class="st1" d="M257.5,261.7H58.3l25.6,92.6c1.4,5.2,6.1,8.8,11.4,9l131.6,4c6,0.2,11.3-4,12.4-9.9L257.5,261.7z"></path><path class="st0" d="M227.3,367.7h-0.4l-131.6-4c-5.6-0.2-10.4-3.9-11.9-9.3l-25.6-92.6c0-0.2,0-0.3,0.1-0.4
		c0.1-0.1,0.2-0.2,0.4-0.2h199.2c0.3,0,0.5,0.2,0.5,0.5c0,0,0,0.1,0,0.1l-18.2,95.6C238.7,363.3,233.4,367.7,227.3,367.7z M59,262.2
		l25.4,91.9c1.4,5,5.8,8.4,10.9,8.6l131.6,4c5.8,0.2,10.8-3.8,11.8-9.5l18.1-94.9L59,262.2z"></path><line class="st3" x1="234.4" y1="261.7" x2="215.5" y2="366.8"></line><path class="st0" d="M215.5,367.3L215.5,367.3c-0.4,0-0.6-0.3-0.5-0.6c0,0,0,0,0,0l18.9-105.1c0-0.3,0.3-0.5,0.6-0.4c0,0,0,0,0,0
		c0.3,0.1,0.5,0.3,0.4,0.6L216,366.9C216,367.1,215.8,367.3,215.5,367.3z"></path><line class="st3" x1="208.9" y1="261.7" x2="197" y2="366.2"></line><path class="st0" d="M197,366.7L197,366.7c-0.3,0-0.5-0.3-0.5-0.6l11.9-104.6c0-0.3,0.3-0.5,0.6-0.5c0.3,0,0.5,0.3,0.5,0.6l0,0
		l-11.9,104.6C197.5,366.5,197.3,366.7,197,366.7z"></path><line class="st3" x1="183.4" y1="261.7" x2="178.5" y2="365.7"></line><path class="st0" d="M178.5,366.2L178.5,366.2c-0.3,0-0.5-0.3-0.5-0.5c0,0,0,0,0,0l4.9-104c0-0.3,0.2-0.5,0.5-0.5s0.5,0.2,0.5,0.5
		l-4.9,104C179,365.9,178.8,366.2,178.5,366.2C178.5,366.2,178.5,366.2,178.5,366.2z"></path><line class="st3" x1="157.9" y1="261.7" x2="160" y2="365.1"></line><path class="st0" d="M160,365.6c-0.3,0-0.5-0.2-0.5-0.5c0,0,0,0,0,0l-2.1-103.5c0-0.3,0.2-0.5,0.5-0.5c0.3,0,0.5,0.2,0.5,0.5
		c0,0,0,0,0,0l2.1,103.5C160.5,365.4,160.3,365.6,160,365.6L160,365.6z"></path><line class="st3" x1="132.4" y1="261.7" x2="141.5" y2="364.6"></line><path class="st0" d="M141.5,365.1c-0.3,0-0.5-0.2-0.5-0.5l-9.1-102.9c0-0.3,0.2-0.5,0.5-0.6c0.3,0,0.5,0.2,0.6,0.5l9.1,102.9
		C142,364.8,141.8,365,141.5,365.1L141.5,365.1z"></path><line class="st3" x1="106.9" y1="261.7" x2="123" y2="364"></line><path class="st0" d="M123,364.6c-0.3,0-0.5-0.2-0.5-0.4l-16.1-102.3c0-0.3,0.2-0.5,0.4-0.6c0,0,0,0,0,0c0.3,0,0.5,0.1,0.6,0.4
		L123.5,364C123.5,364.3,123.4,364.5,123,364.6L123,364.6z"></path><line class="st3" x1="81.4" y1="261.7" x2="104.5" y2="363.4"></line><path class="st0" d="M104.5,364c-0.2,0-0.4-0.2-0.5-0.4L80.9,261.8c-0.1-0.3,0.1-0.6,0.4-0.6c0.3-0.1,0.6,0.1,0.6,0.4c0,0,0,0,0,0
		L105,363.3c0.1,0.3-0.1,0.6-0.4,0.6c0,0,0,0,0,0L104.5,364z"></path><path class="st0" d="M253.9,281H63.5c-0.3,0-0.5-0.2-0.5-0.5c0-0.3,0.2-0.5,0.5-0.5h190.4c0.3,0,0.5,0.2,0.5,0.5
		C254.4,280.8,254.2,281,253.9,281z"></path><path class="st0" d="M248.5,309.5H71.4c-0.3,0-0.5-0.2-0.5-0.5c0-0.3,0.2-0.5,0.5-0.5h177.1c0.3,0,0.5,0.2,0.5,0.5
		C249,309.3,248.8,309.5,248.5,309.5z"></path><path class="st0" d="M243,338H79.3c-0.3,0-0.5-0.2-0.5-0.5c0-0.3,0.2-0.5,0.5-0.5H243c0.3,0,0.5,0.2,0.5,0.5
		C243.6,337.8,243.3,338,243,338z"></path></g><g id="character"><path class="st1" d="M385.4,241.2l50.5,157c-28.1,14-45.7,5.1-45.7,5.1s-18.2-62.3-29.5-86.9c-11.3-24.6-22.6-35.9-22.6-35.9
		l-21.5,117.3c-28.5,8.2-43.4,0-43.4,0l18.2-156.6L385.4,241.2z"></path><path class="st0" d="M405.7,406.6c-9.9,0-15.5-2.8-15.6-2.8c-0.1-0.1-0.2-0.2-0.3-0.3c-0.2-0.6-18.3-62.5-29.5-86.8
		c-9.6-20.8-19.2-32.1-21.8-35l-21.4,116.3c0,0.2-0.2,0.4-0.4,0.4c-14.8,4.3-25.9,4-32.6,3.1c-7.3-1-11-3.1-11.2-3.1
		c-0.2-0.1-0.3-0.3-0.3-0.5l18.2-156.6c0-0.3,0.2-0.5,0.5-0.5h94.1c0.2,0,0.4,0.1,0.5,0.4l50.5,157c0.1,0.2,0,0.5-0.3,0.6
		C423.9,404.9,413.5,406.6,405.7,406.6z M390.8,402.9c3.8,1.6,7.9,2.4,12,2.6c7.1,0.4,18.4-0.5,32.6-7.6l-50.3-156.2h-93.2
		l-18.1,155.8c2.2,1,16.9,7.2,42.4-0.1l21.5-117c0-0.2,0.2-0.3,0.4-0.4c0.2-0.1,0.4,0,0.5,0.1c0.1,0.1,11.5,11.7,22.7,36
		C372.2,339.8,389.6,398.8,390.8,402.9z"></path><path class="st1" d="M315.1,148.3c-7.2-8.6-4.3-28.1-4.3-28.1l-3.4-31.9c0,0-3.5-6.3,0-14.9s13.5-10.6,19-5.2c0,0,23.6-3.8,30.6,18
		s-4.2,25.5,7,37.5c11.2,12,11.5,15.5,11.7,22.6c0.2,7.1,8.4,8.3,13.3,14.2c5,6,13.2,25.7-26.7,24.5S315.1,148.3,315.1,148.3z"></path><path class="st0" d="M365.8,185.6c-1.1,0-2.2,0-3.4-0.1c-20.8-0.6-32.7-10.7-39-19c-4.1-5.4-7-11.5-8.7-18
		c-7.1-8.6-4.5-26.8-4.3-28.3L307,88.5c-0.5-0.9-3.4-7,0-15.3c1.6-4.2,5.2-7.3,9.6-8.3c3.6-0.8,7.3,0.2,10,2.7
		c2.7-0.3,24.3-2.3,30.9,18.4c2.4,6.9,3.1,14.3,2.1,21.5c-0.6,5.8-1,9.6,4.8,15.8c11.1,12,11.7,15.5,11.8,23
		c0.1,4.1,3.1,6.2,6.6,8.5c2.5,1.5,4.7,3.3,6.6,5.4c2.6,3.1,6.2,10,3.3,16C389.7,182.5,380.6,185.6,365.8,185.6z M319,65.8
		c-0.7,0-1.5,0.1-2.2,0.2c-4.1,0.9-7.4,3.8-8.9,7.7c-3.4,8.3-0.1,14.4,0,14.5c0,0.1,0.1,0.1,0.1,0.2l3.4,31.9c0,0,0,0.1,0,0.1
		c0,0.2-2.9,19.3,4.1,27.7c0.1,0.1,0.1,0.1,0.1,0.2c0.1,0.4,7.8,35.2,46.8,36.3c16.2,0.5,26.4-2.5,29.5-8.7
		c2.7-5.5-0.9-12.1-3.2-14.9c-1.9-2-4-3.8-6.4-5.2c-3.6-2.4-7-4.6-7.1-9.3c-0.2-6.7-0.2-10.1-11.6-22.3c-6.2-6.6-5.7-10.8-5.1-16.6
		c1-7.1,0.3-14.3-2.1-21.1c-6.8-21.1-29.8-17.7-30-17.7c-0.2,0-0.3,0-0.4-0.1C324.2,66.8,321.7,65.8,319,65.8z"></path><path class="st2" d="M247.1,122.2c5.4,0.4,6.4,5.1,9.7,11.2s11.4,22.5,11.4,22.5s29.7-22,40.8-25.4c11.1-3.4,51.2-5.2,61.3,10.6
		c10.1,15.8,17.5,101.6,17.5,101.6s-30.5,6.9-59,4.9c-28.5-2-41.3-5.5-41.3-5.5l6.6-25.8l-11.7-12.3c-0.7-1.4-0.2-3.1,1.1-4
		c2.3-1.7,13.8-4,13.8-4l3.4-25.7c0,0-21.7,21.7-38.5,21.3c-16.8-0.4-38.2-61.9-38.2-61.9c1.3-1.2,2.8-2.2,4.5-2.7
		C231.7,125.8,242.8,122.7,247.1,122.2z"></path><path class="st0" d="M301.2,167.9L301.2,167.9c-0.4,0-0.5-0.3-0.5-0.6c0,0,0,0,0,0c0-0.2,2.3-15.2,5.2-27.6
		c0.1-0.3,0.4-0.5,0.6-0.4c0.3,0.1,0.5,0.4,0.4,0.6c-2.9,12.4-5.2,27.3-5.2,27.5C301.7,167.7,301.5,167.9,301.2,167.9z"></path><path class="st0" d="M299.1,196.1c-0.3,0-0.5-0.2-0.6-0.5s0.2-0.5,0.5-0.6c6.6-1,24.2-2.3,26.9-2.5c1.2-4.3,12-41.3,22.4-46.4
		c0.3-0.1,0.6,0,0.7,0.2c0.1,0.3,0,0.6-0.2,0.7c-10.4,5.1-21.8,45.6-22,46.1c-0.1,0.2-0.2,0.4-0.5,0.4
		C326.2,193.5,306.3,195,299.1,196.1L299.1,196.1z"></path><path class="st0" d="M305.1,219.8c-4,0-6.7,0-7.1,0c-0.3,0-0.5-0.2-0.5-0.5s0.2-0.5,0.5-0.5l0,0c0.4,0,38.4,0.5,46.3-2.3
		c7.1-2.5,18.5-32.2,25.3-49.9l1.9-4.9c0.1-0.3,0.4-0.4,0.7-0.3c0.3,0.1,0.4,0.4,0.3,0.7c-0.6,1.5-1.2,3.2-1.9,4.9
		c-7.3,19.1-18.4,47.9-25.9,50.5C338.6,219.5,316.7,219.8,305.1,219.8z"></path><path class="st1" d="M284.6,203.1c0,0-17.9,8.1-17.9,13.9c0,4.8,1,14.6,4.6,15.9c3.6,1.2,5.7-3.5,5.7-3.5s3.4,1.2,5.5-1
		c1.9,0.3,3.8-0.4,5.2-1.8c1.7-0.5,3.1-1.8,3.9-3.4c0.7-1.6,0.7-3.4,0-5l4.2-2.6C295.7,215.5,290.8,202.7,284.6,203.1z"></path><path class="st0" d="M272.4,233.5c-0.4,0-0.9-0.1-1.3-0.2c-4.9-1.7-4.9-16.2-4.9-16.3c0-6.1,17.4-14,18.2-14.3c0.1,0,0.1,0,0.2-0.1
		c6.5-0.4,11.5,12.2,11.7,12.7c0.1,0.2,0,0.5-0.2,0.6l-3.8,2.3c0.6,1.6,0.5,3.4-0.2,5c-0.8,1.7-2.3,3-4.1,3.6
		c-1.4,1.4-3.3,2.1-5.2,1.9c-1.5,1.3-3.5,1.7-5.4,1.1C276.4,231.4,274.7,233.5,272.4,233.5z M284.7,203.6c-5,2.2-17.5,8.9-17.5,13.4
		c0,5.8,1.3,14.3,4.2,15.4c2.9,1,5-3.2,5-3.3c0.1-0.2,0.4-0.4,0.6-0.3c0,0,3.1,1,4.9-0.9c0.1-0.1,0.3-0.2,0.5-0.2
		c1.7,0.2,3.5-0.4,4.7-1.6c0.1-0.1,0.2-0.1,0.2-0.1c1.6-0.5,2.8-1.6,3.6-3.1c0.7-1.5,0.7-3.1,0-4.6c-0.1-0.2,0-0.5,0.2-0.7l3.9-2.4
		c-0.9-2.1-5.2-11.7-10.2-11.7L284.7,203.6z"></path><path class="st0" d="M277,229.8c-0.2,0-0.3-0.1-0.4-0.2c-0.2-0.3-4.2-6.7-3.6-10.4c0-0.3,0.3-0.5,0.6-0.4c0,0,0,0,0,0
		c0.3,0.1,0.5,0.3,0.4,0.6c-0.6,3.3,3.4,9.6,3.4,9.7c0.2,0.2,0.1,0.6-0.2,0.7C277.1,229.7,277,229.8,277,229.8z"></path><path class="st0" d="M282.4,228.7c-0.2,0-0.4-0.1-0.5-0.3c-0.2-0.3-3.9-6.8-3.5-10.5c0-0.3,0.3-0.5,0.6-0.5c0.3,0,0.5,0.3,0.5,0.6
		c-0.4,3.3,3.3,9.8,3.4,9.9c0.1,0.2,0.1,0.5-0.2,0.7c0,0,0,0,0,0C282.6,228.7,282.5,228.7,282.4,228.7z"></path><path class="st0" d="M287.6,226.9c-0.2,0-0.3-0.1-0.4-0.2c-0.2-0.3-4.5-6.5-4.1-9.9c0-0.3,0.3-0.5,0.6-0.4c0.3,0,0.5,0.3,0.4,0.6
		c-0.3,2.4,2.7,7.4,3.9,9.1c0.2,0.2,0.1,0.5-0.1,0.7C287.7,226.9,287.7,226.9,287.6,226.9z"></path><polygon class="st1" points="214.3,149.5 123.2,130.1 139.8,64.1 229.2,80.9 	"></polygon><path class="st0" d="M214.3,150h-0.1l-91.1-19.4c-0.3-0.1-0.5-0.3-0.4-0.6l16.6-66c0.1-0.3,0.3-0.4,0.6-0.4l89.3,16.8
		c0.1,0,0.3,0.1,0.3,0.2c0.1,0.1,0.1,0.3,0.1,0.4l-14.9,68.6C214.8,149.8,214.6,150,214.3,150z M123.8,129.7l90.1,19.1l14.6-67.5
		l-88.4-16.7L123.8,129.7z"></path><path class="st1" d="M228.6,127c0,0-9.6-1.9-14.3-4.4s-3.5-6.7,0-6.9c2.4-0.2,4.8-0.2,7.2,0l3.2-14.8c4.7,2.4,9.2,5.2,13.3,8.4
		c5.7,4.7,9.1,12.9,9.1,12.9S236.2,123.8,228.6,127z"></path><path class="st0" d="M228.6,127.5h-0.1c-0.4-0.1-9.7-1.9-14.4-4.5c-2.9-1.6-3.6-3.7-3.3-5.2c0.4-1.6,1.8-2.7,3.5-2.7
		c2.3-0.1,4.6-0.1,6.8,0l3.1-14.4c0-0.2,0.1-0.3,0.3-0.4c0.1-0.1,0.3-0.1,0.5,0c4.7,2.4,9.2,5.2,13.4,8.5c5.8,4.7,9.1,12.8,9.2,13.1
		c0.1,0.3,0,0.6-0.3,0.7c0,0-0.1,0-0.1,0c-0.1,0-11,1.6-18.4,4.8C228.7,127.5,228.6,127.5,228.6,127.5z M217.7,116.1
		c-1,0-2.2,0-3.4,0.1c-1.2,0-2.2,0.8-2.5,1.9c-0.2,1.1,0.4,2.7,2.8,4c4.2,2.3,12.7,4.1,14,4.3c6.5-2.7,15.4-4.3,17.9-4.7
		c-0.9-2-4-8.3-8.7-12.1c-3.9-3.1-8.2-5.8-12.6-8l-3.1,14.1c-0.1,0.3-0.3,0.4-0.5,0.4C221.5,116.2,219.8,116.1,217.7,116.1z"></path><polygon class="st2" points="229.2,80.9 217.2,66.2 159.6,56.1 139.8,64.1 	"></polygon><path class="st0" d="M229.2,81.4L229.2,81.4l-89.4-16.9c-0.2,0-0.4-0.2-0.4-0.5c0-0.2,0.1-0.4,0.3-0.5l19.8-8c0.1,0,0.2,0,0.3,0
		l57.6,10.2c0.1,0,0.2,0.1,0.3,0.2l11.9,14.7c0.1,0.2,0.1,0.4,0,0.6C229.5,81.3,229.3,81.4,229.2,81.4z M141.7,63.9l86.2,16.3
		L217,66.8l-57.3-10.1L141.7,63.9z"></path><path class="st1" d="M163.2,94.2l-2.3,8.8l24,8.9c0,0-3.5,13.3-0.6,14.3s5.3-1,8.5-7.8c3.2-6.8,7.9-19.1,5.2-21.3
		C195.2,95,163.2,94.2,163.2,94.2z"></path><path class="st0" d="M185.8,127.1c-0.5,0-1.1-0.1-1.6-0.3c-3-1.1-0.6-11.4,0.1-14.4l-23.6-8.8c-0.3-0.1-0.4-0.4-0.3-0.6l2.3-8.8
		c0.1-0.2,0.3-0.4,0.5-0.4c3.3,0.1,32.3,0.8,35.1,3.1c3.6,2.9-3.6,18.8-5,21.9C190.6,124.5,188.3,127.1,185.8,127.1z M161.5,102.7
		l23.6,8.8c0.2,0.1,0.4,0.4,0.3,0.6c-1.4,5.3-2.5,13.1-0.9,13.7c1.9,0.7,4.1,0.3,7.8-7.6c4.2-9,7.4-19,5.3-20.6
		c-1.9-1.5-21.3-2.5-34.1-2.8L161.5,102.7z"></path><path class="st2" d="M163.2,94.2c1.1,1.3,1.6,3.2,1.1,4.9c-0.6,2.9-2.3,4-3.4,3.9c-1.2,0-1.3-2.8-0.8-5
		C160.5,96,162.2,94.2,163.2,94.2z"></path><path class="st0" d="M160.9,103.6L160.9,103.6c-0.5,0-0.8-0.2-1-0.5c-0.8-0.9-0.8-3.3-0.4-5.1c0.5-2.3,2.4-4.3,3.7-4.3
		c0.1,0,0.3,0.1,0.3,0.1c1.3,1.5,1.8,3.5,1.3,5.4C164.3,102.2,162.4,103.6,160.9,103.6z M163,94.8c-1.3,0.7-2.2,2-2.5,3.4
		c-0.4,1.7-0.3,3.6,0.2,4.2c0.1,0.2,0.2,0.1,0.2,0.1c0.9,0,2.4-0.9,2.9-3.5C164.2,97.6,163.9,96,163,94.8L163,94.8z"></path><circle class="st2" cx="190.2" cy="104.8" r="3.9"></circle><path class="st0" d="M190.2,109.1c-2.4,0-4.4-1.9-4.4-4.4c0-2.4,1.9-4.4,4.4-4.4c2.4,0,4.4,1.9,4.4,4.4c0,0,0,0,0,0
		C194.6,107.2,192.7,109.1,190.2,109.1z M190.2,101.4c-1.8,0-3.3,1.5-3.4,3.3c0,1.8,1.5,3.3,3.3,3.4c1.8,0,3.3-1.5,3.4-3.3
		c0,0,0,0,0,0C193.6,102.9,192.1,101.4,190.2,101.4z"></path><path class="st0" d="M338.2,281c-0.1,0-0.3,0-0.4-0.1c-5-4.7-10.3-9.2-15.9-13.3c-0.2-0.2-0.3-0.5-0.1-0.7c0.2-0.2,0.5-0.3,0.7-0.1
		c5.6,4.1,11,8.6,16,13.4c0.2,0.2,0.2,0.5,0,0.7C338.5,281,338.4,281.1,338.2,281L338.2,281z"></path><path class="st2" d="M435.2,402.1l6,26.4c0.4,1.9-0.7,3.7-2.6,4.1L390,444c-1.9,0.4-3.7-0.7-4.1-2.6c0-0.1-0.1-0.3-0.1-0.5
		l-0.1-1.2c0,0-2.6-23.5,21.2-30.6C406.9,409.1,419.6,409.6,435.2,402.1z"></path><path class="st0" d="M386.2,439.6c-0.3,0-0.5-0.2-0.6-0.5c0-0.3,0.2-0.5,0.5-0.6L440,426c0.3-0.1,0.6,0.1,0.6,0.4c0,0,0,0,0,0
		c0.1,0.3-0.1,0.6-0.4,0.6l-53.9,12.6L386.2,439.6z"></path><path class="st0" d="M427.1,430c-0.3,0-0.5-0.2-0.5-0.4c0-0.1-1.8-12.3,11.2-16c0.3-0.1,0.6,0.1,0.7,0.4c0.1,0.3-0.1,0.6-0.4,0.7
		c-12.1,3.5-10.5,14.4-10.4,14.9C427.6,429.8,427.4,430,427.1,430C427.1,430.1,427.1,430.1,427.1,430L427.1,430z"></path><path class="st0" d="M409.3,417.2c-0.1,0-0.2,0-0.2-0.1l-13.5-7.2c-0.3-0.1-0.4-0.4-0.3-0.7c0.1-0.3,0.4-0.4,0.7-0.3c0,0,0,0,0.1,0
		l13.5,7.1c0.2,0.1,0.3,0.4,0.2,0.7C409.7,417.1,409.5,417.2,409.3,417.2z"></path><path class="st0" d="M404.3,420.6c-0.1,0-0.2,0-0.2-0.1l-13.5-7.1c-0.3-0.1-0.4-0.4-0.2-0.7c0,0,0,0,0,0c0.1-0.3,0.4-0.3,0.7-0.2
		c0,0,0,0,0,0l13.5,7.1c0.3,0.1,0.3,0.4,0.2,0.7C404.6,420.5,404.4,420.6,404.3,420.6z"></path><path class="st2" d="M313.7,401.7l1.5,27c0.1,1.9-1.3,3.5-3.2,3.6c0,0,0,0,0,0l-49.8,3.1c-1.9,0.1-3.5-1.3-3.7-3.2
		c0-0.2,0-0.3,0-0.5l0.1-1.2c0,0,1.4-23.6,26-26.7C284.6,404,297.1,406.6,313.7,401.7z"></path><path class="st0" d="M259.3,430.6c-0.3,0-0.5-0.2-0.5-0.5c0-0.3,0.2-0.5,0.5-0.5l55.2-3.5c0.3,0,0.5,0.2,0.5,0.4c0,0,0,0,0,0.1
		c0,0.3-0.2,0.5-0.5,0.5L259.3,430.6L259.3,430.6z"></path><path class="st0" d="M301.2,427.9L301.2,427.9c-0.3,0-0.5-0.2-0.5-0.5c0-0.1,0.3-12.4,13.7-14c0.3,0,0.5,0.2,0.6,0.5
		c0,0.3-0.1,0.5-0.4,0.6c0,0,0,0,0,0c-12.5,1.4-12.7,12.5-12.8,12.9C301.7,427.7,301.4,427.9,301.2,427.9
		C301.2,427.9,301.2,427.9,301.2,427.9z"></path><path class="st0" d="M285.8,412.3c-0.1,0-0.2,0-0.3-0.1l-12.1-9.3c-0.2-0.2-0.3-0.5-0.1-0.7c0.2-0.2,0.5-0.3,0.7-0.1l0,0l12.1,9.3
		c0.2,0.2,0.3,0.5,0.1,0.7C286.1,412.2,285.9,412.3,285.8,412.3z"></path><path class="st0" d="M280.2,414.8c-0.1,0-0.2,0-0.3-0.1l-12.1-9.3c-0.2-0.2-0.3-0.5-0.1-0.7c0.2-0.2,0.5-0.3,0.7-0.1l12.1,9.3
		c0.2,0.2,0.3,0.5,0.1,0.7C280.5,414.8,280.4,414.8,280.2,414.8z"></path><path class="st1" d="M325.7,122.8c-0.1,2.8-0.5,5.5-1.1,8.3c-0.5,1.8,0.6,3.6,2.4,4c0.3,0.1,0.5,0.1,0.8,0.1l7.3,0.1
		c2.6,0,4.6-2,4.6-4.6c0-0.1,0-0.2,0-0.3l-0.9-13.3L325.7,122.8z"></path><path class="st0" d="M335.2,135.7L335.2,135.7l-7.3-0.1c-1.2,0-2.3-0.5-3-1.5c-0.7-0.9-1-2.1-0.7-3.3c0.6-2.7,1-5.4,1.1-8.1
		c0-0.2,0.1-0.4,0.3-0.5l13.2-5.9c0.1-0.1,0.3-0.1,0.5,0c0.1,0.1,0.2,0.2,0.3,0.4l0.9,13.3c0.2,2.8-2,5.3-4.8,5.5
		C335.4,135.7,335.3,135.7,335.2,135.7L335.2,135.7z M326.2,123.2c-0.1,2.7-0.5,5.4-1.1,8c-0.4,1.5,0.5,3,2,3.4
		c0.2,0.1,0.4,0.1,0.7,0.1l7.3,0.1l0,0c2.3,0,4.1-1.8,4.1-4.1c0-0.1,0-0.2,0-0.2l-0.8-12.6L326.2,123.2z"></path><path class="st1" d="M313,80.2c0,0-15.1,16.3-10.1,33.9s33.4,14.1,38.1,0c0,0,6.8,2.3,7.9-3c0.9-4.1-1.6-7.1-4.8-6.4
		c-1.5,0.3-2.7,1.3-3.3,2.7l-2.1,4.1l-1.2-10.8c0,0-9.7-3.8-13.7-10.7C319.1,88.3,315.2,84.8,313,80.2z"></path><path class="st0" d="M320.7,126.6h-0.5c-9-0.2-15.6-4.8-17.8-12.3c-5.1-17.7,10-34.3,10.2-34.4c0.1-0.1,0.3-0.2,0.5-0.2
		c0.2,0,0.3,0.1,0.4,0.3c2.1,4.4,5.9,7.9,10.5,9.6c0.1,0,0.2,0.1,0.3,0.2c3.8,6.7,13.3,10.5,13.4,10.5c0.2,0.1,0.3,0.2,0.3,0.4l1,9
		l1.3-2.5c0.7-1.5,2.1-2.6,3.7-3c1.5-0.3,3,0.1,4.1,1.2c1.4,1.6,1.9,3.8,1.4,5.9c-0.2,1.3-1,2.5-2.2,3.2c-2.1,1.2-4.8,0.6-5.9,0.3
		C338.4,122.6,328.9,126.6,320.7,126.6z M312.9,81.1c-2.6,3.1-13.8,17.5-9.5,32.9c2.1,7.1,8.3,11.3,16.8,11.6
		c10.8,0.2,18.4-5.7,20.3-11.6c0.1-0.1,0.1-0.2,0.3-0.3c0.1-0.1,0.3-0.1,0.4,0c0,0,3.4,1.1,5.6-0.1c0.9-0.5,1.5-1.4,1.7-2.5
		c0.5-1.7,0.1-3.6-1-4.9c-0.8-0.8-2-1.2-3.1-0.9c-1.3,0.3-2.4,1.2-3,2.4l-2.1,4.1c-0.1,0.2-0.3,0.3-0.6,0.3c-0.2,0-0.4-0.2-0.4-0.5
		l-1.2-10.4c-1.7-0.7-9.9-4.4-13.6-10.7C318.9,88.8,315.1,85.5,312.9,81.1z"></path><path class="st0" d="M315.7,93.3c0.8-0.3,1.6-0.5,2.4-0.6c0.8-0.1,1.6-0.1,2.4,0c0.8,0.1,1.6,0.3,2.4,0.5c0.8,0.3,1.5,0.6,2.1,1.1
		c0.2,0.2,0.3,0.5,0.1,0.7c-0.1,0.2-0.3,0.3-0.5,0.2l0,0c-1.5-0.3-2.8-0.6-4.3-0.8c-0.7-0.1-1.4-0.1-2.1-0.2c-0.7,0-1.5,0-2.2,0
		h-0.1c-0.3,0.1-0.6-0.1-0.6-0.4C315.2,93.6,315.4,93.3,315.7,93.3C315.7,93.3,315.7,93.3,315.7,93.3z"></path><path class="st0" d="M304,90.9c0.6-0.3,1.2-0.4,1.9-0.5c1.3-0.1,2.6,0.2,3.8,0.8c0.6,0.3,1.1,0.7,1.5,1.2c0.2,0.2,0.2,0.5,0,0.8
		c-0.1,0.1-0.3,0.2-0.5,0.1l0,0c-1-0.4-2-0.7-3.1-1c-0.5-0.1-1-0.2-1.6-0.3c-0.5-0.1-1.1-0.1-1.6-0.2h-0.1c-0.3,0-0.5-0.2-0.6-0.5
		c0-0.2,0.1-0.5,0.4-0.5L304,90.9z"></path><path class="st1" d="M309.2,95c-0.9,2.6-2,5.2-3.3,7.6c0,0-3.8-1.9-4.6,0.9c-1,3.2,3.8,4.1,5.2,1.5"></path><path class="st0" d="M303.7,107c-0.5,0-0.9-0.1-1.4-0.3c-1.4-0.5-2.1-2-1.6-3.4c0,0,0-0.1,0-0.1c0.2-0.7,0.7-1.3,1.4-1.6
		c1.2-0.3,2.4-0.3,3.5,0.2c1.2-2.3,2.3-4.7,3.1-7.1c0.1-0.3,0.4-0.4,0.6-0.4c0.3,0.1,0.4,0.4,0.4,0.6c0,0,0,0,0,0
		c-0.9,2.7-2,5.3-3.4,7.7c-0.1,0.2-0.4,0.3-0.7,0.2c-1-0.5-2-0.6-3.1-0.4c-0.4,0.2-0.7,0.5-0.8,1c-0.4,0.8,0,1.8,0.8,2.1
		c0,0,0.1,0,0.1,0c1.2,0.5,2.5,0.1,3.2-1c0.1-0.3,0.4-0.4,0.7-0.3c0.3,0.1,0.4,0.4,0.3,0.7c0,0,0,0.1-0.1,0.1
		C306.3,106.4,305,107.1,303.7,107z"></path><path class="st0" d="M319.5,100c-0.3,1.2-1.2,2-2,1.8c-0.8-0.2-1.2-1.3-1-2.5c0.1-0.3,0.2-0.7,0.4-0.9l1.2,1.1l-0.3-1.9
		c0.2-0.1,0.4-0.1,0.6,0C319.3,97.7,319.8,98.8,319.5,100z"></path><path class="st0" d="M306.6,97.8c-0.2,0.9-0.9,1.5-1.5,1.3c-0.6-0.1-0.9-1-0.7-1.9c0.1-0.3,0.2-0.5,0.3-0.7l0.9,0.8l-0.2-1.4
		c0.1,0,0.3,0,0.5,0C306.4,96.1,306.8,97,306.6,97.8z"></path><path class="st0" d="M314.8,114c-1.4,0-2.6-0.6-3.6-1.6c-0.2-0.2-0.2-0.5,0-0.7c0.2-0.2,0.5-0.2,0.7,0c0.8,0.9,2.1,1.4,3.3,1.3
		c2.5-0.3,4.4-3.4,4.4-3.4c0.2-0.2,0.5-0.3,0.7-0.2c0.2,0.2,0.3,0.5,0.2,0.7c0,0,0,0,0,0c-0.1,0.1-2.2,3.5-5.2,3.9
		C315.2,114,315,114,314.8,114z"></path><path class="st1" d="M341.9,109.6c0,0,1-3.2,3.9-2.6"></path><path class="st0" d="M341.9,110.1c-0.1,0-0.1,0-0.2,0c-0.3-0.1-0.4-0.4-0.3-0.6c0,0,0,0,0,0c0.4-1.3,1.9-3.5,4.5-3
		c0.3,0.1,0.5,0.3,0.4,0.6c0,0,0,0,0,0c-0.1,0.3-0.3,0.5-0.6,0.4c0,0,0,0,0,0c-2.4-0.5-3.3,2.2-3.3,2.3
		C342.4,109.9,342.2,110.1,341.9,110.1z"></path><path class="st1" d="M345.9,111.9c0,0,0.9-3.3-1.6-4.9"></path><path class="st0" d="M345.9,112.4h-0.1c-0.3-0.1-0.4-0.4-0.4-0.6c0,0,0,0,0,0c0-0.1,0.7-3-1.4-4.3c-0.2-0.2-0.3-0.5-0.2-0.7
		c0.2-0.2,0.5-0.3,0.7-0.2c2.8,1.8,1.9,5.3,1.8,5.5C346.3,112.3,346.1,112.4,345.9,112.4z"></path></g></svg>