<svg transform="scale(1)" id="_0784_Couple_2" xmlns="http://www.w3.org/2000/svg" viewBox="0 0 500 500" class="show_show__wrapper__graphic__5Waiy "><title>React</title><g id="character-2"><polygon points="85.49 270.85 85.49 161.32 81.84 161.32 81.84 325.09 85.49 325.09 85.49 270.85" fill="#732a09" stroke-width="0"></polygon><path d="M85.49,325.59h-3.66c-.28,0-.5-.22-.5-.5v-163.77c0-.28.22-.5.5-.5h3.66c.28,0,.5.22.5.5v163.77c0,.28-.22.5-.5.5ZM82.34,324.59h2.66v-162.77h-2.66v162.77Z" fill="#732a09" stroke-width="0"></path><ellipse cx="83.66" cy="119.85" rx="46.19" ry="55.77" fill="#fff" stroke-width="0"></ellipse><path d="M83.66,176.12c-25.74,0-46.69-25.24-46.69-56.27s20.94-56.27,46.69-56.27,46.69,25.24,46.69,56.27-20.94,56.27-46.69,56.27ZM83.66,64.58c-25.19,0-45.69,24.79-45.69,55.27s20.5,55.27,45.69,55.27,45.69-24.79,45.69-55.27-20.5-55.27-45.69-55.27Z" fill="#732a09" stroke-width="0"></path><path d="M192.11,220.43c-11.37,10.38-34.5,53.68-34.5,53.68l-44.34-20.56s-7.64-7.74-11.18-10.49-12.28-2.43-16.6-5.44v33.23s8.15,2.95,15.03-2.36c0,0,23.06,20.22,41.31,26.2s32.02.04,38.29-9.94,11.99-64.33,11.99-64.33Z" fill="#fff" stroke-width="0"></path><path d="M155.96,297.63c-4.29,0-9.06-.74-14.28-2.46-17-5.57-38.37-23.62-41.17-26.03-6.94,5.08-14.84,2.31-15.17,2.19-.2-.07-.33-.26-.33-.47v-33.23c0-.19.1-.36.27-.44.16-.09.36-.07.52.03,2.1,1.46,5.37,2.12,8.52,2.76,3.22.65,6.26,1.26,8.1,2.69,3.39,2.64,10.37,9.67,11.16,10.47l43.83,20.32c2.54-4.73,23.55-43.5,34.39-53.4.15-.14.38-.17.56-.08.19.09.29.29.27.5-.23,2.22-5.8,54.58-12.06,64.54-4.25,6.76-12.56,12.6-24.59,12.6ZM100.52,268c.12,0,.24.04.33.12.23.2,23.19,20.22,41.13,26.1,19.32,6.33,32.15-.88,37.72-9.73,5.59-8.88,10.82-54.23,11.76-62.74-11.49,11.67-33.19,52.17-33.42,52.59-.12.23-.41.33-.65.22l-44.34-20.56c-.05-.02-.1-.06-.15-.1-.08-.08-7.66-7.75-11.13-10.45-1.65-1.29-4.58-1.88-7.68-2.5-2.9-.58-5.89-1.19-8.11-2.43v31.97c1.57.46,8.42,2.09,14.22-2.39.09-.07.2-.1.31-.1Z" fill="#732a09" stroke-width="0"></path><path d="M185.84,236.61c-8.17-9.7-4.82-31.62-4.82-31.62l-3.8-35.87s-4-7.14,0-16.83c4-9.68,15.19-11.94,21.39-5.83,0,0,26.53-4.25,34.4,20.28s-4.72,28.72,7.87,42.23c12.59,13.51,12.98,17.36,13.17,25.45.19,8.09,9.44,9.25,15.03,15.99,5.59,6.74,14.83,28.88-30.05,27.54s-53.18-41.34-53.18-41.34Z" fill="#fff" stroke-width="0"></path><path d="M242.87,278.52c-1.25,0-2.54-.02-3.86-.06-43.5-1.3-53.05-39.12-53.63-41.62-7.98-9.63-5.1-30.3-4.86-31.86l-3.78-35.71c-.48-.92-3.82-7.86.02-17.17,2.03-4.9,5.96-8.28,10.78-9.26,4.18-.85,8.27.28,11.24,3.09,2.76-.35,27.21-2.71,34.71,20.65,3.68,11.47,2.93,18.51,2.32,24.17-.7,6.5-1.16,10.8,5.44,17.88,12.52,13.44,13.1,17.38,13.3,25.78.11,4.73,3.53,6.99,7.49,9.6,2.57,1.7,5.23,3.45,7.42,6.09,2.91,3.51,6.97,11.24,3.7,17.92-3.41,6.97-13.59,10.5-30.29,10.5ZM190.25,143.57c-.83,0-1.67.08-2.51.26-4.5.91-8.16,4.07-10.06,8.66-3.86,9.35-.06,16.32-.03,16.39.03.06.05.12.06.19l3.8,35.87s0,.09,0,.13c-.03.22-3.22,21.82,4.71,31.23.05.06.09.14.11.22.08.4,8.75,39.63,52.71,40.94,18.31.55,29.8-2.87,33.23-9.88,3.04-6.23-1.01-13.74-3.58-16.84-2.09-2.52-4.69-4.23-7.2-5.89-4.02-2.65-7.82-5.15-7.94-10.41-.18-7.61-.27-11.43-13.03-25.12-6.91-7.41-6.4-12.13-5.7-18.66.6-5.56,1.34-12.48-2.28-23.76-7.64-23.82-33.59-19.98-33.85-19.93-.16.03-.32-.03-.43-.14-2.16-2.12-4.99-3.26-8.01-3.26Z" fill="#732a09" stroke-width="0"></path><path d="M171.82,341.13s-.41-73.7,7.45-100.61c7.87-26.91,34.78-39.75,50.1-30.64,15.32,9.11,22.99,30.22,28.47,69.14s7.97,57.14,7.97,57.14c0,0-60.86,19.46-93.99,4.97Z" fill="#f25454" stroke-width="0"></path><path d="M212.01,346.22s-28.18-17.1-54.68-32.83c-26.5-15.73-48.44-12.3-57.14,16.41-8.69,28.72-4.97,66.39-4.97,66.39,0,0,20.29,5.38,41.82-2.9l34.78,19.46s19.46-4.55,27.33-16.56c0,0,48.86,7.87,60.86-17.39,12.01-25.26,1.65-41.42,1.65-41.42,0,0-31.5,8.91-49.65,8.83Z" fill="#fff" stroke-width="0"></path><path d="M171.82,413.26c-.08,0-.17-.02-.24-.06l-34.57-19.35c-21.35,8.12-41.7,2.88-41.91,2.83-.2-.05-.35-.23-.37-.43-.04-.38-3.64-38.11,4.99-66.59,3.82-12.63,10.27-20.78,19.16-24.23,10.29-4,23.68-1.39,38.71,7.53,25.33,15.04,52.54,31.53,54.57,32.76.03,0,.07,0,.1,0,17.91,0,48.96-8.72,49.27-8.81.21-.06.44.03.56.21.11.17,2.66,4.21,3.75,11.43,1,6.64.89,17.31-5.37,30.47-4.99,10.5-17.21,16.88-35.34,18.45-12.4,1.08-23.71-.44-25.73-.73-7.99,11.83-26.66,16.32-27.46,16.51-.04,0-.08.01-.11.01ZM137.04,392.8c.08,0,.17.02.24.06l34.6,19.36c2.01-.51,19.58-5.22,26.84-16.3.11-.16.3-.25.5-.22.49.08,48.62,7.52,60.33-17.11,6.15-12.93,6.27-23.39,5.29-29.89-.89-5.9-2.81-9.66-3.42-10.73-3.59.99-32.19,8.75-49.17,8.75-.17,0-.35.01-.5-.07-.28-.17-28.49-17.28-54.68-32.83-14.76-8.76-27.85-11.34-37.84-7.46-8.59,3.34-14.83,11.27-18.56,23.59-8.12,26.83-5.33,61.95-4.98,65.85,2.73.64,21.55,4.58,41.17-2.96.06-.02.12-.03.18-.03Z" fill="#732a09" stroke-width="0"></path><path d="M137.04,393.8c-.27,0-.49-.21-.5-.48-.06-1.39-1.41-34.08,6.99-45.36.17-.22.48-.27.7-.1.22.17.27.48.1.7-8.19,10.99-6.81,44.38-6.79,44.72.01.28-.2.51-.48.52,0,0-.02,0-.02,0Z" fill="#732a09" stroke-width="0"></path><path d="M199.15,396.7c-.09,0-.19-.03-.27-.08-.23-.15-.3-.46-.15-.69,1.91-2.97,6.28-11.23,3.58-13.75-1.46-1.36-10.36-5.4-20.67-10.08-14.41-6.54-32.34-14.68-39.96-20-.23-.16-.28-.47-.12-.7.16-.23.47-.28.7-.12,7.54,5.27,25.43,13.39,39.8,19.91,10.82,4.91,19.36,8.79,20.94,10.26,3.86,3.6-3.13,14.55-3.43,15.02-.1.15-.26.23-.42.23Z" fill="#732a09" stroke-width="0"></path><path d="M135.22,398.73l.44,27.89c.03,1.95-1.52,3.56-3.47,3.61l-51.46,1.18c-2.16.05-3.86-1.82-3.61-3.96l.14-1.2s2.37-24.25,27.89-26.42c0,0,12.72,3.23,30.06-1.09Z" fill="#f75454" stroke-width="0"></path><path d="M77.96,426.19c-.27,0-.49-.22-.5-.49,0-.28.21-.5.49-.51l57.06-1.31c.28.01.5.21.51.49,0,.28-.21.5-.49.51l-57.06,1.31h-.01Z" fill="#732a09" stroke-width="0"></path><path d="M121.25,425.2s-.02,0-.03,0c-.28-.01-.49-.25-.47-.52,0-.13.8-12.78,14.64-13.8.27-.02.51.19.54.46.02.28-.19.52-.46.54-12.94.95-13.69,12.37-13.71,12.85-.01.27-.23.47-.5.47Z" fill="#732a09" stroke-width="0"></path><path d="M106.03,408.46c-.11,0-.23-.04-.32-.12l-12.09-10.07c-.21-.18-.24-.49-.06-.7.18-.21.49-.24.7-.06l12.09,10.07c.21.18.24.49.06.7-.1.12-.24.18-.38.18Z" fill="#732a09" stroke-width="0"></path><path d="M100.21,410.83c-.11,0-.23-.04-.32-.12l-12.09-10.07c-.21-.18-.24-.49-.06-.7.18-.21.49-.24.7-.06l12.09,10.07c.21.18.24.49.06.7-.1.12-.24.18-.38.18Z" fill="#732a09" stroke-width="0"></path><path d="M177.09,442.42c-9.02-5.09-13.88-21.05-1.16-37.13,0,0,26.14-12.61,20.82-22.32l15.2,6.19c6.23,2.53,9.39,9.58,6.96,15.85-.04.09-.07.19-.11.28-3.78,9.37-28.53,42.22-41.72,37.13Z" fill="#f75454" stroke-width="0"></path><path d="M178.02,439.91c-.1,0-.21-.03-.3-.1-.74-.56-1.17-1.35-1.27-2.35-.61-6.07,11.48-19.68,19.49-28.69l1.84-2.07c8.53-9.65,13.95-13.55,17.61-12.64.27.07.43.34.37.61-.07.27-.34.43-.61.37-3.21-.79-8.49,3.13-16.62,12.34l-1.84,2.07c-7.41,8.34-19.81,22.3-19.24,27.93.07.72.36,1.26.88,1.65.22.17.27.48.1.7-.1.13-.25.2-.4.2Z" fill="#732a09" stroke-width="0"></path><path d="M163.69,418.54c-.09,0-.18-.02-.27-.08-.23-.15-.3-.46-.16-.69.05-.08,4.86-7.56,12.52-5.29.26.08.42.36.34.62s-.36.41-.62.34c-6.94-2.06-11.35,4.79-11.39,4.86-.09.15-.26.23-.42.23Z" fill="#732a09" stroke-width="0"></path><path d="M163.69,426.19c-.08,0-.17-.02-.24-.06-.24-.13-.33-.44-.19-.68.05-.09,4.94-8.65,13.71-7.91.28.02.48.26.46.54-.02.27-.26.46-.54.46-8.12-.66-12.71,7.32-12.75,7.4-.09.16-.26.26-.44.26Z" fill="#732a09" stroke-width="0"></path><path d="M170.31,408.46s-.02,0-.02,0c-.28-.01-.49-.25-.48-.52.47-9.84,14.13-27.1,26.77-26.69.28,0,.49.24.48.51,0,.28-.24.46-.51.49-11.87-.32-25.29,16.48-25.74,25.74-.01.27-.23.48-.5.48Z" fill="#732a09" stroke-width="0"></path><path d="M203.73,290.25s-2.01-70.11,11.97-72.07c13.98-1.95,19.67,20.6,21.29,34.75s5.2,59.03-20.16,59.68c-25.36.65-64.06-3.9-64.06-3.9,0,0-6.59.3-12.47-2.37s-12.08-3.42-17.21-2.03-6.09,4.49-8.55,3.74-1.28-4.27-1.28-4.27c0,0-3.1-1.6-1.6-5.45,0,0-2.78-.32-1.71-3.63,0,0-2.67-1.07-1.07-4.49s9.3-9.19,15.92-8.66c0,0-2.89-3.95,1.18-6.63s17.85,9.83,23.51,11.86,54.23,3.46,54.23,3.46Z" fill="#fff" stroke-width="0"></path><path d="M211.66,313.18c-24.9,0-58.58-3.93-58.94-3.97-.19.01-6.7.28-12.62-2.41-5.76-2.62-11.91-3.35-16.87-2-2.42.66-3.87,1.7-5.04,2.54-1.28.92-2.3,1.65-3.79,1.2-.71-.22-1.23-.64-1.55-1.27-.58-1.12-.33-2.58-.16-3.27-.8-.57-2.6-2.27-1.67-5.32-.43-.16-1-.46-1.39-1.07-.45-.7-.54-1.59-.27-2.67-.39-.25-.95-.72-1.27-1.51-.39-.98-.27-2.13.34-3.43,1.56-3.32,8.81-8.97,15.49-8.98-.37-.77-.78-1.98-.54-3.29.23-1.27,1.01-2.36,2.32-3.22,2.85-1.88,9.25,2.47,15.45,6.68,3.34,2.27,6.49,4.41,8.51,5.13,5.21,1.87,48.26,3.25,53.55,3.42-.07-3.07-.36-18.94.76-34.82,1.67-23.85,5.59-36.38,11.66-37.22,3.3-.46,6.36.37,9.08,2.48,9.19,7.11,12.1,26.83,12.78,32.71,1.72,15,3.04,41.98-7.5,54.11-3.41,3.92-7.83,5.98-13.14,6.12-1.67.04-3.41.06-5.19.06ZM152.76,308.21c.47.05,39.03,4.54,64.07,3.9,5.02-.13,9.19-2.07,12.41-5.78,4.42-5.08,11.24-18.77,7.26-53.35-.66-5.78-3.52-25.16-12.4-32.03-2.5-1.94-5.31-2.71-8.33-2.28-5.45.76-9.19,13.31-10.8,36.3-1.23,17.54-.75,35.08-.74,35.26,0,.14-.05.27-.15.37-.1.1-.23.16-.37.15-1.99-.06-48.71-1.46-54.39-3.49-2.14-.77-5.34-2.94-8.73-5.25-5.36-3.64-12.04-8.18-14.34-6.67-1.07.71-1.71,1.56-1.89,2.56-.32,1.73.83,3.34.84,3.36.11.16.13.37.03.54-.1.17-.28.27-.48.25-6.4-.51-13.94,5.2-15.43,8.37-.48,1.04-.59,1.92-.32,2.63.33.85,1.11,1.18,1.12,1.18.24.1.37.37.29.62-.31.95-.29,1.69.03,2.21.42.66,1.25.77,1.26.77.15.02.29.11.37.24.08.13.09.29.04.44-1.32,3.39,1.26,4.77,1.37,4.82.22.11.32.37.24.6,0,.02-.57,1.77,0,2.87.2.38.51.63.96.77.98.3,1.64-.13,2.92-1.05,1.17-.84,2.76-1.99,5.36-2.69,5.26-1.42,11.49-.7,17.54,2.06,5.69,2.59,12.18,2.32,12.24,2.32Z" fill="#732a09" stroke-width="0"></path><path d="M134.89,284.28c-.08,0-.17-.02-.24-.06-4.74-2.66-9.74-2.17-9.79-2.17-.28.03-.52-.17-.55-.45-.03-.28.17-.52.45-.55.22-.03,5.37-.52,10.38,2.29.24.13.33.44.19.68-.09.16-.26.26-.44.26Z" fill="#732a09" stroke-width="0"></path><path d="M109.95,295.2c-.08,0-.17-.02-.25-.06-.24-.14-.33-.44-.19-.68,2.12-3.76,9.98-10.13,16.46-9.29.27.04.47.29.43.56-.04.27-.29.46-.56.43-5.57-.74-13.22,4.83-15.46,8.79-.09.16-.26.25-.44.25Z" fill="#732a09" stroke-width="0"></path><path d="M111.66,298.83c-.08,0-.17-.02-.25-.07-.24-.14-.32-.44-.19-.68,4.88-8.6,15.58-8.44,15.68-8.44.28,0,.49.24.49.51,0,.28-.26.47-.51.49-.1-.01-10.21-.13-14.79,7.94-.09.16-.26.25-.44.25Z" fill="#732a09" stroke-width="0"></path><path d="M113.27,304.28c-.09,0-.18-.02-.26-.07-.24-.14-.31-.45-.17-.69,5.53-9.22,14.1-7.23,14.18-7.2.27.07.43.34.37.6-.07.27-.34.44-.6.37-.32-.08-7.94-1.82-13.09,6.75-.09.16-.26.24-.43.24Z" fill="#732a09" stroke-width="0"></path><path d="M75.01,253.86c-1.5-1.8-2.46-3.9-1.62-5.64s7.67-1.44,10.79-1.2,6.56.24,6.94,2.22-2.5,5.16-2.5,5.16l-13.61-.54Z" fill="#fff" stroke-width="0"></path><path d="M88.62,254.89h-.02l-13.61-.54c-.14,0-.27-.07-.36-.18-1.9-2.29-2.5-4.48-1.68-6.17.9-1.87,6.63-1.84,11.28-1.48l1,.07c2.94.2,5.98.41,6.39,2.55.41,2.16-2.31,5.24-2.62,5.58-.09.1-.23.16-.37.16ZM75.25,253.37l13.15.52c.83-.96,2.48-3.22,2.23-4.55-.26-1.39-2.91-1.57-5.48-1.74l-1.01-.07c-6.57-.51-9.91.1-10.3.92-.82,1.7.47,3.75,1.41,4.93Z" fill="#732a09" stroke-width="0"></path><path d="M75.79,260.15c-1.8-.96-3.48-3.06-3.42-4.86s1.86-3.06,4.5-3.12,12.05-.06,13.31,1.08,1.26,3.18,0,4.32-3.96,2.34-6,2.58-8.39,0-8.39,0Z" fill="#fff" stroke-width="0"></path><path d="M81.08,260.76c-2.43,0-5.14-.1-5.31-.11-.08,0-.15-.02-.22-.06-1.86-.99-3.75-3.25-3.68-5.31.07-2.09,2.07-3.54,4.99-3.6.49-.01,12.04-.26,13.66,1.21.7.64,1.11,1.56,1.11,2.53s-.4,1.89-1.11,2.53c-1.38,1.25-4.19,2.46-6.27,2.7-.7.08-1.89.11-3.16.11ZM75.92,259.66c.87.03,6.37.22,8.2,0,1.88-.22,4.49-1.34,5.72-2.45.5-.45.78-1.1.78-1.79s-.28-1.34-.78-1.79c-.88-.79-8.09-1.06-12.96-.95-2.35.05-3.96,1.11-4.01,2.63-.05,1.45,1.31,3.37,3.05,4.34Z" fill="#732a09" stroke-width="0"></path><path d="M76.75,265.49s-3.9-.42-3.96-3.48,5.52-3.12,8.33-3,8.39-.48,9.35,1.14-1.8,4.86-6.42,4.8-7.31.54-7.31.54Z" fill="#fff" stroke-width="0"></path><path d="M76.75,265.99s-.04,0-.05,0c-1.5-.16-4.35-1.2-4.4-3.96-.01-.75.25-1.41.79-1.94,1.24-1.22,3.96-1.75,8.06-1.57.66.03,1.49.01,2.37,0,3.2-.05,6.51-.1,7.39,1.38.4.67.33,1.55-.17,2.41-.92,1.59-3.36,3.2-6.69,3.14-4.5-.07-7.17.52-7.2.53-.04,0-.07.01-.11.01ZM79.66,259.48c-3.7,0-5.24.7-5.88,1.32-.34.33-.5.73-.49,1.2.05,2.39,2.92,2.91,3.44,2.98.51-.1,3.12-.59,7.34-.53,2.91.02,5.06-1.34,5.81-2.64.31-.54.38-1.05.17-1.4-.58-.98-4.15-.93-6.51-.89-.9.01-1.74.03-2.43,0-.51-.02-.99-.03-1.44-.03Z" fill="#732a09" stroke-width="0"></path><path d="M75.77,268.42c-1.58-.34-1.95-2.32-.58-3.13s3.57-1.18,5.97-1.18c4.09,0,8.05.2,8.16,1.84s-2.5,3.48-7.89,3.17c-2.49-.14-4.36-.44-5.66-.71Z" fill="#fff" stroke-width="0"></path><path d="M82.58,269.66c-.38,0-.77-.01-1.18-.03-2.12-.12-4.05-.36-5.73-.72h0c-.94-.2-1.65-.92-1.79-1.84-.14-.89.26-1.74,1.06-2.21,1.75-1.03,4.35-1.25,6.22-1.25,5.25,0,8.53.39,8.66,2.31.04.65-.23,1.29-.79,1.86-1.21,1.22-3.52,1.88-6.45,1.88ZM75.88,267.93c1.63.35,3.51.58,5.58.7,3.16.18,5.72-.4,6.86-1.56.35-.35.52-.73.5-1.09-.09-1.38-5.79-1.38-7.66-1.38-2.51,0-4.48.38-5.71,1.11-.44.26-.66.71-.58,1.19.07.4.37.88,1.02,1.02h0Z" fill="#732a09" stroke-width="0"></path><path d="M107.58,257.41s-3.2,7.05-7.06,11.09" fill="#fff" stroke-width="0"></path><path d="M100.52,269c-.12,0-.25-.05-.35-.14-.2-.19-.21-.51-.02-.71,3.75-3.93,6.93-10.88,6.97-10.95.11-.25.41-.36.66-.25.25.11.36.41.25.66-.13.29-3.28,7.17-7.15,11.22-.1.1-.23.15-.36.15Z" fill="#732a09" stroke-width="0"></path><path d="M81.84,235.76c-4.35-2.77-3.66,4.83,0,7.44v-7.44Z" fill="#fff" stroke-width="0"></path><path d="M81.84,243.71c-.1,0-.2-.03-.29-.09-2.7-1.93-3.93-6.46-2.76-8.19.31-.46,1.26-1.39,3.32-.08.14.09.23.25.23.42v7.44c0,.19-.1.36-.27.44-.07.04-.15.06-.23.06ZM80.23,235.67c-.25,0-.46.09-.61.31-.72,1.07-.07,4.22,1.72,6.13v-6.06c-.37-.21-.77-.38-1.11-.38Z" fill="#732a09" stroke-width="0"></path><path d="M80.72,105.56s6.64-16.93,20.81-8.43,4.79,32.8-10.33,45.57c-4.11,3.47-9.98,3.86-14.51.94-7.96-5.13-19.67-15.03-19.36-28.78.46-20.8,17.64-14.96,23.4-9.29Z" fill="#f25454" stroke-width="0"></path><path d="M83.31,146.1c-2.38,0-4.77-.67-6.9-2.04-7.45-4.8-19.91-14.98-19.59-29.21.21-9.56,3.96-13.07,7.08-14.34,5.69-2.31,13.03,1.01,16.64,4.21.92-2.01,4.06-7.94,9.72-9.87,3.57-1.21,7.44-.59,11.52,1.86,4.15,2.49,6.58,6.62,7.01,11.95.87,10.77-6.4,25.25-17.27,34.43-2.37,2-5.28,3.02-8.21,3.02ZM68.03,100.75c-1.31,0-2.58.21-3.76.68-4.07,1.65-6.3,6.3-6.45,13.43-.3,13.75,11.86,23.66,19.14,28.35,4.36,2.81,9.95,2.44,13.92-.9,10.65-8.99,17.76-23.11,16.92-33.59-.41-5.06-2.6-8.82-6.52-11.17-3.82-2.29-7.41-2.88-10.68-1.77-6.28,2.14-9.37,9.88-9.4,9.95-.06.16-.2.27-.36.31-.16.04-.34-.02-.45-.13-2.59-2.55-7.69-5.17-12.34-5.17Z" fill="#732a09" stroke-width="0"></path><path d="M197.78,207.89s-.08,2.22-.49,5.1c-.65,4.61,2.87,8.74,7.52,8.77h.86c4.47.03,8.03-3.74,7.74-8.21l-.8-12.29-14.83,6.63Z" fill="#fff" stroke-width="0"></path><path d="M205.72,222.27h-.91c-2.35-.02-4.57-1.05-6.1-2.82-1.55-1.79-2.24-4.17-1.91-6.53.4-2.82.49-5.03.49-5.05,0-.19.12-.36.3-.44l14.83-6.63c.15-.07.32-.06.46.03.14.08.23.23.24.4l.8,12.29c.15,2.3-.64,4.49-2.22,6.17-1.57,1.66-3.69,2.58-5.97,2.58ZM198.27,208.22c-.04.72-.16,2.59-.48,4.84-.29,2.07.32,4.16,1.68,5.73,1.34,1.56,3.3,2.46,5.35,2.47h.86s.03,0,.04,0c2.01,0,3.87-.8,5.25-2.26,1.39-1.47,2.08-3.4,1.95-5.42l-.75-11.58-13.89,6.21Z" fill="#732a09" stroke-width="0"></path><path d="M183.45,159.89s-17.01,18.37-11.34,38.22c5.67,19.85,37.6,15.9,42.9,0,0,0,7.64,2.59,8.88-3.33.98-4.68-1.83-7.98-5.43-7.25-1.64.33-2.98,1.52-3.73,3.02l-2.3,4.6-1.36-12.08s-10.97-4.31-15.41-12.08c0,0-8.38-2.59-12.2-11.1Z" fill="#fff" stroke-width="0"></path><path d="M192.25,212.05c-.24,0-.48,0-.72,0-10.06-.22-17.5-5.38-19.9-13.8-5.68-19.89,11.28-38.51,11.46-38.69.11-.12.28-.18.45-.15.17.03.31.13.38.29,3.68,8.19,11.81,10.8,11.9,10.82.12.04.22.12.29.23,4.3,7.53,15.05,11.82,15.16,11.87.17.07.29.22.31.41l1.17,10.4,1.55-3.09c.86-1.71,2.38-2.94,4.08-3.28,1.7-.34,3.34.14,4.52,1.31,1.51,1.51,2.05,3.89,1.51,6.53-.33,1.61-1.14,2.78-2.39,3.5-2.31,1.32-5.47.66-6.66.34-2.53,6.76-11.1,13.33-23.07,13.33ZM183.32,160.79c-2.73,3.22-15.72,19.74-10.74,37.17,2.28,7.98,9.37,12.87,18.96,13.08,12.14.24,20.75-6.39,22.98-13.1.04-.13.13-.23.25-.29.12-.06.26-.07.38-.03.04.01,3.87,1.28,6.32-.12.99-.57,1.63-1.52,1.91-2.83.47-2.27.01-4.37-1.24-5.62-.94-.95-2.23-1.32-3.61-1.04-1.4.28-2.66,1.31-3.38,2.75l-2.3,4.6c-.1.2-.32.31-.53.27-.22-.04-.38-.22-.41-.44l-1.32-11.79c-1.78-.74-11.11-4.89-15.28-12.02-1.28-.44-8.29-3.13-11.99-10.61Z" fill="#732a09" stroke-width="0"></path><path d="M186.48,174.71c3.38-1.28,7.37-.78,10.39,1.17.23.15.3.46.15.7-.12.18-.34.27-.54.22-1.65-.39-3.23-.77-4.85-.96-1.62-.2-3.31-.24-4.92-.16-.55.05-.73-.78-.22-.97h0Z" fill="#732a09" stroke-width="0"></path><path d="M173.29,172.05c2.69-1.09,6.03-.38,8.02,1.73.19.2.19.52-.01.72-.15.14-.36.18-.53.11-1.22-.47-2.36-.91-3.56-1.17-1.2-.28-2.49-.39-3.72-.42-.53,0-.67-.78-.18-.97h0Z" fill="#732a09" stroke-width="0"></path><path d="M179.21,176.57c-1.67,5-3.76,8.57-3.76,8.57,0,0-4.25-2.08-5.2.98-1.13,3.66,4.32,4.61,5.77,1.69" fill="#fff" stroke-width="0"></path><path d="M173.03,190.03c-.53,0-1.05-.1-1.52-.28-1.25-.5-2.35-1.75-1.73-3.77.26-.85.77-1.45,1.51-1.77,1.36-.59,3.13-.03,3.95.29.57-1.05,2.17-4.13,3.5-8.09.09-.26.37-.41.63-.31.26.09.4.37.32.63-1.67,4.99-3.78,8.63-3.8,8.66-.13.23-.42.31-.65.2-.02,0-2.19-1.05-3.55-.46-.46.2-.78.58-.95,1.14-.52,1.68.63,2.34,1.15,2.55,1.24.5,3.01.17,3.7-1.23.12-.25.42-.35.67-.23.25.12.35.42.23.67-.68,1.37-2.09,2-3.45,2Z" fill="#732a09" stroke-width="0"></path><path d="M190.75,182.18c-.32,1.33-1.32,2.22-2.23,2-.92-.22-1.41-1.46-1.09-2.79.09-.39.26-.76.46-1.06l1.37,1.23-.29-2.12c.23-.08.45-.09.68-.04.91.22,1.41,1.46,1.09,2.78Z" fill="#732a09" stroke-width="0"></path><path d="M176.2,179.78c-.24,1-.99,1.67-1.68,1.51s-1.06-1.1-.82-2.1c.07-.3.19-.57.35-.8l1.03.92-.22-1.59c.17-.06.34-.07.51-.03.69.16,1.06,1.1.82,2.09Z" fill="#732a09" stroke-width="0"></path><path d="M185.44,197.88c-1.38,0-2.71-.6-3.96-1.78-.2-.19-.21-.51-.02-.71.19-.2.51-.21.71-.02,1.22,1.15,2.49,1.64,3.79,1.47,2.86-.38,5.01-3.82,5.04-3.85.15-.23.45-.31.69-.16.23.14.31.45.16.69-.1.16-2.42,3.88-5.75,4.32-.22.03-.43.04-.65.04Z" fill="#732a09" stroke-width="0"></path><path d="M216.03,192.95s1.17-3.62,4.43-2.94" fill="#fff" stroke-width="0"></path><path d="M216.03,193.45c-.05,0-.1,0-.15-.02-.26-.08-.41-.37-.32-.63.45-1.4,2.08-3.89,5.01-3.28.27.06.44.32.39.59-.06.27-.32.45-.59.39-2.78-.57-3.81,2.48-3.85,2.61-.07.21-.26.35-.48.35Z" fill="#732a09" stroke-width="0"></path><path d="M220.46,195.61s.99-3.73-1.83-5.51" fill="#fff" stroke-width="0"></path><path d="M220.46,196.11s-.08,0-.13-.02c-.27-.07-.43-.34-.36-.61.04-.14.85-3.4-1.61-4.96-.23-.15-.3-.46-.15-.69.15-.23.46-.3.69-.16,3.09,1.96,2.09,5.9,2.04,6.07-.06.22-.26.37-.48.37Z" fill="#732a09" stroke-width="0"></path></g><g id="character-1"><polygon points="399.16 270.85 399.16 161.32 395.5 161.32 395.5 325.09 399.16 325.09 399.16 270.85" fill="#732a09" stroke-width="0"></polygon><path d="M399.16,325.59h-3.66c-.28,0-.5-.22-.5-.5v-163.77c0-.28.22-.5.5-.5h3.66c.28,0,.5.22.5.5v163.77c0,.28-.22.5-.5.5ZM396,324.59h2.66v-162.77h-2.66v162.77Z" fill="#732a09" stroke-width="0"></path><ellipse cx="397.33" cy="119.85" rx="46.19" ry="55.77" fill="#fff" stroke-width="0"></ellipse><path d="M397.33,176.12c-25.74,0-46.69-25.24-46.69-56.27s20.94-56.27,46.69-56.27,46.69,25.24,46.69,56.27-20.94,56.27-46.69,56.27ZM397.33,64.58c-25.19,0-45.69,24.79-45.69,55.27s20.5,55.27,45.69,55.27,45.69-24.79,45.69-55.27-20.5-55.27-45.69-55.27Z" fill="#732a09" stroke-width="0"></path><path d="M394.39,105.56s6.64-16.93,20.81-8.43,4.79,32.8-10.33,45.57c-4.11,3.47-9.98,3.86-14.51.94-7.96-5.13-19.67-15.03-19.36-28.78.46-20.8,17.64-14.96,23.4-9.29Z" fill="#f25454" stroke-width="0"></path><path d="M396.98,146.1c-2.38,0-4.77-.67-6.9-2.04-7.45-4.8-19.91-14.98-19.59-29.21.21-9.56,3.96-13.07,7.08-14.34,5.69-2.31,13.03,1.01,16.64,4.21.92-2.01,4.06-7.94,9.72-9.87,3.56-1.21,7.44-.59,11.52,1.86,4.15,2.49,6.58,6.62,7.01,11.95.87,10.77-6.4,25.25-17.27,34.43-2.37,2-5.28,3.02-8.21,3.02ZM381.7,100.75c-1.31,0-2.58.21-3.76.68-4.07,1.65-6.3,6.3-6.45,13.43-.3,13.75,11.86,23.66,19.14,28.35,4.36,2.81,9.95,2.44,13.92-.9,10.65-8.99,17.76-23.11,16.92-33.59-.41-5.06-2.6-8.82-6.52-11.17-3.81-2.29-7.41-2.89-10.68-1.77-6.27,2.13-9.38,9.88-9.41,9.95-.06.16-.2.27-.36.31s-.33-.02-.45-.13c-2.59-2.55-7.69-5.17-12.34-5.17Z" fill="#732a09" stroke-width="0"></path><path d="M372.73,288.81c.34-.11,6.19-3.15,9.45-5.85s4.39-3.19,7.31-4.41,5.29,0,5.29,0v2.09c0,.96.92,1.65,1.84,1.37,2.43-.75,6.55-1.82,7.94-.97,2.03,1.24-.79,5.74-.79,5.74,0,0,2.82,1.58,1.52,5.96,0,0,2.76,3.49.34,5.96,0,0,2.98,7.19-4.56,7.2-7.54,0-24.64-1.01-24.64-1.01l-3.71-16.09Z" fill="#fff" stroke-width="0"></path><path d="M400.98,306.41c-7.52,0-24.4-1-24.57-1.01-.22-.01-.41-.17-.46-.39l-3.71-16.09c-.06-.25.08-.5.32-.58.43-.17,6.14-3.15,9.3-5.76,3.38-2.8,4.57-3.29,7.44-4.49,3.1-1.29,5.6-.04,5.71.02.17.08.27.26.27.44v2.09c0,.3.14.57.38.75.24.17.54.22.82.14,4.34-1.34,7.15-1.65,8.35-.92.46.28.77.71.9,1.27.37,1.58-.76,3.83-1.29,4.76.79.67,2.34,2.51,1.41,5.99.99,1.37,2.12,4.1.37,6.18.31.9,1.07,3.61-.23,5.56-.9,1.34-2.55,2.02-4.9,2.03h-.1ZM376.84,304.42c2.53.15,17.27.99,24.14.99h.1c2,0,3.38-.53,4.07-1.58,1.26-1.89.04-4.9.03-4.93-.08-.19-.04-.4.1-.54,2.08-2.13-.27-5.17-.38-5.3-.1-.13-.13-.3-.09-.45,1.16-3.92-1.19-5.33-1.29-5.39-.12-.07-.2-.18-.24-.31-.03-.13-.01-.27.06-.39.49-.79,1.7-3.12,1.4-4.4-.07-.3-.21-.5-.45-.65-.89-.54-3.71-.16-7.54,1.02-.59.18-1.21.08-1.71-.29-.5-.37-.79-.94-.79-1.56v-1.76c-.67-.25-2.48-.75-4.6.13-2.85,1.19-3.92,1.63-7.19,4.33-2.88,2.38-7.72,5.01-9.19,5.74l3.54,15.33Z" fill="#732a09" stroke-width="0"></path><path d="M350.21,341.26s.41-73.7-7.45-100.61c-7.87-26.91-34.78-39.75-50.1-30.64-15.32,9.11-22.99,30.22-28.47,69.14-5.48,38.92-7.97,57.14-7.97,57.14,0,0,60.86,19.46,93.99,4.97Z" fill="#f25454" stroke-width="0"></path><path d="M311.82,218.07c12.39,3.92,11.7,25.61,11.79,37.74s-2.24,28.91-2.24,28.91h48.86c1.71,0,3.26.94,4.07,2.44,1.89,3.53,4.65,10.86,3.18,21.91-.26,1.95-1.7,3.54-3.63,3.94-11.64,2.42-53.27,10.41-74.67,5.77-25.04-5.42-22.37-43.27-17.59-66.61" fill="#f25454" stroke-width="0"></path><path d="M315.52,320.71c-6.1,0-11.76-.41-16.45-1.43-11.3-2.45-18.15-11.53-20.36-27-2.09-14.61.6-31.45,2.39-40.19.06-.27.32-.44.59-.39.27.06.45.32.39.59-1.77,8.68-4.44,25.39-2.38,39.85,2.14,15.01,8.73,23.82,19.59,26.17,21.2,4.59,62.36-3.26,74.47-5.77,1.7-.35,3.01-1.77,3.24-3.51,1.46-11-1.33-18.26-3.13-21.61-.72-1.35-2.11-2.18-3.62-2.18h-48.86c-.14,0-.28-.06-.38-.17-.1-.11-.14-.25-.12-.4.02-.17,2.32-16.88,2.23-28.84v-2.19c-.05-12.54-.11-31.49-11.44-35.08-.26-.08-.41-.36-.33-.63.08-.26.36-.41.63-.33,12.02,3.81,12.09,23.2,12.13,36.03v2.18c.08,10.78-1.76,25.37-2.16,28.41h48.29c1.88,0,3.61,1.04,4.51,2.71,1.85,3.46,4.73,10.94,3.24,22.22-.29,2.17-1.91,3.92-4.03,4.36-9.49,1.97-36.75,7.2-58.43,7.2Z" fill="#732a09" stroke-width="0"></path><path d="M310.02,346.35s28.18-17.1,54.68-32.83c26.5-15.73,48.44-12.3,57.14,16.41,8.69,28.72,4.97,66.39,4.97,66.39,0,0-20.29,5.38-41.82-2.9l-34.78,19.46s-19.46-4.55-27.33-16.56c0,0-48.86,7.87-60.86-17.39-12.01-25.26-1.65-41.42-1.65-41.42,0,0,31.5,8.91,49.65,8.83Z" fill="#fff" stroke-width="0"></path><path d="M350.21,413.39s-.08,0-.11-.01c-.8-.19-19.47-4.67-27.46-16.51-2.02.29-13.33,1.81-25.73.73-18.13-1.57-30.35-7.95-35.34-18.45-6.26-13.16-6.37-23.83-5.37-30.47,1.09-7.22,3.64-11.26,3.75-11.43.12-.19.35-.27.56-.21.31.09,31.36,8.81,49.27,8.81.03,0,.07,0,.1,0,2.03-1.23,29.24-17.72,54.57-32.76,15.03-8.93,28.42-11.53,38.71-7.53,8.89,3.45,15.33,11.61,19.16,24.23,8.62,28.48,5.02,66.21,4.99,66.59-.02.21-.17.38-.37.43-.2.05-20.55,5.29-41.91-2.83l-34.57,19.35c-.08.04-.16.06-.24.06ZM322.88,395.83c.17,0,.32.08.42.23,7.26,11.08,24.83,15.8,26.84,16.3l34.6-19.36c.13-.07.28-.08.42-.03,19.62,7.55,38.44,3.6,41.17,2.96.34-3.89,3.14-39.03-4.98-65.85-3.73-12.32-9.98-20.25-18.56-23.59-10-3.88-23.08-1.3-37.84,7.46-26.19,15.55-54.4,32.66-54.68,32.83-.15.09-.33.07-.5.07-16.98,0-45.58-7.75-49.17-8.75-.61,1.08-2.54,4.87-3.43,10.79-.97,6.49-.84,16.93,5.29,29.83,11.71,24.63,59.85,17.19,60.33,17.11.03,0,.05,0,.08,0ZM310.02,346.35h.01-.01Z" fill="#732a09" stroke-width="0"></path><path d="M384.99,393.93s-.02,0-.02,0c-.28-.01-.49-.25-.48-.52.01-.34,1.39-33.73-6.79-44.72-.17-.22-.12-.54.1-.7.22-.17.53-.12.7.1,8.4,11.28,7.05,43.97,6.99,45.36-.01.27-.23.48-.5.48Z" fill="#732a09" stroke-width="0"></path><path d="M322.88,396.83c-.16,0-.33-.08-.42-.23-.3-.46-7.28-11.42-3.43-15.02,1.58-1.47,10.12-5.35,20.94-10.26,14.37-6.52,32.26-14.64,39.8-19.91.23-.16.54-.1.7.12.16.23.1.54-.12.7-7.62,5.33-25.55,13.46-39.96,20-10.31,4.68-19.22,8.72-20.67,10.08-2.7,2.52,1.67,10.78,3.58,13.75.15.23.08.54-.15.69-.08.05-.18.08-.27.08Z" fill="#732a09" stroke-width="0"></path><path d="M386.81,398.86l-.44,27.89c-.03,1.95,1.52,3.56,3.47,3.61l51.46,1.18c2.16.05,3.86-1.82,3.61-3.96l-.14-1.2s-2.37-24.25-27.89-26.42c0,0-12.72,3.23-30.06-1.09Z" fill="#f75454" stroke-width="0"></path><path d="M444.07,426.32h-.01l-57.06-1.31c-.28,0-.49-.24-.49-.51,0-.28.22-.5.51-.49l57.06,1.31c.28,0,.49.24.49.51,0,.27-.23.49-.5.49Z" fill="#732a09" stroke-width="0"></path><path d="M400.78,425.33c-.26,0-.48-.21-.5-.47-.03-.49-.77-11.9-13.71-12.85-.28-.02-.48-.26-.46-.54.02-.27.26-.49.54-.46,13.83,1.02,14.63,13.67,14.64,13.8.01.28-.2.51-.47.52,0,0-.02,0-.03,0Z" fill="#732a09" stroke-width="0"></path><path d="M416,408.59c-.14,0-.29-.06-.38-.18-.18-.21-.15-.53.06-.7l12.09-10.07c.21-.18.53-.15.7.06.18.21.15.53-.06.7l-12.09,10.07c-.09.08-.21.12-.32.12Z" fill="#732a09" stroke-width="0"></path><path d="M421.82,410.96c-.14,0-.29-.06-.38-.18-.18-.21-.15-.53.06-.7l12.09-10.07c.21-.18.53-.15.7.06.18.21.15.53-.06.7l-12.09,10.07c-.09.08-.21.12-.32.12Z" fill="#732a09" stroke-width="0"></path><path d="M344.93,442.55c9.02-5.09,13.88-21.05,1.16-37.13,0,0-26.14-12.61-20.82-22.32l-15.2,6.19c-6.23,2.53-9.39,9.58-6.96,15.85.04.09.07.19.11.28,3.78,9.37,28.53,42.22,41.72,37.13Z" fill="#f75454" stroke-width="0"></path><path d="M344.01,440.04c-.15,0-.3-.07-.4-.2-.17-.22-.12-.53.1-.7.52-.39.81-.93.88-1.65.57-5.63-11.83-19.59-19.24-27.93l-1.84-2.07c-8.14-9.21-13.42-13.13-16.62-12.34-.27.07-.54-.1-.61-.37s.1-.54.37-.61c3.65-.91,9.09,3,17.61,12.65l1.84,2.07c8,9.01,20.1,22.63,19.49,28.69-.1,1-.53,1.79-1.27,2.35-.09.07-.19.1-.3.1Z" fill="#732a09" stroke-width="0"></path><path d="M358.34,418.66c-.17,0-.33-.08-.42-.23-.18-.28-4.46-6.92-11.39-4.86-.27.08-.54-.07-.62-.34-.08-.26.07-.54.34-.62,7.66-2.26,12.47,5.21,12.52,5.29.15.23.08.54-.16.69-.08.05-.17.08-.27.08Z" fill="#732a09" stroke-width="0"></path><path d="M358.34,426.32c-.17,0-.34-.09-.44-.26-.05-.08-4.63-8.07-12.75-7.4-.27.03-.52-.18-.54-.46s.18-.52.46-.54c8.77-.72,13.66,7.82,13.71,7.91.13.24.05.54-.19.68-.08.04-.16.06-.24.06Z" fill="#732a09" stroke-width="0"></path><path d="M351.72,408.59c-.27,0-.49-.21-.5-.48-.44-9.26-13.8-26.11-25.74-25.74-.27-.01-.51-.21-.52-.48,0-.28.21-.51.48-.52,5.69-.17,12.24,3.33,17.98,9.6,5.11,5.59,8.56,12.29,8.79,17.09.01.28-.2.51-.48.52,0,0-.02,0-.02,0Z" fill="#732a09" stroke-width="0"></path><path d="M331.21,152.19c.79-5.44,2.5-15.44-2.25-18.82s-30.3-17.21-41.61,10.65c0,0-23.46,10.68-14.17,31.57,9.29,20.89,28.29,22.44,28.29,22.44l29.74-45.84Z" fill="#732a09" stroke-width="0"></path><path d="M301.46,198.53s-.03,0-.04,0c-.19-.02-19.4-1.81-28.71-22.74-8.94-20.11,12.04-31.06,14.24-32.14,3.61-8.79,8.99-14.28,15.98-16.31,12.91-3.76,26.18,5.53,26.31,5.63,4.79,3.41,3.4,12.88,2.57,18.54l-.11.75c-.01.07-.04.14-.08.2l-29.74,45.84c-.09.14-.25.23-.42.23ZM309.44,127.44c-2.04,0-4.14.25-6.22.86-6.73,1.96-11.92,7.31-15.41,15.91-.05.12-.14.21-.26.27-.06.03-5.85,2.7-10.42,7.85-6.08,6.84-7.26,14.6-3.5,23.06,4.73,10.64,12.05,16.09,17.36,18.79,4.94,2.52,9.11,3.18,10.22,3.32l29.52-45.49.09-.65c.8-5.43,2.13-14.53-2.16-17.58-.11-.08-9.05-6.34-19.23-6.34ZM331.21,152.19h0,0Z" fill="#732a09" stroke-width="0"></path><path d="M319.09,184.4l-1.32,26.13s-11.74-4.55-21.81-1.67l3.38-27.03,19.76,2.58Z" fill="#fff" stroke-width="0"></path><path d="M317.76,211.02c-.06,0-.12-.01-.18-.03-.12-.04-11.71-4.46-21.49-1.66-.16.05-.33,0-.46-.1-.13-.11-.19-.28-.17-.44l3.38-27.03c.02-.13.08-.25.19-.33.11-.08.24-.11.37-.1l19.76,2.58c.26.03.45.26.43.52l-1.32,26.12c0,.16-.09.31-.23.39-.08.05-.18.08-.27.08ZM303.36,207.38c6.35,0,12.05,1.78,13.94,2.44l1.27-24.99-18.8-2.46-3.22,25.8c2.26-.57,4.58-.79,6.82-.79Z" fill="#732a09" stroke-width="0"></path><path d="M339.77,174.56s.01.03.03.07c.31,1.08,4.27,14.64-.61,22-1.28,1.92-3.43,3.33-5.96,4.36-9.29,3.79-19.99.93-26.59-6.64l-1.32-1.53c-16.46.74-8.94-21.9-.98-16.97.41,1.43,1.14,3.07,1.72,4.63.61,1.7,2.48,2.58,4.2,1.99l-.4-11.39c1.96-1.89,3.83-3.86,5.61-5.9,3.38-3.87,6.45-8,9.17-12.37l4.43-7.11s6.7,13.48,9.39,21.38c0,0,4.58-.84,5.72,2.37,1.14,3.2-4.42,5.11-4.42,5.11Z" fill="#fff" stroke-width="0"></path><path d="M324.67,203.16c-6.84,0-13.61-2.99-18.4-8.48l-1.17-1.35c-6.4.21-8.68-3.14-9.47-5.17-1.69-4.38.23-9.85,3.09-12.21,1.85-1.54,3.94-1.72,5.88-.52.11.07.18.17.22.29.26.9.64,1.87,1.05,2.89.23.57.45,1.14.66,1.71.48,1.34,1.85,2.07,3.21,1.78l-.38-11c0-.14.05-.28.15-.38,1.94-1.88,3.82-3.85,5.59-5.87,3.37-3.86,6.44-8,9.12-12.31l4.43-7.11c.1-.15.25-.26.45-.23.18,0,.34.11.42.28.07.13,6.53,13.16,9.28,21.05,1.24-.13,4.79-.24,5.86,2.75.28.79.24,1.58-.12,2.34-.83,1.73-3.16,2.83-4.15,3.24.9,3.23,3.77,15.17-.78,22.04-1.22,1.83-3.3,3.36-6.18,4.55-2.83,1.15-5.8,1.71-8.76,1.71ZM305.32,192.32c.14,0,.28.06.38.17l1.32,1.53c6.58,7.55,17.04,10.16,26.02,6.5,2.69-1.11,4.62-2.51,5.73-4.18,4.52-6.81,1.25-19.17.55-21.58-.06-.13-.07-.27-.01-.41.05-.13.17-.23.3-.28.03-.01,3.16-1.11,4.02-2.9.25-.52.27-1.03.08-1.57-.99-2.78-5.12-2.05-5.16-2.05-.24.05-.48-.1-.56-.33-2.27-6.68-7.49-17.49-8.97-20.51l-3.95,6.35c-2.71,4.36-5.82,8.54-9.22,12.44-1.73,1.99-3.58,3.93-5.48,5.78l.39,11.17c0,.22-.13.42-.34.49-2,.68-4.12-.33-4.83-2.29-.2-.55-.43-1.12-.65-1.68-.37-.94-.75-1.9-1.02-2.8-1.91-1.08-3.52-.32-4.55.54-2.53,2.1-4.3,7.17-2.79,11.08.85,2.2,3.05,4.76,8.73,4.52,0,0,.01,0,.02,0Z" fill="#732a09" stroke-width="0"></path><path d="M333.1,159.06c-3.6-1.3-7.23,1.38-9.5,4.03-.36.47-1.12-.03-.84-.54,1.57-3.47,5.58-6.11,9.45-5.1.5.15,2.23.76,1.57,1.6-.2.19-.47.14-.68,0h0Z" fill="#732a09" stroke-width="0"></path><path d="M329.24,166.61c.49,1.6,1.78,2.61,2.88,2.27,1.11-.34,1.6-1.9,1.11-3.5-.15-.47-.37-.91-.65-1.26l-1.58,1.61.18-2.61c-.28-.08-.56-.08-.83,0-1.1.34-1.6,1.9-1.11,3.48Z" fill="#732a09" stroke-width="0"></path><path d="M298.66,185.55c-.28,0-.5-.22-.5-.5,0-2.26.86-4.21,2.25-5.09.82-.52,2.24-.94,4.33.03.25.12.36.42.24.67-.12.25-.42.36-.67.24-1.34-.63-2.48-.66-3.37-.1-1.1.7-1.78,2.33-1.78,4.25,0,.28-.22.5-.5.5Z" fill="#732a09" stroke-width="0"></path><path d="M302.76,188.24c-.1,0-.2-.03-.29-.09-2.73-1.93-3.58-5.95-3.61-6.12-.06-.27.12-.53.39-.59.27-.05.53.12.59.39,0,.04.81,3.8,3.21,5.51.23.16.28.47.12.7-.1.14-.25.21-.41.21Z" fill="#732a09" stroke-width="0"></path><path d="M339.19,196.63c-1.28,1.92-3.43,3.33-5.96,4.36-9.29,3.79-19.99.93-26.59-6.64l-1.32-1.53,4.02-3.83c2.48-1.73,8.19,6.83,14.88,4.35,3.9-1.44,3.76-5.44,3.79-9.09,0-2.64.08-5.11,1.8-6.3,4.09-2.85,9.96-3.39,9.96-3.39,0,0,.01.03.03.07.31,1.08,4.27,14.64-.61,22Z" fill="#732a09" stroke-width="0"></path><path d="M324.67,203.16c-6.84,0-13.61-2.99-18.4-8.48l-1.32-1.53c-.17-.2-.16-.5.03-.69l4.02-3.83c1.36-.95,3.04.15,5.17,1.55,2.76,1.81,6.19,4.06,9.89,2.69,3.42-1.27,3.44-4.63,3.46-8.19v-.43c0-2.36,0-5.31,2.02-6.7,4.15-2.89,9.95-3.46,10.2-3.48.21-.01.4.09.49.27.01.02.05.11.05.13.73,2.5,4.09,15.25-.67,22.43,0,0,0,0,0,0-1.22,1.83-3.3,3.36-6.18,4.55-2.83,1.15-5.8,1.71-8.76,1.71ZM306.01,192.86l1.01,1.17c6.58,7.55,17.04,10.16,26.02,6.5,2.69-1.11,4.62-2.51,5.73-4.18,4.34-6.54,1.5-18.19.65-21.24-1.38.18-6,.94-9.32,3.26-1.47,1.01-1.58,3.17-1.58,5.89v.44c-.02,3.57-.05,7.62-4.11,9.12-4.17,1.55-7.99-.96-10.78-2.79-1.74-1.14-3.24-2.13-3.98-1.61l-3.62,3.45ZM339.19,196.62h0,0Z" fill="#732a09" stroke-width="0"></path><ellipse cx="335.35" cy="184.83" rx="3.19" ry="2.37" transform="translate(-39.5 106.69) rotate(-17.09)" fill="#fff" stroke-width="0"></ellipse><path d="M334.84,187.77c-1.43,0-2.66-.71-3.02-1.86-.23-.76-.06-1.58.48-2.32.51-.69,1.29-1.22,2.21-1.51,1.94-.6,3.9.15,4.37,1.66h0c.46,1.51-.74,3.22-2.68,3.82-.46.14-.91.21-1.35.21ZM335.88,182.88c-.35,0-.71.05-1.08.17-.71.22-1.31.62-1.69,1.14-.35.47-.46.98-.33,1.43.3.98,1.7,1.43,3.12,1,1.39-.43,2.32-1.61,2.02-2.57-.22-.73-1.05-1.16-2.04-1.16Z" fill="#732a09" stroke-width="0"></path></g></svg>