<svg transform="scale(1)" id="_01126_Customer_Feedback" xmlns="http://www.w3.org/2000/svg" viewBox="0 0 500 500" class="show_show__wrapper__graphic__5Waiy "><title>React</title><path id="carpet" d="M235.76,375.11c-7.84.03-15.66.5-23.44,1.47-45.27,5.63-85.15,16.93-97.87,34.2-13.86,18.81,49.82,49.31,152.52,49.26,102.69-.06,147.8-33.72,139.55-53.84-12.19-29.71-132.56-31.22-170.76-31.09Z" fill="#fff" stroke-width="0"></path><path d="M266.68,460.54c-49.68,0-84.58-6.96-105.12-12.81-25.82-7.35-43.38-17.03-48.2-26.55-1.91-3.78-1.67-7.48.7-10.7,6.72-9.12,28.41-25.71,98.21-34.4,7.67-.95,15.57-1.45,23.49-1.48h0c47.55-.17,159.4,2.59,171.22,31.4,1.94,4.72,1.03,10.11-2.62,15.56-12.03,17.95-55.22,38.92-137.38,38.96h-.29ZM239.55,375.61c-1.29,0-2.56,0-3.79,0-7.88.03-15.75.52-23.38,1.47-51.46,6.41-86.1,18.48-97.53,34-2.16,2.93-2.36,6.18-.61,9.65,9.45,18.68,70.4,38.81,152.45,38.81h.28c55.14-.03,118.75-11.95,136.55-38.52,3.46-5.17,4.34-10.22,2.53-14.63-5.14-12.52-30.45-21.42-75.22-26.43-31.79-3.56-66.53-4.36-91.28-4.36ZM235.76,375.12h0,0Z" fill="#732a09" stroke-width="0"></path><g id="shelves"><rect x="42.52" y="41.3" width="203.24" height="315.49" fill="#fff" stroke-width="0"></rect><path d="M245.76,357.29H42.52c-.28,0-.5-.22-.5-.5V41.3c0-.28.22-.5.5-.5h203.24c.28,0,.5.22.5.5v315.49c0,.28-.22.5-.5.5ZM43.02,356.29h202.24V41.8H43.02v314.49Z" fill="#732a09" stroke-width="0"></path><path d="M231.79,343.54H56.5c-.28,0-.5-.22-.5-.5V55.06c0-.28.22-.5.5-.5h175.3c.28,0,.5.22.5.5v287.98c0,.28-.22.5-.5.5ZM57,342.54h174.3V55.56H57v286.98Z" fill="#732a09" stroke-width="0"></path><rect x="56.5" y="261.44" width="175.3" height="81.6" fill="#f15454" stroke-width="0"></rect><path d="M231.79,343.54H56.5c-.28,0-.5-.22-.5-.5v-81.6c0-.28.22-.5.5-.5h175.3c.28,0,.5.22.5.5v81.6c0,.28-.22.5-.5.5ZM57,342.54h174.3v-80.6H57v80.6Z" fill="#732a09" stroke-width="0"></path><rect x="56.5" y="248.57" width="175.3" height="12.87" fill="#732a09" stroke-width="0"></rect><path d="M231.79,261.94H56.5c-.28,0-.5-.22-.5-.5v-12.87c0-.28.22-.5.5-.5h175.3c.28,0,.5.22.5.5v12.87c0,.28-.22.5-.5.5ZM57,260.94h174.3v-11.87H57v11.87Z" fill="#732a09" stroke-width="0"></path><rect x="60.98" y="201.22" width="13.84" height="47.36" transform="translate(-39.93 16.18) rotate(-10.52)" fill="#732a09" stroke-width="0"></rect><path d="M65.41,249.94c-.24,0-.45-.17-.49-.41l-8.65-46.56c-.02-.13,0-.26.08-.37s.19-.18.32-.21l13.6-2.53c.27-.05.53.13.58.4l8.65,46.56c.02.13,0,.26-.08.37s-.19.18-.32.21l-13.6,2.53s-.06,0-.09,0ZM57.35,203.28l8.46,45.58,12.62-2.34-8.46-45.58-12.62,2.34Z" fill="#732a09" stroke-width="0"></path><rect x="99.53" y="201.22" width="13.84" height="47.36" fill="#fff" stroke-width="0"></rect><path d="M113.37,249.07h-13.84c-.28,0-.5-.22-.5-.5v-47.36c0-.28.22-.5.5-.5h13.84c.28,0,.5.22.5.5v47.36c0,.28-.22.5-.5.5ZM100.03,248.07h12.84v-46.36h-12.84v46.36Z" fill="#732a09" stroke-width="0"></path><rect x="113.37" y="201.22" width="13.84" height="47.36" fill="#f15454" stroke-width="0"></rect><path d="M127.2,249.07h-13.83c-.28,0-.5-.22-.5-.5v-47.36c0-.28.22-.5.5-.5h13.83c.28,0,.5.22.5.5v47.36c0,.28-.22.5-.5.5ZM113.87,248.07h12.83v-46.36h-12.83v46.36Z" fill="#732a09" stroke-width="0"></path><rect x="127.2" y="201.22" width="13.84" height="47.36" fill="#fff" stroke-width="0"></rect><path d="M141.04,249.07h-13.83c-.28,0-.5-.22-.5-.5v-47.36c0-.28.22-.5.5-.5h13.83c.28,0,.5.22.5.5v47.36c0,.28-.22.5-.5.5ZM127.7,248.07h12.83v-46.36h-12.83v46.36Z" fill="#732a09" stroke-width="0"></path><rect x="141.04" y="201.22" width="13.84" height="47.36" fill="#732a09" stroke-width="0"></rect><path d="M154.87,249.07h-13.83c-.28,0-.5-.22-.5-.5v-47.36c0-.28.22-.5.5-.5h13.83c.28,0,.5.22.5.5v47.36c0,.28-.22.5-.5.5ZM141.54,248.07h12.83v-46.36h-12.83v46.36Z" fill="#732a09" stroke-width="0"></path><rect x="158.75" y="201.22" width="13.84" height="47.36" fill="#f15454" stroke-width="0"></rect><path d="M172.58,249.07h-13.83c-.28,0-.5-.22-.5-.5v-47.36c0-.28.22-.5.5-.5h13.83c.28,0,.5.22.5.5v47.36c0,.28-.22.5-.5.5ZM159.25,248.07h12.83v-46.36h-12.83v46.36Z" fill="#732a09" stroke-width="0"></path><rect x="176.46" y="201.22" width="13.84" height="47.36" fill="#fff" stroke-width="0"></rect><path d="M190.29,249.07h-13.83c-.28,0-.5-.22-.5-.5v-47.36c0-.28.22-.5.5-.5h13.83c.28,0,.5.22.5.5v47.36c0,.28-.22.5-.5.5ZM176.96,248.07h12.83v-46.36h-12.83v46.36Z" fill="#732a09" stroke-width="0"></path><rect x="194.17" y="201.22" width="13.84" height="47.36" fill="#f15454" stroke-width="0"></rect><path d="M208,249.07h-13.83c-.28,0-.5-.22-.5-.5v-47.36c0-.28.22-.5.5-.5h13.83c.28,0,.5.22.5.5v47.36c0,.28-.22.5-.5.5ZM194.67,248.07h12.83v-46.36h-12.83v46.36Z" fill="#732a09" stroke-width="0"></path><rect x="211.87" y="201.22" width="13.84" height="47.36" transform="translate(65.68 -48.97) rotate(15)" fill="#f15454" stroke-width="0"></rect><path d="M219.34,250.06s-.09,0-.13-.02l-13.36-3.58c-.27-.07-.42-.35-.35-.61l12.26-45.74c.04-.13.12-.24.23-.3.12-.07.25-.08.38-.05l13.36,3.58c.27.07.42.35.35.61l-12.26,45.74c-.04.13-.12.24-.23.3-.08.04-.16.07-.25.07ZM206.59,245.62l12.4,3.32,12-44.78-12.4-3.32-12,44.78Z" fill="#732a09" stroke-width="0"></path><rect x="56.5" y="179.08" width="175.3" height="12.87" fill="#732a09" stroke-width="0"></rect><path d="M231.79,192.45H56.5c-.28,0-.5-.22-.5-.5v-12.87c0-.28.22-.5.5-.5h175.3c.28,0,.5.22.5.5v12.87c0,.28-.22.5-.5.5ZM57,191.45h174.3v-11.87H57v11.87Z" fill="#732a09" stroke-width="0"></path><rect x="60.98" y="131.73" width="13.84" height="47.36" fill="#fff" stroke-width="0"></rect><path d="M74.81,179.58h-13.83c-.28,0-.5-.22-.5-.5v-47.36c0-.28.22-.5.5-.5h13.83c.28,0,.5.22.5.5v47.36c0,.28-.22.5-.5.5ZM61.48,178.58h12.83v-46.36h-12.83v46.36Z" fill="#732a09" stroke-width="0"></path><rect x="74.81" y="131.73" width="13.84" height="47.36" fill="#f15454" stroke-width="0"></rect><path d="M88.65,179.58h-13.83c-.28,0-.5-.22-.5-.5v-47.36c0-.28.22-.5.5-.5h13.83c.28,0,.5.22.5.5v47.36c0,.28-.22.5-.5.5ZM75.31,178.58h12.83v-46.36h-12.83v46.36Z" fill="#732a09" stroke-width="0"></path><rect x="94.04" y="131.73" width="13.84" height="47.36" fill="#732a09" stroke-width="0"></rect><path d="M107.88,179.58h-13.83c-.28,0-.5-.22-.5-.5v-47.36c0-.28.22-.5.5-.5h13.83c.28,0,.5.22.5.5v47.36c0,.28-.22.5-.5.5ZM94.54,178.58h12.83v-46.36h-12.83v46.36Z" fill="#732a09" stroke-width="0"></path><rect x="107.88" y="131.73" width="13.84" height="47.36" transform="translate(-31.6 29.32) rotate(-12.81)" fill="#fff" stroke-width="0"></rect><path d="M113.3,180.53c-.09,0-.19-.03-.27-.08-.11-.07-.19-.18-.22-.31l-10.5-46.18c-.06-.27.11-.54.38-.6l13.49-3.07c.28-.07.54.11.6.38l10.5,46.18c.06.27-.11.54-.38.6l-13.49,3.07s-.07.01-.11.01ZM103.4,134.23l10.28,45.2,12.52-2.85-10.28-45.2-12.51,2.85Z" fill="#732a09" stroke-width="0"></path><rect x="127.11" y="131.73" width="13.84" height="47.36" fill="#f15454" stroke-width="0"></rect><path d="M140.94,179.58h-13.83c-.28,0-.5-.22-.5-.5v-47.36c0-.28.22-.5.5-.5h13.83c.28,0,.5.22.5.5v47.36c0,.28-.22.5-.5.5ZM127.61,178.58h12.83v-46.36h-12.83v46.36Z" fill="#732a09" stroke-width="0"></path><rect x="140.94" y="131.73" width="13.84" height="47.36" fill="#fff" stroke-width="0"></rect><path d="M154.78,179.58h-13.83c-.28,0-.5-.22-.5-.5v-47.36c0-.28.22-.5.5-.5h13.83c.28,0,.5.22.5.5v47.36c0,.28-.22.5-.5.5ZM141.44,178.58h12.83v-46.36h-12.83v46.36Z" fill="#732a09" stroke-width="0"></path><rect x="158.65" y="131.73" width="13.84" height="47.36" fill="#732a09" stroke-width="0"></rect><path d="M172.49,179.58h-13.83c-.28,0-.5-.22-.5-.5v-47.36c0-.28.22-.5.5-.5h13.83c.28,0,.5.22.5.5v47.36c0,.28-.22.5-.5.5ZM159.15,178.58h12.83v-46.36h-12.83v46.36Z" fill="#732a09" stroke-width="0"></path><rect x="176.36" y="131.73" width="13.84" height="47.36" transform="translate(-20.85 28.62) rotate(-8.45)" fill="#f15454" stroke-width="0"></rect><path d="M179.91,180.34c-.24,0-.46-.18-.49-.43l-6.96-46.84c-.02-.13.01-.26.09-.37s.2-.18.33-.2l13.69-2.03c.13-.02.26.01.37.09s.18.2.2.33l6.96,46.84c.04.27-.15.53-.42.57l-13.68,2.03s-.05,0-.07,0ZM173.52,133.42l6.81,45.85,12.7-1.89-6.81-45.85-12.7,1.89Z" fill="#732a09" stroke-width="0"></path><rect x="194.07" y="131.73" width="13.84" height="47.36" fill="#f15454" stroke-width="0"></rect><path d="M207.9,179.58h-13.83c-.28,0-.5-.22-.5-.5v-47.36c0-.28.22-.5.5-.5h13.83c.28,0,.5.22.5.5v47.36c0,.28-.22.5-.5.5ZM194.57,178.58h12.83v-46.36h-12.83v46.36Z" fill="#732a09" stroke-width="0"></path><rect x="211.78" y="131.73" width="13.84" height="47.36" fill="#fff" stroke-width="0"></rect><path d="M225.61,179.58h-13.83c-.28,0-.5-.22-.5-.5v-47.36c0-.28.22-.5.5-.5h13.83c.28,0,.5.22.5.5v47.36c0,.28-.22.5-.5.5ZM212.28,178.58h12.83v-46.36h-12.83v46.36Z" fill="#732a09" stroke-width="0"></path><rect x="56.5" y="109.59" width="175.3" height="12.87" fill="#732a09" stroke-width="0"></rect><path d="M231.79,122.96H56.5c-.28,0-.5-.22-.5-.5v-12.87c0-.28.22-.5.5-.5h175.3c.28,0,.5.22.5.5v12.87c0,.28-.22.5-.5.5ZM57,121.96h174.3v-11.87H57v11.87Z" fill="#732a09" stroke-width="0"></path><rect x="60.98" y="62.24" width="13.84" height="47.36" fill="#f15454" stroke-width="0"></rect><path d="M74.81,110.09h-13.83c-.28,0-.5-.22-.5-.5v-47.36c0-.28.22-.5.5-.5h13.83c.28,0,.5.22.5.5v47.36c0,.28-.22.5-.5.5ZM61.48,109.09h12.83v-46.36h-12.83v46.36Z" fill="#732a09" stroke-width="0"></path><rect x="74.81" y="62.24" width="13.84" height="47.36" fill="#f15454" stroke-width="0"></rect><path d="M88.65,110.09h-13.83c-.28,0-.5-.22-.5-.5v-47.36c0-.28.22-.5.5-.5h13.83c.28,0,.5.22.5.5v47.36c0,.28-.22.5-.5.5ZM75.31,109.09h12.83v-46.36h-12.83v46.36Z" fill="#732a09" stroke-width="0"></path><rect x="88.65" y="62.24" width="13.84" height="47.36" fill="#732a09" stroke-width="0"></rect><path d="M102.48,110.09h-13.83c-.28,0-.5-.22-.5-.5v-47.36c0-.28.22-.5.5-.5h13.83c.28,0,.5.22.5.5v47.36c0,.28-.22.5-.5.5ZM89.15,109.09h12.83v-46.36h-12.83v46.36Z" fill="#732a09" stroke-width="0"></path><rect x="102.48" y="62.24" width="13.84" height="47.36" fill="#732a09" stroke-width="0"></rect><path d="M116.32,110.09h-13.83c-.28,0-.5-.22-.5-.5v-47.36c0-.28.22-.5.5-.5h13.83c.28,0,.5.22.5.5v47.36c0,.28-.22.5-.5.5ZM102.98,109.09h12.83v-46.36h-12.83v46.36Z" fill="#732a09" stroke-width="0"></path><rect x="116.32" y="62.24" width="13.84" height="47.36" fill="#f15454" stroke-width="0"></rect><path d="M130.15,110.09h-13.83c-.28,0-.5-.22-.5-.5v-47.36c0-.28.22-.5.5-.5h13.83c.28,0,.5.22.5.5v47.36c0,.28-.22.5-.5.5ZM116.82,109.09h12.83v-46.36h-12.83v46.36Z" fill="#732a09" stroke-width="0"></path><rect x="134.02" y="62.24" width="13.84" height="47.36" fill="#732a09" stroke-width="0"></rect><path d="M147.86,110.09h-13.83c-.28,0-.5-.22-.5-.5v-47.36c0-.28.22-.5.5-.5h13.83c.28,0,.5.22.5.5v47.36c0,.28-.22.5-.5.5ZM134.52,109.09h12.83v-46.36h-12.83v46.36Z" fill="#732a09" stroke-width="0"></path><rect x="151.73" y="62.24" width="13.84" height="47.36" fill="#f15454" stroke-width="0"></rect><path d="M165.57,110.09h-13.83c-.28,0-.5-.22-.5-.5v-47.36c0-.28.22-.5.5-.5h13.83c.28,0,.5.22.5.5v47.36c0,.28-.22.5-.5.5ZM152.23,109.09h12.83v-46.36h-12.83v46.36Z" fill="#732a09" stroke-width="0"></path><rect x="169.44" y="62.24" width="13.84" height="47.36" fill="#732a09" stroke-width="0"></rect><path d="M183.28,110.09h-13.83c-.28,0-.5-.22-.5-.5v-47.36c0-.28.22-.5.5-.5h13.83c.28,0,.5.22.5.5v47.36c0,.28-.22.5-.5.5ZM169.94,109.09h12.83v-46.36h-12.83v46.36Z" fill="#732a09" stroke-width="0"></path><rect x="187.15" y="62.24" width="13.84" height="47.36" fill="#f15454" stroke-width="0"></rect><path d="M200.99,110.09h-13.83c-.28,0-.5-.22-.5-.5v-47.36c0-.28.22-.5.5-.5h13.83c.28,0,.5.22.5.5v47.36c0,.28-.22.5-.5.5ZM187.65,109.09h12.83v-46.36h-12.83v46.36Z" fill="#732a09" stroke-width="0"></path></g><g id="window"><rect x="297.13" y="62.96" width="155.27" height="132.22" fill="#fff" stroke-width="0"></rect><path d="M452.4,195.68h-155.27c-.28,0-.5-.22-.5-.5V62.96c0-.28.22-.5.5-.5h155.27c.28,0,.5.22.5.5v132.22c0,.28-.22.5-.5.5ZM297.63,194.68h154.27V63.46h-154.27v131.22Z" fill="#732a09" stroke-width="0"></path><rect x="308.35" y="70.66" width="132.84" height="116.81" fill="#fff" stroke-width="0"></rect><path d="M441.19,187.97h-132.84c-.28,0-.5-.22-.5-.5v-116.81c0-.28.22-.5.5-.5h132.84c.28,0,.5.22.5.5v116.81c0,.28-.22.5-.5.5ZM308.85,186.97h131.84v-115.81h-131.84v115.81Z" fill="#732a09" stroke-width="0"></path><path d="M394.09,70.66c2.59,35.74,23.38,64.43,35.46,72.76,0,0-7.27,27.04-4.68,44.05h16.33v-116.81h-47.1Z" fill="#f75454" stroke-width="0"></path><path d="M441.19,187.97h-16.33c-.25,0-.46-.18-.49-.42-2.42-15.88,3.78-40.72,4.61-43.91-12.91-9.13-32.88-38.35-35.38-72.94,0-.14.04-.28.13-.38s.23-.16.37-.16h47.1c.28,0,.5.22.5.5v116.81c0,.28-.22.5-.5.5ZM425.29,186.97h15.39v-115.81h-46.06c2.67,34.28,22.53,63.11,35.2,71.85.17.12.25.34.2.54-.07.27-7.1,26.69-4.74,43.42Z" fill="#732a09" stroke-width="0"></path><path d="M429.55,143.42c4.33.9,11.64-1.81,11.64-1.81v4.69s-18.36,3.58-11.64-2.89Z" fill="#732a09" stroke-width="0"></path><path d="M432.46,147.81c-2.26,0-4.19-.33-4.73-1.37-.46-.88.02-1.98,1.47-3.37.12-.12.29-.16.45-.13,4.14.86,11.29-1.76,11.37-1.79.15-.06.32-.04.46.06.13.09.21.25.21.41v4.69c0,.24-.17.45-.4.49-1.22.24-5.4,1-8.82,1ZM429.71,143.96c-.89.9-1.29,1.63-1.09,2.01.72,1.39,7.35.8,12.07-.08v-3.58c-1.89.64-7.29,2.28-10.98,1.64Z" fill="#732a09" stroke-width="0"></path><path d="M432.87,144.05c-.12,0-.24-.04-.34-.13-14.78-13.62-27.26-47.81-30.58-67.25-.05-.27.14-.53.41-.58.26-.05.53.14.58.41,3.3,19.3,15.66,53.21,30.28,66.68.2.19.22.5.03.71-.1.11-.23.16-.37.16Z" fill="#732a09" stroke-width="0"></path><path d="M435.63,144.05c-.19,0-.37-.11-.45-.29-.17-.37-17.23-37.31-21.8-67.1-.04-.27.15-.53.42-.57.28-.04.53.15.57.42,4.55,29.65,21.55,66.46,21.72,66.83.12.25,0,.55-.24.66-.07.03-.14.05-.21.05Z" fill="#732a09" stroke-width="0"></path><path d="M438.88,142.86c-.18,0-.35-.1-.44-.27-4.46-8.45-11.28-47.87-12.71-65.97-.02-.27.18-.52.46-.54.25-.02.52.18.54.46,1.43,18.02,8.19,57.23,12.6,65.58.13.24.04.55-.21.68-.07.04-.15.06-.23.06Z" fill="#732a09" stroke-width="0"></path><path d="M428.81,187.97c-.25,0-.46-.19-.5-.44-2.38-19.18,2.53-40.16,2.58-40.37.06-.27.34-.44.6-.37.27.06.43.33.37.6-.05.21-4.92,21.02-2.56,40.01.03.27-.16.52-.43.56-.02,0-.04,0-.06,0Z" fill="#732a09" stroke-width="0"></path><path d="M434.63,187.97c-.26,0-.48-.2-.5-.47-.02-.26-1.56-25.71,0-40.35.03-.28.3-.47.55-.44.27.03.47.28.44.55-1.55,14.56-.01,39.93,0,40.18.02.28-.19.51-.47.53-.01,0-.02,0-.03,0Z" fill="#732a09" stroke-width="0"></path><path d="M355.45,70.66c-2.59,35.74-23.38,64.43-35.46,72.76,0,0,7.27,27.04,4.68,44.05h-16.33v-116.81h47.1Z" fill="#f75454" stroke-width="0"></path><path d="M324.67,187.97h-16.33c-.28,0-.5-.22-.5-.5v-116.81c0-.28.22-.5.5-.5h47.1c.14,0,.27.06.37.16s.14.24.13.38c-2.5,34.58-22.48,63.8-35.38,72.94.83,3.2,7.02,28.03,4.61,43.91-.04.24-.25.42-.49.42ZM308.85,186.97h15.39c2.36-16.73-4.66-43.15-4.74-43.42-.06-.2.02-.42.2-.54,12.67-8.75,32.54-37.57,35.2-71.85h-46.06v115.81Z" fill="#732a09" stroke-width="0"></path><path d="M319.99,143.42c-4.33.9-11.64-1.81-11.64-1.81v4.69s18.36,3.58,11.64-2.89Z" fill="#732a09" stroke-width="0"></path><path d="M317.07,147.81c-3.42,0-7.6-.76-8.82-1-.24-.04-.4-.25-.4-.49v-4.69c0-.16.08-.32.21-.41.13-.09.3-.11.46-.06.07.03,7.23,2.64,11.37,1.79.16-.03.33.01.45.13,1.44,1.39,1.92,2.5,1.47,3.37-.54,1.03-2.47,1.37-4.73,1.37ZM308.85,145.9c4.71.88,11.34,1.46,12.07.08.2-.38-.2-1.11-1.09-2.01-3.69.64-9.09-1-10.98-1.64v3.58Z" fill="#732a09" stroke-width="0"></path><path d="M316.67,144.05c-.13,0-.27-.05-.37-.16-.19-.2-.17-.52.03-.71,14.61-13.47,26.97-47.38,30.28-66.68.05-.27.31-.46.58-.41.27.05.46.31.41.58-3.33,19.44-15.81,53.62-30.58,67.25-.1.09-.22.13-.34.13Z" fill="#732a09" stroke-width="0"></path><path d="M313.9,144.05c-.07,0-.14-.01-.21-.05-.25-.12-.36-.41-.24-.66.17-.37,17.17-37.18,21.72-66.83.04-.27.29-.46.57-.42.27.04.46.3.42.57-4.57,29.79-21.63,66.73-21.8,67.1-.08.18-.26.29-.45.29Z" fill="#732a09" stroke-width="0"></path><path d="M310.65,142.86c-.08,0-.16-.02-.23-.06-.24-.13-.34-.43-.21-.68,4.41-8.35,11.17-47.56,12.6-65.58.02-.28.29-.48.54-.46.28.02.48.26.46.54-1.43,18.1-8.25,57.52-12.71,65.97-.09.17-.26.27-.44.27Z" fill="#732a09" stroke-width="0"></path><path d="M320.72,187.97s-.04,0-.06,0c-.27-.03-.47-.28-.43-.56,2.36-19-2.51-39.81-2.56-40.01-.06-.27.1-.54.37-.6.26-.07.54.1.6.37.05.21,4.96,21.19,2.58,40.37-.03.25-.25.44-.5.44Z" fill="#732a09" stroke-width="0"></path><path d="M314.91,187.97s-.02,0-.03,0c-.28-.02-.48-.25-.47-.53.02-.25,1.55-25.63,0-40.18-.03-.27.17-.52.44-.55.26-.03.52.17.55.44,1.56,14.64.02,40.1,0,40.35-.02.26-.24.47-.5.47Z" fill="#732a09" stroke-width="0"></path></g><g id="character"><path d="M243.38,326.65h4.64v101.81c0,1.23-.99,2.22-2.22,2.22h-.2c-1.23,0-2.22-.99-2.22-2.22v-101.81h0Z" fill="#fff" stroke-width="0"></path><path d="M245.8,431.18h-.2c-1.5,0-2.72-1.22-2.72-2.72v-101.81c0-.28.22-.5.5-.5h4.64c.28,0,.5.22.5.5v101.81c0,1.5-1.22,2.72-2.72,2.72ZM243.88,327.15v101.31c0,.95.77,1.72,1.72,1.72h.2c.95,0,1.72-.77,1.72-1.72v-101.31h-3.64Z" fill="#732a09" stroke-width="0"></path><path d="M201.22,309.54h4.64v101.81c0,1.23-.99,2.22-2.22,2.22h-.2c-1.23,0-2.22-.99-2.22-2.22v-101.81h0Z" fill="#fff" stroke-width="0"></path><path d="M203.64,414.07h-.2c-1.5,0-2.72-1.22-2.72-2.72v-101.81c0-.28.22-.5.5-.5h4.64c.28,0,.5.22.5.5v101.81c0,1.5-1.22,2.72-2.72,2.72ZM201.72,310.04v101.31c0,.95.77,1.72,1.72,1.72h.2c.95,0,1.72-.77,1.72-1.72v-101.31h-3.64Z" fill="#732a09" stroke-width="0"></path><path d="M302.93,310.67h4.64v101.81c0,1.23-.99,2.22-2.22,2.22h-.2c-1.23,0-2.22-.99-2.22-2.22v-101.81h0Z" fill="#fff" stroke-width="0"></path><path d="M305.35,415.2h-.2c-1.5,0-2.72-1.22-2.72-2.72v-101.81c0-.28.22-.5.5-.5h4.64c.28,0,.5.22.5.5v101.81c0,1.5-1.22,2.72-2.72,2.72ZM303.43,311.17v101.31c0,.95.77,1.72,1.72,1.72h.2c.95,0,1.72-.77,1.72-1.72v-101.31h-3.64Z" fill="#732a09" stroke-width="0"></path><path d="M260.77,293.55h4.64v101.81c0,1.23-.99,2.22-2.22,2.22h-.2c-1.23,0-2.22-.99-2.22-2.22v-101.81h0Z" fill="#fff" stroke-width="0"></path><path d="M263.19,398.08h-.2c-1.5,0-2.72-1.22-2.72-2.72v-101.81c0-.28.22-.5.5-.5h4.64c.28,0,.5.22.5.5v101.81c0,1.5-1.22,2.72-2.72,2.72ZM261.26,294.05v101.31c0,.95.77,1.72,1.72,1.72h.2c.95,0,1.72-.77,1.72-1.72v-101.31h-3.64Z" fill="#732a09" stroke-width="0"></path><path d="M242.6,183.31c-3.14-8.87-46.96-5.89-52.96,18.46-5.99,24.36-17.23,100.39,6.74,120.99,23.97,20.6,82.57,3,82.57,3l-36.36-142.45Z" fill="#fff" stroke-width="0"></path><path d="M232.38,333.19c-13.72,0-27.42-2.41-36.32-10.05-13.08-11.24-15.26-38.55-14.78-59.48.59-26.09,5.23-51.25,7.88-62.01,3.68-14.95,21.96-22.58,37.39-23.35,8.83-.44,15.33,1.46,16.53,4.84,0,.01,0,.03.01.04l36.36,142.45c.07.26-.08.53-.34.6-.37.11-23.58,6.96-46.72,6.96ZM229.02,179.24c-.79,0-1.6.02-2.43.06-15.07.75-32.91,8.14-36.47,22.59-7.31,29.69-15.79,101.26,6.58,120.49,6.76,5.81,20.89,12.1,49.88,9.11,15.68-1.62,29.14-5.33,31.76-6.08l-36.23-141.96c-.95-2.6-6.08-4.21-13.1-4.21Z" fill="#732a09" stroke-width="0"></path><path d="M313.56,204.34c3.05-1.98,6.25.72,9.91,7.75,3.66,7.03,7.62,24.41,6.25,34.47s-14.02,12.19-21.65,5.95v18.43s-54.76,16.03-67.41,18.56c-12.65,2.53-17.89-2.8-17.89-2.8,0,0-3.41.69-3.83-1.2s-.84-12.02-.84-12.02c0,0-14.13,4.22-16.66-12.87-2.53-17.08,18.14-65.17,23.62-72.13,5.48-6.96,20.73-10.88,31.98-13.24s26.65-.89,34.24,4.38c7.59,5.27,22.28,24.72,22.28,24.72Z" fill="#f75454" stroke-width="0"></path><path d="M293.13,196.54s-1.85-5.3,0-12.31c1.85-7.01,10.41-14.15,10.41-14.15v19.82l-10.41,6.65Z" fill="#fff" stroke-width="0"></path><path d="M293.13,197.04c-.05,0-.11,0-.16-.03-.14-.05-.26-.16-.31-.31-.08-.22-1.88-5.52-.01-12.6,1.87-7.08,10.22-14.11,10.57-14.41.15-.12.36-.15.53-.07.18.08.29.26.29.45v19.82c0,.17-.09.33-.23.42l-10.41,6.65c-.08.05-.18.08-.27.08ZM303.04,171.19c-2.17,1.98-7.97,7.67-9.43,13.17-1.43,5.42-.59,9.83-.19,11.4l9.61-6.14v-18.43Z" fill="#732a09" stroke-width="0"></path><path d="M293.13,196.54s3.14-10.55,6.77-16.35,6.81-7.68,6.81-7.68l-1.39,18.59-12.19,5.45Z" fill="#fff" stroke-width="0"></path><path d="M293.13,197.04c-.12,0-.24-.04-.33-.12-.15-.13-.21-.33-.15-.52.13-.43,3.2-10.69,6.83-16.47,3.66-5.83,6.84-7.77,6.98-7.85.16-.09.36-.09.52,0,.16.1.25.28.24.46l-1.39,18.59c-.01.18-.13.34-.29.42l-12.19,5.45c-.07.03-.13.04-.2.04ZM306.13,173.55c-1.16.94-3.38,3.04-5.8,6.9-2.89,4.61-5.5,12.37-6.39,15.18l10.91-4.87,1.29-17.21Z" fill="#732a09" stroke-width="0"></path><path d="M235.16,152.67s-8.53,4.82-15.79-1.17c-7.26-5.98-9.24-24.34,6.4-34.72,15.63-10.38,23.78,5.28,20.97,12.21-2.81,6.93-11.57,23.67-11.57,23.67Z" fill="#fff" stroke-width="0"></path><path d="M227.7,154.99c-2.7,0-5.78-.73-8.65-3.09-3.74-3.08-5.94-9.12-5.62-15.38.24-4.69,2.13-13.55,12.06-20.14,8.87-5.89,14.65-3.14,17.3-.97,4.5,3.67,5.91,10.1,4.41,13.79-2.79,6.88-11.51,23.55-11.59,23.72-.04.09-.11.16-.2.2-.05.03-3.41,1.88-7.71,1.88ZM235.54,113.84c-2.56,0-5.72.86-9.5,3.37-9.56,6.35-11.38,14.86-11.61,19.36-.31,5.96,1.76,11.67,5.26,14.56,6.44,5.31,14.04,1.73,15.1,1.18.84-1.62,8.84-16.99,11.48-23.49,1.34-3.3-.03-9.3-4.12-12.64-1.33-1.09-3.53-2.33-6.62-2.33ZM235.17,152.67h0,0Z" fill="#732a09" stroke-width="0"></path><path d="M238.71,161.1c-4.97-3.6-8.29-14.85-.96-27.07,7.33-12.22,25.45-12.94,25.45-12.94,3.33-4.42,11.33-5.4,16.99,3.44,5.66,8.84,3.68,17.93,3.68,17.93l-45.17,18.65Z" fill="#fff" stroke-width="0"></path><path d="M238.71,161.6c-.1,0-.21-.03-.29-.09-4.99-3.61-8.79-14.92-1.1-27.74,6.93-11.55,23.45-13.03,25.62-13.17,1.74-2.18,4.48-3.42,7.35-3.31,3.87.15,7.54,2.62,10.32,6.96,5.71,8.91,3.83,17.93,3.75,18.31-.03.16-.15.29-.3.36l-45.17,18.65c-.06.03-.13.04-.19.04ZM269.95,118.28c-2.52,0-4.87,1.14-6.34,3.1-.09.12-.23.19-.38.2-.18,0-17.94.86-25.04,12.7-4.48,7.47-6.72,20.66.6,26.25l44.66-18.43c.25-1.51,1.3-9.56-3.66-17.31-2.6-4.06-5.98-6.37-9.51-6.5-.11,0-.21,0-.32,0Z" fill="#732a09" stroke-width="0"></path><path d="M250.62,161.23c-.14,5.05-.46,11.84-.7,16.37-.24,4.71,3.1,8.85,7.76,9.6.64.1,1.32.18,2.05.22,8.16.5,8.26-6.46,8.21-7.9-.05-1.44-1.33-6.05-1.56-7.6-.23-1.55-15.77-10.69-15.77-10.69Z" fill="#fff" stroke-width="0"></path><path d="M260.55,187.94c-.27,0-.56,0-.84-.03-.71-.04-1.42-.12-2.1-.23-4.92-.79-8.44-5.14-8.18-10.12.24-4.7.56-11.36.7-16.36,0-.18.1-.34.26-.42s.34-.08.5,0c4.73,2.79,15.77,9.44,16.01,11.05.09.61.35,1.73.63,2.93.44,1.88.9,3.82.93,4.73.04,1.24-.08,4.34-2.24,6.45-1.36,1.33-3.26,1.99-5.66,1.99ZM251.09,162.09c-.15,4.9-.44,11.09-.67,15.54-.23,4.46,2.93,8.37,7.34,9.08.65.1,1.32.18,2,.22,2.5.16,4.44-.41,5.74-1.69,1.92-1.88,1.97-4.84,1.94-5.7-.03-.81-.49-2.79-.9-4.54-.28-1.21-.55-2.36-.65-3-.38-.94-7.7-5.69-14.8-9.9Z" fill="#732a09" stroke-width="0"></path><path d="M279.24,134.07s12.82,18.75,6.76,29.51c-6.06,10.76-27.62,15.04-37.6,2.93,0,0-2.93,5.99-7.93,1.89-5-4.11-1.88-10.88,4.6-9.89,0,0,.61-6.22,10.09-12.67,9.48-6.45,13.07-14.56,13.07-14.56,0,0,2.87,3.1,11.01,2.79Z" fill="#fff" stroke-width="0"></path><path d="M265.23,174.33c-6.78,0-12.75-2.47-16.75-6.96-.58.9-1.83,2.46-3.69,2.87-1.5.33-3.06-.16-4.63-1.45-2.43-2-3.28-4.89-2.17-7.38,1.08-2.42,3.68-3.75,6.68-3.45.35-1.65,2.09-7,10.22-12.53,9.25-6.29,12.85-14.27,12.89-14.35.07-.15.21-.26.37-.29.17-.03.34.03.45.15.03.03,2.88,2.93,10.62,2.63.2,0,.34.08.43.22.03.05,3.26,4.8,5.7,10.82,3.31,8.15,3.67,14.62,1.08,19.22-3.14,5.59-10.47,9.67-18.66,10.39-.86.08-1.71.11-2.55.11ZM248.41,166.01c.15,0,.29.07.39.18,4.25,5.16,11.13,7.71,18.9,7.03,7.87-.7,14.89-4.58,17.88-9.89,5.48-9.74-5.18-26.6-6.59-28.76-6.26.19-9.41-1.62-10.58-2.49-1.03,2.02-4.84,8.65-12.95,14.17-9.14,6.21-9.86,12.25-9.87,12.31-.01.14-.08.26-.19.34-.11.08-.25.12-.38.1-2.76-.42-5.15.68-6.1,2.81-.73,1.64-.62,4.13,1.9,6.2,1.32,1.09,2.59,1.5,3.78,1.25,2.12-.46,3.37-2.95,3.38-2.97.08-.15.22-.26.39-.28.02,0,.04,0,.06,0Z" fill="#732a09" stroke-width="0"></path><path d="M263.15,149.13c-2.45.47-4.68,1.3-7,2.26-.26.1-.56-.03-.66-.29-.07-.19-.03-.39.1-.53.47-.5,1-.97,1.6-1.31,1.8-1.07,3.96-1.58,6.03-1.12.55.12.48.96-.07,1h0Z" fill="#732a09" stroke-width="0"></path><path d="M279.78,142.49c-2.59,1.02-5.1,2.39-7.67,3.52-.49.23-.95-.46-.56-.83,2.15-2.1,5.04-3.52,8.07-3.68.57-.02.7.84.15.99h0Z" fill="#732a09" stroke-width="0"></path><path d="M275.78,157.69c-1.33,0-2.78-.74-3.24-2.2-.08-.26.06-.54.33-.63.26-.08.54.06.63.33.38,1.2,1.75,1.68,2.81,1.45.43-.1,1.42-.48,1.22-1.88-.07-.47-.27-.8-.6-1.02-.85-.54-2.41-.23-2.94-.07-.25.08-.52-.05-.61-.3-.05-.13-1.29-3.33-2.03-7.69-.05-.27.14-.53.41-.58.27-.05.53.14.58.41.57,3.37,1.47,6.09,1.82,7.08.75-.16,2.26-.36,3.3.29.59.37.95.95,1.06,1.72.22,1.49-.56,2.67-1.99,2.99-.24.05-.49.08-.75.08Z" fill="#732a09" stroke-width="0"></path><path d="M260.62,155.09c.55,1.21,1.67,1.86,2.5,1.49.84-.38,1.06-1.66.51-2.86-.16-.36-.39-.68-.64-.93l-1.08,1.43-.13-2.07c-.23-.03-.44,0-.65.09-.83.38-1.06,1.66-.51,2.86Z" fill="#732a09" stroke-width="0"></path><path d="M274.55,149.42c.49,1.08,1.5,1.67,2.24,1.33s.95-1.48.46-2.56c-.15-.32-.35-.6-.57-.83l-.96,1.28-.11-1.85c-.21-.03-.4,0-.58.08-.74.34-.95,1.48-.46,2.55Z" fill="#732a09" stroke-width="0"></path><path d="M272.39,164.51c-1.22,0-2.41-.66-3.3-1.83-.17-.22-.12-.53.1-.7.22-.17.53-.12.7.1.74.98,1.73,1.49,2.68,1.43,1.11-.08,2.18-.94,2.99-2.41.13-.24.44-.33.68-.2.24.13.33.44.2.68-.98,1.78-2.33,2.82-3.79,2.93-.08,0-.17,0-.25,0Z" fill="#732a09" stroke-width="0"></path><path d="M240.49,165.16h0c-.28,0-.5-.22-.5-.5,0-1.18.38-2.11,1.11-2.78,1.38-1.25,3.5-1.06,3.59-1.05.27.03.48.27.45.54-.03.28-.29.47-.54.45-.02,0-1.78-.15-2.83.8-.52.47-.78,1.16-.78,2.04,0,.28-.22.5-.5.5Z" fill="#732a09" stroke-width="0"></path><path d="M244.51,167.28c-.82,0-1.58-.35-2.2-1.02-1.1-1.18-1.55-3.12-1.44-4,.03-.27.29-.47.56-.44.27.03.47.28.44.56-.07.6.27,2.22,1.18,3.2.45.49.98.71,1.55.7.31-.05.51.2.52.48.01.28-.2.51-.48.52-.04,0-.09,0-.13,0Z" fill="#732a09" stroke-width="0"></path><path d="M263.36,162.71c-.99,0-1.99-.17-2.94-.5-3.39-1.2-5.79-4.33-6.59-8.6-.05-.24.09-.48.32-.56l13.57-4.89c.23-.08.5.02.61.24.19.36,4.51,8.85.22,12.5-1.4,1.19-3.27,1.82-5.2,1.82ZM254.89,153.85c1.08,5.02,4.12,6.8,5.86,7.42,2.5.88,5.31.44,7.16-1.13,3.21-2.73.5-9.22-.27-10.88l-12.74,4.6Z" fill="#732a09" stroke-width="0"></path><path d="M279.96,155.46c-1.22,0-2.03-.27-2.1-.3-.26-.09-.4-.38-.31-.63.09-.26.38-.4.64-.31.15.05,3.69,1.22,7.26-2.03,3.04-2.77.24-8.17-.57-9.57l-12.64,4.63c-.26.09-.55-.04-.64-.3-.09-.26.04-.55.3-.64l13.03-4.77c.22-.08.46,0,.59.2.19.3,4.72,7.45.61,11.19-2.27,2.07-4.56,2.54-6.15,2.54Z" fill="#732a09" stroke-width="0"></path><path d="M269.03,151.9c-.16,0-.31-.08-.41-.21-.16-.23-.1-.54.13-.7.11-.07,2.61-1.8,5.06-1.68.28.01.49.25.48.52-.01.28-.21.5-.52.48-2.12-.08-4.42,1.49-4.45,1.5-.09.06-.19.09-.29.09Z" fill="#732a09" stroke-width="0"></path><path d="M245.08,159.01c-.18,0-.35-.09-.44-.26-.13-.24-.04-.55.2-.68l9.24-4.98c.24-.13.54-.04.68.2.13.24.04.55-.2.68l-9.24,4.98c-.08.04-.16.06-.24.06Z" fill="#732a09" stroke-width="0"></path><path d="M293.13,196.54s-3.39-4.03-14.99-6.14-18.23-3.16-18.23-3.16l-.9,22.69,34.13-13.38Z" fill="#fff" stroke-width="0"></path><path d="M259,210.42c-.1,0-.2-.03-.29-.09-.14-.1-.22-.26-.21-.43l.9-22.69c0-.14.07-.28.18-.37.11-.09.26-.13.4-.11.07.01,6.77,1.08,18.25,3.17,11.65,2.12,15.14,6.14,15.29,6.31.1.12.14.29.1.45-.04.16-.15.28-.3.34l-34.13,13.38c-.06.02-.12.03-.18.03ZM260.38,187.82l-.85,21.36,32.68-12.81c-1.33-1.12-5.35-3.87-14.17-5.47-9.59-1.74-15.84-2.78-17.67-3.07Z" fill="#732a09" stroke-width="0"></path><path d="M293.13,196.54s-23.28-5.35-36.09-5.45v10.68l36.09-5.23Z" fill="#fff" stroke-width="0"></path><path d="M257.04,202.27c-.12,0-.24-.04-.33-.12-.11-.09-.17-.23-.17-.38v-10.68c0-.13.05-.26.15-.35.09-.09.22-.15.35-.15h0c12.71.09,35.96,5.41,36.2,5.46.23.05.4.27.39.51-.01.24-.19.44-.43.47l-36.09,5.23s-.05,0-.07,0ZM257.54,191.6v9.6l32.8-4.76c-6.38-1.37-22.7-4.66-32.8-4.84Z" fill="#732a09" stroke-width="0"></path><polygon points="254.42 210.19 255.53 195.67 293.13 196.54 289.78 244.6 252.48 241.5 254.42 210.19" fill="#f75454" stroke-width="0"></polygon><path d="M289.78,245.1s-.03,0-.04,0l-37.3-3.1c-.27-.02-.47-.26-.46-.53l1.94-31.31h0s1.11-14.53,1.11-14.53c.02-.26.22-.46.51-.46l37.6.87c.14,0,.27.06.36.16.09.1.14.24.13.37l-3.35,48.06c0,.13-.07.26-.17.34-.09.08-.21.12-.33.12ZM253.01,241.04l36.31,3.02,3.28-47.03-36.6-.84-1.07,14.04-1.91,30.82Z" fill="#732a09" stroke-width="0"></path><path d="M316.28,321.58l-19.11,79.74c-.52,2.17-2.32,3.79-4.53,4.06-5.5.66-16.29,1.1-26.61-3.41-2.22-.97-3.51-3.33-3.13-5.73l11.67-74.67,27.38-16.06h13.44l.89,16.06Z" fill="#fff" stroke-width="0"></path><path d="M285.68,406.29c-5.66,0-12.86-.81-19.85-3.86-2.43-1.06-3.84-3.63-3.43-6.26l11.67-74.67c.02-.15.11-.28.24-.35l27.38-16.06c.08-.04.16-.07.25-.07h13.44c.27,0,.48.21.5.47l.89,16.06s0,.1-.01.14l-19.11,79.74c-.57,2.37-2.56,4.15-4.96,4.44-1.83.22-4.24.41-7.02.41ZM275.03,321.89l-11.63,74.43c-.34,2.18.83,4.31,2.84,5.19,10.2,4.45,20.88,4.02,26.35,3.37,1.99-.24,3.64-1.72,4.11-3.68l19.09-79.67-.86-15.52h-12.83l-27.06,15.87Z" fill="#732a09" stroke-width="0"></path><path d="M341.43,372.28l8.98,22.12c.63,1.55,2.39,2.3,3.94,1.68l40.94-16.29c1.71-.68,2.43-2.72,1.52-4.33l-.51-.9s-9.99-18.31-30.82-11.48c0,0-8.94,6.8-24.05,9.2Z" fill="#f75454" stroke-width="0"></path><path d="M350.17,392.92c-.2,0-.39-.12-.46-.32-.1-.26.02-.55.28-.65l45.39-18.06c.25-.1.55.02.65.28.1.26-.02.55-.28.65l-45.39,18.06c-.06.02-.12.04-.18.04Z" fill="#732a09" stroke-width="0"></path><path d="M361.12,388.56c-.18,0-.36-.1-.45-.28-.18-.37-4.57-9.06-15.02-5.5-.26.08-.54-.05-.63-.31-.09-.26.05-.55.31-.63,11.3-3.84,16.19,5.91,16.24,6.01.12.25.02.55-.23.67-.07.03-.14.05-.22.05Z" fill="#732a09" stroke-width="0"></path><path d="M372.88,370.2c-.08,0-.16-.02-.23-.06-.25-.13-.34-.43-.22-.67l6.16-11.98c.13-.25.43-.34.67-.22.25.13.34.43.22.67l-6.16,11.98c-.09.17-.26.27-.44.27Z" fill="#732a09" stroke-width="0"></path><path d="M367.51,370.28c-.08,0-.16-.02-.23-.06-.25-.13-.34-.43-.22-.67l6.16-11.98c.12-.25.43-.34.67-.22.25.13.34.43.22.67l-6.16,11.98c-.09.17-.26.27-.44.27Z" fill="#732a09" stroke-width="0"></path><path d="M261.54,407.22l-2.6,23.97c-.18,1.68,1.02,3.19,2.7,3.38l44.2,5.12c1.85.21,3.46-1.26,3.42-3.12l-.02-1.05s-.11-21.06-21.9-24.96c0,0-11.2,1.76-25.78-3.34Z" fill="#f75454" stroke-width="0"></path><path d="M308.67,435.49s-.04,0-.06,0l-49.01-5.68c-.27-.03-.47-.28-.44-.55.03-.28.29-.47.55-.44l49.01,5.68c.27.03.47.28.44.55-.03.25-.25.44-.5.44Z" fill="#732a09" stroke-width="0"></path><path d="M271.49,431.18s-.01,0-.02,0c-.28-.01-.49-.24-.48-.52.02-.42.28-10.24-10.72-12.08-.27-.05-.46-.3-.41-.58s.3-.46.58-.41c11.88,1.99,11.56,13,11.55,13.11-.01.27-.23.48-.5.48Z" fill="#732a09" stroke-width="0"></path><path d="M290.74,420.49c-.16,0-.32-.08-.41-.22-.16-.23-.1-.54.13-.7l11.21-7.7c.23-.16.54-.1.7.13.16.23.1.54-.13.7l-11.21,7.7c-.09.06-.19.09-.28.09Z" fill="#732a09" stroke-width="0"></path><path d="M285.93,417.99c-.16,0-.32-.08-.41-.22-.16-.23-.1-.54.13-.7l11.21-7.7c.23-.16.54-.1.7.13.16.23.1.54-.13.7l-11.21,7.7c-.09.06-.19.09-.28.09Z" fill="#732a09" stroke-width="0"></path><path d="M222.77,286.7v19.52s22.21,20.94,48.73,18.81c0,0,24.93-9.93,34.53-17.07l30.81,56.18c1.24,2.26,3.86,3.38,6.34,2.69,4.21-1.17,13.46-5.46,21.55-11.18,2.16-1.53,2.93-4.37,1.86-6.79-6.98-15.76-35.13-70.89-48.74-81.05-15.84-11.82-74.38,19.04-95.08,18.89Z" fill="#fff" stroke-width="0"></path><path d="M341.68,367.54c-2.16,0-4.2-1.17-5.29-3.15l-30.54-55.68c-9.85,7.07-33.93,16.69-34.18,16.79-.05.02-.09.03-.14.03-26.43,2.15-48.89-18.73-49.11-18.94-.1-.09-.16-.23-.16-.36v-19.52c0-.13.05-.26.15-.35.09-.09.22-.15.35-.15.02,0,.1,0,.15,0,8.05,0,21.93-4.69,36.63-9.66,22.85-7.72,48.76-16.47,58.59-9.13,14.25,10.64,42.87,67.64,48.9,81.25,1.17,2.63.31,5.74-2.03,7.4-8.38,5.93-17.74,10.15-21.7,11.25-.54.15-1.09.22-1.63.22ZM306.02,307.47s.07,0,.11.01c.14.03.26.12.33.25l30.81,56.17c1.13,2.07,3.5,3.08,5.77,2.45,3.9-1.08,13.11-5.25,21.39-11.11,1.96-1.38,2.67-3.98,1.7-6.17-7.11-16.06-35.25-70.9-48.59-80.85-9.42-7.03-35.06,1.63-57.68,9.28-14.56,4.92-28.34,9.58-36.6,9.71v18.8c2.03,1.84,23.31,20.48,48.11,18.54,1.47-.59,25.16-10.14,34.34-16.97.09-.06.19-.1.3-.1Z" fill="#732a09" stroke-width="0"></path><path d="M306.02,308.47c-.17,0-.33-.08-.42-.23-.15-.23-.08-.54.16-.69,6.26-3.95,13.54-8.43,13.61-8.48.23-.14.54-.07.69.16.14.24.07.54-.16.69-.07.04-7.35,4.53-13.6,8.47-.08.05-.17.08-.27.08Z" fill="#732a09" stroke-width="0"></path><path d="M242.74,233.01c-.34-.98-.04-2.05.69-2.79,3.82-3.93,4.82-11.64,6.27-14.81,1.58-3.46,4.72-5.22,4.72-5.22l-.97,8.82s12.16-9.16,14.68-10.18,4.1,1.3,1.96,3.54-10.06,8.11-10.06,8.11c0,0,9.97-4.29,12.67-4.01s1.02,3.82-3.82,5.87-7.45,3.35-7.45,3.35c0,0,9.14-2.87,11.27-2.52,2.24.37.84,4.1-4.01,5.87l-6.06,1.96s5.78-.37,7.73-.65.47,4.19-5.31,5.03-10.9,1.58-10.9,1.58l-.79,1.46c-.57,1.05-1.58,1.79-2.76,2-.02,0-.04,0-.06,0-1.53.26-3.08-.37-4.11-1.53-1.24-1.4-2.9-3.56-3.7-5.89Z" fill="#fff" stroke-width="0"></path><path d="M249.86,240.98c-1.44,0-2.8-.63-3.8-1.75-1.28-1.44-2.97-3.65-3.79-6.05h0c-.39-1.13-.08-2.4.8-3.31,2.55-2.62,3.81-7.04,4.83-10.59.47-1.64.88-3.07,1.34-4.08,1.63-3.56,4.79-5.37,4.93-5.44.16-.09.37-.09.52.02.16.1.24.29.22.47l-.85,7.67c2.91-2.17,11.71-8.67,13.87-9.55,1.35-.55,2.64-.29,3.28.66.53.78.64,2.21-.78,3.69-1.3,1.35-4.6,3.96-7.08,5.87,3.19-1.24,7.62-2.79,9.38-2.61,1.39.14,1.66,1.01,1.72,1.37.25,1.7-2.06,4.05-5.39,5.46-.54.23-1.06.45-1.54.66,2.17-.53,4.3-.93,5.25-.77.83.14,1.38.69,1.45,1.47.15,1.6-1.68,4.02-5.36,5.37l-2.13.69c1.39-.11,2.79-.24,3.57-.35.73-.1,1.27.28,1.37.95.2,1.41-1.86,4.39-6.54,5.07l-10.65,1.55-.67,1.24c-.65,1.2-1.78,2.02-3.11,2.25-.28.05-.55.07-.83.07ZM243.21,232.85c.77,2.25,2.38,4.35,3.6,5.71.94,1.06,2.35,1.59,3.65,1.37,1.08-.18,1.96-.82,2.46-1.75l.79-1.46c.08-.14.21-.23.37-.26l10.9-1.58c4.29-.62,5.8-3.21,5.69-3.94-.01-.08-.02-.13-.24-.1-1.95.28-7.53.64-7.77.66-.25.02-.48-.16-.52-.41s.1-.49.34-.57l6.06-1.96c3.21-1.17,4.79-3.27,4.69-4.33-.02-.21-.1-.49-.62-.57-1.66-.28-8.53,1.71-11.04,2.5-.25.08-.52-.05-.61-.29-.1-.24,0-.52.24-.63.03-.01,2.68-1.33,7.48-3.37,3.35-1.41,4.93-3.46,4.8-4.38-.04-.3-.32-.47-.83-.53-2.11-.2-9.68,2.79-12.42,3.97-.23.1-.5.01-.63-.21-.13-.22-.07-.5.14-.65.08-.06,7.91-5.87,10-8.05.83-.86,1.09-1.82.67-2.44-.37-.54-1.18-.66-2.08-.29-2.43.99-14.45,10.03-14.57,10.12-.16.12-.38.13-.55.04-.17-.1-.27-.29-.25-.49l.86-7.74c-1,.76-2.66,2.24-3.65,4.4-.43.95-.83,2.34-1.29,3.94-1.05,3.66-2.35,8.21-5.07,11.01-.62.64-.84,1.51-.57,2.28h0Z" fill="#732a09" stroke-width="0"></path><polygon points="293.13 196.54 310.02 175.24 307.31 223.3 289.78 244.6 293.13 196.54" fill="#f75454" stroke-width="0"></polygon><path d="M289.78,245.1c-.06,0-.12-.01-.18-.04-.2-.08-.33-.28-.31-.5l3.35-48.06c0-.1.04-.2.11-.28l16.89-21.3c.14-.17.37-.23.57-.16.2.08.33.28.32.5l-2.71,48.06c0,.11-.05.21-.11.29l-17.53,21.29c-.1.12-.24.18-.39.18ZM293.62,196.73l-3.23,46.35,16.43-19.96,2.61-46.32-15.82,19.94Z" fill="#732a09" stroke-width="0"></path><path d="M308.61,220.59h-1.15l.17-2.91s-1.55-.54-3.01-.48c-1.47.06-4.23,3.88-5.47,1.88-1.2-1.93,5.75-6.71,6.15-6.98-.32.06-3.86.86-5.15,1.99-1.35,1.17-4.23,2.58-3.59-1.12.65-3.7,8.76-6.23,8.76-6.23-2.89-.65-9.35,3.7-11.05,1.06-1.29-2.01,3.38-4.75,7.49-5.8-4.28.14-9.64-1.91-4.55-3.96,5.13-2.07,11.41.74,11.41.74l.51-7.68s1.15.74,2.22,4.58c1.08,3.85,2.73,6.66,4.63,9.8,1.9,3.15-1.4,14.55-7.36,15.13Z" fill="#fff" stroke-width="0"></path><path d="M308.61,221.09h-1.15c-.14,0-.27-.06-.36-.16-.09-.1-.14-.23-.14-.37l.15-2.51c-.52-.15-1.52-.39-2.47-.34-.4.02-1.13.56-1.77,1.04-1.03.77-2.11,1.57-3.08,1.39-.44-.08-.8-.35-1.07-.79-.98-1.58,1.67-4.15,4.05-6.02-.91.31-1.81.71-2.31,1.14-.86.74-2.6,1.83-3.72,1.2-.71-.4-.94-1.34-.69-2.78.36-2.03,2.66-3.69,4.86-4.85-.09.03-.18.06-.27.09-2.75.89-5.6,1.82-6.81-.06-.34-.53-.39-1.13-.15-1.75.59-1.5,2.92-2.98,5.42-3.98-2.15-.32-4.21-1.08-4.47-2.32-.19-.92.6-1.74,2.36-2.45,4.34-1.75,9.36-.19,11.14.48l.47-7c.01-.18.12-.33.27-.41.16-.08.34-.07.5.03.13.09,1.34.96,2.43,4.87,1.03,3.67,2.54,6.32,4.58,9.67,1.17,1.94.58,6.58-1.32,10.36-1.67,3.32-3.95,5.28-6.42,5.52-.02,0-.03,0-.05,0ZM307.99,220.09h.6c2.84-.29,4.73-3.24,5.6-4.97,1.73-3.45,2.35-7.75,1.36-9.39-2.07-3.42-3.62-6.13-4.69-9.92-.47-1.68-.95-2.74-1.32-3.38l-.42,6.39c-.01.16-.1.31-.24.4-.14.08-.32.09-.46.03-.06-.03-6.14-2.7-11.02-.73-1.38.56-1.81,1.06-1.75,1.32.16.74,2.94,1.79,6.1,1.68.25-.02.47.18.51.43s-.12.49-.37.55c-3.43.88-6.68,2.77-7.24,4.2-.13.32-.11.59.06.84.79,1.23,3.26.42,5.66-.35,1.93-.63,3.76-1.22,5.08-.92.22.05.38.24.39.47,0,.23-.13.43-.35.5-2.18.68-7.93,3.05-8.42,5.84-.16.93-.09,1.58.2,1.74.43.25,1.61-.25,2.57-1.09,1.47-1.28,5.35-2.09,5.39-2.1.24-.04.46.08.56.3.09.22.02.47-.18.61-3.42,2.34-6.61,5.34-6,6.31.16.26.31.31.41.33.54.1,1.51-.62,2.29-1.2.83-.62,1.62-1.21,2.33-1.25,1.54-.06,3.13.48,3.2.51.21.07.35.28.33.5l-.14,2.38Z" fill="#732a09" stroke-width="0"></path><path d="M301.84,202.5c-.25,0-.51-.19-.54-.44-.03-.25.08-.48.33-.55,1.43-.38,2.72-.53,3.73-.44.28.02.48.26.46.54-.02.28-.26.48-.54.46-.84-.07-1.97.06-3.2.36-.07.04-.15.07-.24.07Z" fill="#732a09" stroke-width="0"></path><path d="M305.3,212.61c-.14,0-.27-.05-.37-.16-.19-.2-.17-.52.03-.71.09-.08.23-.14.36-.14.28,0,.5.22.5.5,0,.21-.12.38-.3.46-.07.03-.14.05-.22.05Z" fill="#732a09" stroke-width="0"></path><path d="M229.9,239.18c-.09,0-.18-.02-.26-.07-.21-.12-.3-.38-.21-.6,6.48-17.28,12.86-37.87,4.61-43.71-.23-.16-.28-.47-.12-.7.16-.23.47-.28.7-.12,8.41,5.95,2.91,25.39-3.36,42.47,3.43-3.63,10.75-10.71,14.1-8.95.25.13.34.43.21.67-.13.25-.43.34-.67.21-2.64-1.38-10.36,5.78-14.62,10.62-.1.11-.24.17-.38.17Z" fill="#732a09" stroke-width="0"></path><path d="M218.09,273.98c-.22,0-.43-.15-.49-.38-.07-.27.1-.54.37-.6,14.24-3.51,31.51-25.26,33.42-28.64,1.47-2.6.15-3.95.09-4.01-.2-.19-.2-.51-.01-.71s.5-.21.7-.02c.08.08,1.97,1.91.09,5.22-1.94,3.43-19.51,25.54-34.05,29.12-.04,0-.08.01-.12.01Z" fill="#732a09" stroke-width="0"></path><path d="M308.07,253.01c-.27,0-.5-.22-.5-.5-.13-15.77-1.35-24.56-1.36-24.65-.04-.27.15-.53.43-.56.27-.03.53.15.56.43.01.09,1.24,8.93,1.37,24.78,0,.28-.22.5-.5.5h0Z" fill="#732a09" stroke-width="0"></path><path d="M222.77,306.72c-.13,0-.26-.05-.36-.15-9.6-9.98-14.74-30.66-14.79-30.86-.07-.27.1-.54.37-.6.27-.07.54.1.6.37.05.21,5.13,20.63,14.54,30.41.19.2.19.52-.01.71-.1.09-.22.14-.35.14Z" fill="#732a09" stroke-width="0"></path></g></svg>