<svg transform="scale(1)" version="1.1" id="Layer_1" xmlns="http://www.w3.org/2000/svg" xmlns:xlink="http://www.w3.org/1999/xlink" x="0px" y="0px" viewBox="0 0 500 500" xml:space="preserve" class="show_show__wrapper__graphic__5Waiy "><title>React</title><style type="text/css">
	.st0{fill:#7d82bf;}
	.st1{fill:#F2EBEB;}
	.st2{fill:#000001;}
	.st3{fill:#98a1ba;}
	.st4{fill:#FFFFFF;}
	.st5{fill:#1fffde;}
	.st6{fill:#a9abca;}
	.st7{fill:#87CCDB;}
</style><g id="character"><path class="st0" d="M401.1,137.7c0,0,24.4-10.6,33.7-10.8s27.9,17.1,11.4,23.9c0,0,8.4,9.9-5.4,12.4c0,0,6.7,6.4,7.3,9.9
		s-28.1-8.5-29.6-9.2s-11.7,0-11.7,0s-53,33.9-53.9,32.4s-17.8-16.6-13.9-28.8L401.1,137.7z"></path><path class="st1" d="M337.3,133.6c0,0,8.1-58.1-11.9-80s-73.1-28.1-91.9-6.2s-52.5,119.4-65.6,163.8s-45.6,78.1-43.1,81.2
		s52.5,3.8,70,31.9s26.2,32.5,41.3,25s36.9,28.8,77.5,20.6s67.5-40,67.5-40s-26.4-83.4-12.6-111.5s29.7-71.4,27.2-79.6
		S333.8,161.6,337.3,133.6z"></path><path class="st2" d="M265.7,114.7c0,0-4.1-37,8.5-40.8s13.6,15.5,9.8,30.3S268.4,121.3,265.7,114.7z"></path><path class="st2" d="M245.8,131.2c0,0-3.8,13.7-6.6,18.8s0,16,6.6,15.7s7.6-9.9,7.6-20.8S249.9,125.6,245.8,131.2z"></path><path class="st2" d="M240.4,84.6c0,0,0.9,25.7-4.7,29.5s-10.4-5.7-10.2-16.1s4.8-19.7,7.4-22.8S240.5,76.1,240.4,84.6z"></path><path class="st3" d="M165.2,290.6c0,0-51.7,57.5-57.2,78.8c0,0,16.2,21.4,20.8,24.7c3.2,2.3,6.8-5.2,6.8-5.2s51.9-75,72.6-73.5
		C208.2,315.5,205.2,278,165.2,290.6z"></path><path class="st3" d="M253.4,325.3c0,0-3.4,50.4,44.6,111.7c0,0,22.3-23.8,22.3-27.3c0,0-24.5-61.8-20.4-95.2
		C299.8,314.4,272.4,312.3,253.4,325.3z"></path><path class="st4" d="M381.1,329.9c-3.2-1.5-6.6-2.6-10.1-3.3c-3.5-0.7-7-0.8-10.5-0.3c-3.5,0.5-6.7,2-9.4,4.2
		c-2.7,2.2-5.2,4.8-7.7,7.2s-5,5-7.7,7.4c-2.6,2.4-5.4,4.7-8.4,6.6c-3,2.1-6.5,3.4-10.2,3.6c-1.9,0-3.8-0.4-5.5-1.2
		c-0.4-0.2-0.9-0.4-1.2-0.7l-1.2-0.8c-0.7-0.6-1.4-1.2-2-1.9c-2.6-2.5-4.8-5.5-6.4-8.7c-1.7-3.3-2.5-6.9-2.6-10.6
		c0-3.7,0.9-7.4,2.8-10.6c0.5-0.8,1-1.6,1.5-2.3l0.9-1.1c0.3-0.4,0.6-0.7,0.9-1c0.6-0.7,1.3-1.3,2-1.9l2.1-1.6
		c0.2-0.2,0.4-0.4,0.6-0.6c0,0,0,0.2,0,0.2s0,0-0.2-0.1c-0.7-0.2-1.5-0.3-2.3-0.3c-1.7,0-3.5,0.1-5.2,0.2c-3.5,0.3-7,0.9-10.4,1.6
		c-6.9,1.3-13.8,3-20.5,5.2c-3.4,1.1-6.7,2.2-9.9,3.6c-1.6,0.7-3.2,1.4-4.8,2.2l-2.3,1.2l-2.4,1.3c-3.2,1.6-6.7,2.9-10.2,3.7
		c-3.6,0.8-7.2,1-10.9,0.6c-7.3-0.8-14.1-4.4-19-9.9c-2.3-2.9-3.9-6.2-4.8-9.8c-0.8-3.4-1.9-6.7-3.1-10c-1.3-3.2-3.4-6-6.1-8.1
		c-2.8-2-6-3.6-9.3-4.5c-3.3-1-6.8-1.5-10.3-1.3c-3.5,0.2-7,0.7-10.3,1.6c-3.4,0.8-6.9,1.8-10.4,2.5c-3.5,0.7-7.1,1.2-10.6,1.4
		c-7.1,0.3-14.2-0.1-21.2-1.3c3.5,0.5,7,0.8,10.6,0.9c3.5,0.1,7.1,0.1,10.6-0.1c3.5-0.2,7-0.8,10.5-1.6c3.4-0.8,6.8-1.8,10.3-2.7
		c3.5-1,7-1.6,10.6-1.9c3.6-0.2,7.3,0.2,10.7,1.2l2.6,0.9l2.5,1c0.8,0.4,1.6,0.8,2.4,1.2c0.4,0.2,0.8,0.4,1.2,0.7l1.1,0.8
		c2.9,2.2,5.3,5.2,6.7,8.6c1.3,3.3,2.4,6.7,3.4,10.2c0.8,3.3,2.4,6.4,4.5,9.1c4.6,5.2,11,8.5,17.9,9.2c3.4,0.4,6.9,0.2,10.3-0.6
		c3.4-0.8,6.7-2,9.7-3.6l2.3-1.2l2.4-1.3c1.6-0.8,3.2-1.6,4.9-2.3c3.3-1.4,6.7-2.6,10.1-3.7c6.8-2.1,13.7-3.8,20.8-5.1
		c3.5-0.6,7-1.2,10.6-1.5c1.8-0.2,3.6-0.3,5.4-0.2c1,0,2,0.2,2.9,0.5c0.4,0.1,0.7,0.4,0.9,0.7c0.3,0.4,0.4,1,0.2,1.5
		c-0.3,0.5-0.7,1-1.1,1.4l-2.1,1.6c-0.7,0.5-1.3,1.1-1.9,1.7c-0.3,0.3-0.6,0.6-0.9,0.9l-0.8,1c-0.5,0.7-0.9,1.4-1.4,2.1
		c-1.7,3-2.6,6.3-2.6,9.7c0,3.4,0.8,6.8,2.4,9.9c1.5,3.1,3.5,6,6,8.4c2.2,2.6,5.4,4.1,8.8,4.2c3.4-0.2,6.7-1.4,9.6-3.3
		c5.9-3.7,11-8.8,16.1-13.6c2.6-2.4,5.1-4.9,8-7.1c2.8-2.3,6.2-3.7,9.8-4.2c3.6-0.5,7.2-0.3,10.6,0.5
		C374.6,327.1,377.9,328.3,381.1,329.9z"></path><path class="st4" d="M309,244.4c0.4,5.6,0.6,11.2,0.8,16.9c0.2,5.6,0.2,11.2,0.2,16.8s-0.1,11.2-0.2,16.8s-0.4,11.2-0.8,16.9
		c-0.4-5.6-0.6-11.2-0.8-16.9c-0.2-5.6-0.2-11.2-0.2-16.8s0.1-11.2,0.2-16.8S308.6,250,309,244.4z"></path><path class="st4" d="M218.9,237.9l-3.6,18.4c-1.2,6.1-2.4,12.2-3.4,18.4s-2,12.3-2.7,18.5l-0.3,2.3l-0.2,2.3
		c-0.1,1.5-0.3,3.1-0.4,4.6s-0.2,3.1-0.2,4.7s0,3.1,0,4.7c-0.8-6.2-1-12.5-0.5-18.8c0.2-3.1,0.5-6.2,0.9-9.4s0.8-6.2,1.4-9.3
		s1.1-6.1,1.7-9.2s1.3-6.1,2.1-9.1C215.2,249.9,216.9,243.9,218.9,237.9z"></path><path class="st2" d="M63.4,360.9c0,0,48,54.4,50.4,52.9s13.9-20.7,13.9-20.7L108,369.4l-10.9,1.2c0,0-21.8-7.6-24.9-9.8
		S55.6,352.1,63.4,360.9z"></path><path class="st2" d="M319.3,411.8c0,0,22.8,7.5,23.5,10.2s-12.2,40.1-14.6,42.5s-41.2,2.2-42.2,0s9.4-6.4,12.5-7.3
		s13.1-11.6,13.1-11.6l-10.9-11.7L319.3,411.8z"></path><path class="st1" d="M182.5,165.6c0,0-58,24.5-63.9,25s31.8,53.8,36.3,52.1S182.5,165.6,182.5,165.6z"></path><path class="st0" d="M127,201.7c0,0-8.3-6.6-11.8-4.4s-6,10.9-4.4,11.9s3.1-0.5,3.1-0.5s-1.8,5.8,0.4,6.6s3.4-2.3,3.4-2.3
		s-1.6,7.1,5.6,13c0,0,4.9-10.9,6.1-11.3s0.6,5-1.4,8.3s-3,5.4-2,6.1s10.4,5.7,13.2-1.8S127,201.7,127,201.7z"></path><path class="st2" d="M120.9,237.9c4.9-2,8.4-6.5,9.1-11.8c1.2-9-0.6-11.6-0.6-11.6l-4.8,8.4c0,0,1.1,6.8-6.6,10.5L120.9,237.9z"></path><path class="st2" d="M91.8,204.2c0,0,11.2-7,21.1-4.6l-2.5,6.5c0,0-6.7-3.7-13.6,2.7L91.8,204.2z"></path><path class="st2" d="M115.4,204c-0.2,2-0.6,4-1.1,5.9c-0.2,0.9-0.4,1.9-0.5,2.7c-0.2,0.9,0,1.9,0.5,2.6c-0.6-0.1-1.1-0.4-1.4-0.9
		c-0.3-0.5-0.6-1-0.7-1.6c-0.2-1.1-0.1-2.2,0.1-3.3c0.2-1,0.6-2,1.1-2.9C114,205.6,114.6,204.7,115.4,204z"></path><path class="st2" d="M119.3,207.5c-0.5,2.2-0.7,4.5-0.7,6.8c0.1,1.1,0.1,2.2,0.2,3.4c0,0.6,0.2,1.1,0.2,1.7s0.2,1.2,0.2,1.8
		c-0.4-0.5-0.8-1-1.1-1.5c-0.3-0.5-0.6-1.1-0.8-1.7c-0.5-1.2-0.7-2.4-0.7-3.7c0-1.3,0.2-2.5,0.6-3.7
		C117.6,209.4,118.3,208.4,119.3,207.5z"></path><path class="st4" d="M182.5,165.6c-1.8,7-3.7,13.9-5.8,20.7c-2.1,6.9-4.3,13.7-6.7,20.5s-4.8,13.5-7.6,20.2
		c-2.6,6.7-5.7,13.2-9.4,19.4c1.5-3.2,3-6.5,4.2-9.9s2.5-6.7,3.8-10.1c2.4-6.7,4.8-13.5,7.1-20.3l7.1-20.3
		C177.6,179.1,180,172.4,182.5,165.6z"></path><path class="st5" d="M444.4,85.4c0,0,14.3,5.5,15.6,7.6s-28.1,59-29.1,59.8s-10.5-1.4-9.4-4.6s20.5-51,19.5-49.6s-4.3,3.4-2.5-1
		S444.4,85.4,444.4,85.4z"></path><path class="st6" d="M455.8,85.2c0,0-2.8-2,2-8.3s7.3-8.9,7-7.4S463,88.3,455.8,85.2z"></path><path class="st0" d="M407.9,140.4c0,0,24.6,7.2,29.3,4.5s-16.7-12.6-16.7-12.6"></path><path class="st2" d="M407.9,140.4l12.9,2.5c2.1,0.4,4.3,0.8,6.4,1.1c2.1,0.3,4.2,0.5,6.4,0.6c1,0,1.9-0.1,2.9-0.4l0.3-0.1l0.1-0.1
		c0.1-0.1,0-0.1,0.1-0.1s-0.1-0.5-0.4-0.8c-0.6-0.8-1.4-1.5-2.2-2.1c-0.9-0.6-1.7-1.3-2.6-1.9c-3.6-2.4-7.4-4.6-11.2-6.8
		c4.2,1.5,8.2,3.3,12,5.5c1,0.5,1.9,1.1,2.8,1.8c1,0.7,1.9,1.4,2.6,2.3c0.2,0.3,0.4,0.6,0.6,0.9l0.2,0.6c0,0.2,0.1,0.5,0.1,0.7
		c0,0.3-0.1,0.5-0.2,0.8c-0.1,0.2-0.3,0.4-0.5,0.6c-0.2,0.1-0.3,0.3-0.5,0.4l-0.5,0.2c-1.2,0.4-2.4,0.6-3.6,0.6
		c-4.4-0.2-8.9-0.9-13.1-2.1C416.1,143.3,411.9,142,407.9,140.4z"></path><path class="st0" d="M443.4,162.5c0,0-27.8,2.3-19.9-6.5"></path><path class="st2" d="M443.4,162.5c-2.1,0.6-4.3,0.9-6.5,1.1c-2.2,0.2-4.4,0.2-6.6,0c-2.3-0.1-4.5-0.7-6.6-1.6
		c-0.6-0.3-1.1-0.7-1.5-1.1c-0.5-0.5-0.7-1.2-0.7-1.9c0.2-1.2,0.9-2.2,1.9-2.9c-0.6,0.8-0.9,1.8-0.9,2.8c0.1,0.8,0.9,1.3,1.9,1.6
		c1,0.3,1.9,0.6,3,0.7c1,0.2,2.1,0.3,3.1,0.4c2.1,0.2,4.2,0.3,6.4,0.4S441.2,162.3,443.4,162.5z"></path><path class="st0" d="M447.1,150.4c0,0-19.2,8.4-25.2,4.7s19.3-12.4,19.3-12.4"></path><path class="st2" d="M447.1,150.4c-3.8,2.1-7.8,3.7-11.9,5c-2.1,0.7-4.2,1.1-6.4,1.4c-1.1,0.2-2.2,0.2-3.4,0.2
		c-1.2,0-2.4-0.3-3.5-0.8c-0.3-0.1-0.6-0.3-0.9-0.5c-0.3-0.2-0.6-0.6-0.8-0.9c-0.1-0.2-0.2-0.5-0.2-0.7c0-0.2,0-0.5,0-0.7
		c0.1-0.4,0.2-0.7,0.4-1.1c0.7-1,1.6-1.8,2.6-2.4c1.8-1.2,3.8-2.2,5.8-3c4-1.7,8-3.1,12.2-4.1c-3.9,1.8-7.8,3.6-11.6,5.5
		c-1.9,0.9-3.7,2-5.4,3.2c-0.8,0.5-1.5,1.2-2,1.9c-0.1,0.1-0.1,0.3-0.2,0.4c0,0,0,0.1,0,0.1c0,0,0,0,0,0.1c0.2,0.2,0.5,0.4,0.8,0.6
		c0.9,0.4,1.8,0.6,2.7,0.6c1,0,2,0,3-0.1c2.1-0.2,4.2-0.6,6.2-1.1C438.9,152.9,443,151.7,447.1,150.4z"></path><path class="st5" d="M460,55c0.6,2.4,0.3,4.9-0.9,7c-1.2,2.1-2.9,3.9-5,5.2c-1,0.7-2,1.2-2.9,1.9c-0.9,0.6-1.8,1.3-2.6,2.1
		c-1.6,1.4-2.9,3.2-3.8,5.2c-0.4,0.9-0.5,1.9-0.4,2.9c0.2,0.8,0.7,1.6,1.5,1.9c0.8,0.4,1.7,0.4,2.5-0.1c0.8-0.5,1.5-1.3,1.9-2.2
		c0.1-0.2,0.2-0.4,0.2-0.7c0.1-0.2,0-0.5,0.1-0.4s0.2,0.2,0.3,0.2s0,0-0.1,0l-0.3,0.2l-0.3,0.2c-0.8,0.6-1.2,1.6-1,2.6
		c0.2,1.1,0.8,2.1,1.7,2.8c0.9,0.8,1.8,1.4,2.9,1.9c-1.1-0.3-2.2-0.9-3.2-1.5c-1.1-0.7-1.9-1.8-2.2-3c-0.3-1.4,0.1-2.8,1.1-3.8
		l0.4-0.3l0.5-0.3c0.2-0.1,0.5-0.2,0.7-0.2c0.4,0,0.8,0.2,1,0.6c0.2,0.4,0.2,0.9,0.1,1.3c-0.1,0.3-0.2,0.7-0.3,1
		c-0.5,1.3-1.3,2.4-2.4,3.1c-0.6,0.4-1.3,0.6-2,0.7c-0.7,0.1-1.5-0.1-2.1-0.4c-0.3-0.2-0.6-0.3-0.9-0.5s-0.5-0.5-0.8-0.8
		s-0.4-0.6-0.6-0.9c-0.1-0.3-0.3-0.7-0.4-1c-0.3-1.3-0.1-2.7,0.4-4c1.9-4.8,6.2-7.8,10.3-9.9c2-1.1,3.7-2.5,5-4.4
		C459.7,59.6,460.3,57.3,460,55z"></path><path class="st5" d="M460.2,90.1c0.7,0.5,1.6,0.7,2.5,0.6c0.8-0.1,1.6-0.5,2.2-1c1.3-1.1,2.3-2.5,3.1-4.1c0.4-0.8,0.8-1.6,1.1-2.4
		c0.4-0.8,0.7-1.6,1-2.4c0.6-1.5,0.9-3.2,0.7-4.8c0-0.6-0.4-1.1-0.9-1.3c-0.3-0.1-0.5-0.1-0.8-0.1h-0.1c0,0,0,0,0.1-0.2
		c0.1-0.2,0.1-0.4,0-0.6c0-0.1-0.1-0.1-0.1-0.2c0,0-0.1-0.1-0.1-0.1s-0.1-0.1-0.1-0.1c0.2,0,0.3-0.1,0.5-0.2
		c0.3-0.2,0.5-0.5,0.7-0.8c0.4-0.7,0.6-1.4,0.8-2.2c0.2-1.7,0.1-3.4-0.3-5.1c-0.4-1.7-1-3.5-1.7-5.1c2.1,3,3.8,6.4,3.5,10.4
		c-0.1,1-0.4,2-0.8,2.9c-0.3,0.5-0.6,0.9-1,1.3c-0.5,0.5-1.3,0.7-2,0.6c-0.2,0-0.5-0.1-0.7-0.3c-0.1-0.1-0.2-0.1-0.2-0.2
		c-0.1-0.1-0.2-0.2-0.2-0.3c-0.1-0.3-0.1-0.6,0.1-0.9c0.1-0.2,0.2-0.3,0.4-0.4c0.1-0.1,0.2-0.1,0.3-0.2c0.2-0.1,0.3-0.2,0.5-0.2
		c0.6-0.1,1.3-0.1,1.9,0.1c0.6,0.2,1.2,0.6,1.5,1.1c0.3,0.5,0.6,1,0.7,1.6c0.2,1,0.1,2.1-0.1,3.1c-0.2,0.9-0.5,1.8-0.8,2.7
		c-0.3,0.9-0.7,1.7-1.1,2.6l-0.6,1.2c-0.2,0.4-0.5,0.8-0.7,1.2c-1,1.6-2.3,3-3.9,4.1c-0.8,0.5-1.8,0.8-2.8,0.8
		C461.8,91.1,460.9,90.7,460.2,90.1z"></path><path class="st4" d="M321.5,126.8c2.1,3.5,4.8,6.6,7.8,9.3c3,2.7,6.4,4.8,10.1,6.3c1.8,0.8,3.8,1.3,5.7,1.7c1,0.2,2,0.3,3,0.5
		l1.5,0.1c0.5,0.1,1,0.1,1.5,0.1c4.1,0.1,8.1-0.2,12.1-1c-3.9,1.5-8,2.4-12.2,2.5c-4.2,0.2-8.5-0.5-12.4-2.1c-2-0.8-3.8-1.8-5.6-3
		c-1.7-1.2-3.4-2.5-4.8-4.1C325.3,134.3,323,130.7,321.5,126.8z"></path><path class="st6" d="M89.9,195.4c-7.6-15-47.2,1.4-58.9,26.5s14.9,41,14.9,41s4,8,10.8,8.6c0,0,5.4,29.5,41.9,26.2
		s40.6-43.3,35.5-56.9C134.1,240.9,107.8,231,89.9,195.4z"></path><path class="st0" d="M98.3,208.5c-2.9,1.5-5.8,3-8.7,4.7s-5.6,3.4-8.3,5.2c-5.5,3.6-10.6,7.5-15.5,11.9c-2.4,2.2-4.7,4.5-6.8,6.9
		c-2.2,2.4-4.1,5-5.9,7.7c-1.8,2.7-3.3,5.6-4.5,8.6c-1.2,3-2.1,6.2-2.7,9.4c0.2-3.3,0.7-6.6,1.7-9.8c1-3.2,2.4-6.2,4.1-9.1
		c3.4-5.7,7.7-10.9,12.7-15.3c4.9-4.4,10.3-8.4,16-11.7C86.2,213.6,92.1,210.8,98.3,208.5z"></path><path class="st0" d="M94.3,203.4c-3.4,0-6.7,0.3-10,1c-3.3,0.6-6.5,1.5-9.6,2.6c-6.2,2.3-12.1,5.3-17.5,9.2c-2.7,1.9-5.3,4-7.7,6.2
		c-2.5,2.2-4.8,4.6-7,7.1c-4.4,5-8.4,10.4-12,16c3-6.1,6.6-11.8,10.9-17c2.1-2.6,4.4-5.1,6.9-7.5c2.5-2.3,5.1-4.5,7.8-6.5
		c5.6-3.9,11.7-7,18.2-9C80.6,203.5,87.5,202.8,94.3,203.4z"></path><path class="st0" d="M106.7,223.2c-4.4,3.9-8.7,7.8-13.1,11.6c-4.4,3.9-8.8,7.7-13.1,11.6s-8.6,7.8-12.7,11.9c-2.1,2-4.1,4.1-6,6.3
		c-2,2.1-3.7,4.5-5.1,7c1.1-2.7,2.6-5.3,4.3-7.6c1.8-2.4,3.7-4.6,5.6-6.8c3.9-4.3,8.2-8.4,12.5-12.3s8.8-7.7,13.4-11.3
		S101.9,226.4,106.7,223.2z"></path><path class="st0" d="M121.5,231.6c-1.9,6.6-4.7,13-8.1,19c-1.7,3-3.6,5.9-5.5,8.8s-4.1,5.5-6.4,8.2c-4.6,5.2-9.7,9.9-15.2,14.1
		c-2.8,2.1-5.7,4-8.8,5.6c-1.6,0.8-3.2,1.5-4.8,2c-1.6,0.6-3.4,0.8-5.1,0.6c0.9,0,1.7,0,2.5-0.3c0.8-0.2,1.6-0.5,2.4-0.8
		c1.6-0.7,3.1-1.4,4.5-2.3c2.9-1.8,5.7-3.8,8.3-5.9c1.3-1.1,2.6-2.2,3.9-3.3s2.5-2.3,3.7-3.5s2.4-2.4,3.6-3.6s2.3-2.5,3.4-3.8
		c4.5-5.1,8.5-10.6,12.1-16.4c1.8-2.9,3.5-5.9,5.1-8.9S120.2,234.8,121.5,231.6z"></path><path class="st2" d="M81.2,224.5c1.4-2.8,2.1-6,2-9.1c-0.1-0.2-0.3-0.3-0.5-0.5c-3.2-2.3-9.7,1.1-12.8,7.5c-1.8,3.7-0.3,7,1.3,9
		c0.4,0.5,0.8,0.9,1.4,1.2C76.2,230.8,79.2,228,81.2,224.5z"></path><path class="st0" d="M83.2,215.4c0.1,3.2-0.6,6.3-2,9.1c-2,3.5-5,6.4-8.6,8.2c1.4,0.8,3.1,1,4.7,0.5
		C86.2,230.2,85.6,218.4,83.2,215.4z"></path><path class="st2" d="M102.9,253.5c5.2-1.5,10.3-6.3,9.8-10.8c-1.4-1.2-4.1-1.6-7.7-0.7c-9,2.3-10.7,9.5-10.7,9.5c0,0.1,0,0.2,0,0.2
		C95.7,253.1,98.3,254.8,102.9,253.5z"></path><path class="st0" d="M112.7,242.6c0.4,4.6-4.6,9.4-9.8,10.8c-4.6,1.3-7.3-0.4-8.7-1.8c-0.6,4.6,8.1,6.2,15.4,0.2
		C114.2,248.1,114.8,244.5,112.7,242.6z"></path><path class="st2" d="M62.2,229.1c0,0-6.6,1.8-8.8,8.2s14,24,26.3,31.6s22.4-2.3,20.8-3.8s-11.1,4-10-0.8s0.9-8.6-4.6-6.2
		s-10.6,0.4-8.4-2s5.5-9.5,0.2-7.9s-11.8,4.3-8.8-0.4s3.8-11.3-0.4-10.2s-10.1,4.1-9.1-0.1S66.2,228.9,62.2,229.1z"></path><path class="st2" d="M88.1,239.9c-0.1-0.2-0.2-0.3-0.4-0.4c0,0-9.4,2.4-7.9,5.3c0.8,1.5,2.2,2.5,3.9,2.7
		C85.5,245.6,87.3,241.6,88.1,239.9z"></path><path class="st0" d="M86.8,246.5c1.3-1.5,2.1-5.3,1.3-6.6c-0.7,1.7-2.6,5.7-4.5,7.6C84.8,247.7,85.9,247.3,86.8,246.5z"></path><path class="st7" d="M213.4,145.5c-4.7-5.1-9.6-9.9-14.7-14.6c-5.1-4.7-10.5-9-16.2-12.8c-2.8-1.9-5.8-3.6-8.9-5.1
		c-3-1.5-6.2-2.6-9.6-3.2c-1.7-0.2-3.3-0.3-5-0.1c-1.7,0.1-3.4,0.4-5,0.8c-3.2,0.7-6.2,2.2-8.6,4.5c-1.1,1.1-2,2.4-2.4,3.9
		c-0.5,1.4-0.3,2.9,0.6,4c1,0.9,2.5,0.9,3.6,0c1.2-1,2.2-2.2,2.8-3.7c1.3-3,1.8-6.4,1.3-9.6c-0.4-3.3-2.1-6.2-4.8-8.1
		c-2.8-1.8-6.1-2.6-9.4-2.5c-3.4,0-6.7,0.6-9.8,2c-3.1,1.4-6,3.3-8.4,5.8c-2.5,2.4-4.5,5.2-6.2,8.2c1.5-3.2,3.4-6.1,5.8-8.6
		c2.4-2.6,5.2-4.7,8.3-6.3c3.2-1.5,6.7-2.3,10.2-2.4c3.6-0.3,7.2,0.6,10.3,2.5c1.5,1,2.8,2.4,3.8,4c0.9,1.6,1.6,3.3,1.8,5.2
		c0.6,3.6,0.1,7.3-1.3,10.7c-0.7,1.8-1.9,3.3-3.4,4.5c-0.9,0.6-1.9,1-2.9,1c-1.1,0-2.2-0.4-3-1.2c-0.7-0.8-1.2-1.8-1.4-2.8
		c-0.1-1-0.1-2,0.2-3c0.5-1.8,1.5-3.5,2.9-4.8c2.7-2.5,6-4.2,9.6-4.9c1.7-0.4,3.5-0.7,5.3-0.8c1.8-0.2,3.6-0.1,5.4,0.2
		c3.5,0.6,6.8,1.8,10,3.4c3.1,1.6,6.1,3.4,9,5.4C194.7,124.9,204.6,134.9,213.4,145.5z"></path><path class="st7" d="M207.9,115c-2.4-4.5-4.6-9-6.9-13.5s-4.6-9-7-13.5s-4.8-8.9-7.4-13.2c-1.3-2.2-2.7-4.3-4.1-6.3
		c-1.4-2.1-3.1-4-5-5.6c2.2,1.3,4.2,3,5.8,5c1.7,1.9,3.2,4,4.7,6.1c2.9,4.2,5.5,8.6,7.8,13.1c2.4,4.5,4.6,9.1,6.6,13.8
		S206.3,110.2,207.9,115z"></path><path class="st7" d="M135.9,145.6c-1,0.3-2,0.4-3,0.4c-1,0.1-2,0.1-3,0.1c-2,0-4,0-6,0c-4-0.1-8-0.2-12-0.4l-11.9-0.5
		c-2-0.1-4-0.1-6-0.1c-2-0.1-4,0.1-5.9,0.4c1.9-0.7,3.9-1.2,5.9-1.4c2-0.2,4-0.4,6-0.5c4-0.2,8-0.1,12,0s8,0.4,12,0.8
		c2,0.2,4,0.4,6,0.6l3,0.3C133.9,145.6,134.9,145.7,135.9,145.6z"></path><path class="st7" d="M153.1,144.6c0.8-0.4,1.6-0.6,2.5-0.8c0.8-0.1,1.7-0.2,2.5-0.2c0.8,0,1.7,0.1,2.5,0.2c0.9,0.1,1.7,0.4,2.5,0.8
		c-0.8,0.4-1.6,0.6-2.5,0.8c-0.8,0.1-1.7,0.2-2.5,0.2c-0.8,0-1.7-0.1-2.5-0.2C154.7,145.2,153.9,144.9,153.1,144.6z"></path></g></svg>