<svg transform="scale(1)" id="_0282_happy_face" xmlns="http://www.w3.org/2000/svg" xmlns:xlink="http://www.w3.org/1999/xlink" viewBox="0 0 500 500" class="show_show__wrapper__graphic__5Waiy "><title>React</title><defs><style>.cls-1{opacity:.6;}.cls-1,.cls-2,.cls-3,.cls-4,.cls-5,.cls-6,.cls-7,.cls-8,.cls-9,.cls-10,.cls-11,.cls-12,.cls-13,.cls-14,.cls-15,.cls-16,.cls-17,.cls-18,.cls-19,.cls-20{stroke-width:0px;}.cls-1,.cls-14{isolation:isolate;}.cls-1,.cls-14,.cls-20{fill:#68e1fd;}.cls-2{fill:url(#linear-gradient);}.cls-3{fill:url(#linear-gradient-11);}.cls-4{fill:url(#linear-gradient-12);}.cls-5{fill:url(#linear-gradient-10);}.cls-6{fill:url(#linear-gradient-4);}.cls-7{fill:url(#linear-gradient-2);}.cls-8{fill:url(#linear-gradient-3);}.cls-9{fill:url(#linear-gradient-8);}.cls-10{fill:url(#linear-gradient-9);}.cls-11{fill:url(#linear-gradient-7);}.cls-12{fill:url(#linear-gradient-5);}.cls-13{fill:url(#linear-gradient-6);}.cls-14{opacity:.24;}.cls-15{fill:#2a2d6b;}.cls-16{fill:#231f20;}.cls-17{fill:#c14834;}.cls-18{fill:#b5765e;}.cls-19{fill:#fff;}</style><linearGradient id="linear-gradient" x1="765.74" y1="3778.96" x2="866.59" y2="3778.96" gradientTransform="translate(-579.76 4131.45) scale(1 -1)" gradientUnits="userSpaceOnUse"><stop offset="0" stop-color="#231f20" stop-opacity="0"></stop><stop offset="1" stop-color="#231f20"></stop></linearGradient><linearGradient id="linear-gradient-2" x1="395.9" y1="4198.2" x2="578.16" y2="4214.99" gradientTransform="translate(-777.93 4233.95) rotate(7.67) scale(1 -1)" gradientUnits="userSpaceOnUse"><stop offset="0" stop-color="#fff" stop-opacity="0"></stop><stop offset=".95" stop-color="#fff"></stop></linearGradient><linearGradient id="linear-gradient-3" x1="367.72" y1="4195.87" x2="526.27" y2="4210.49" xlink:href="#linear-gradient-2"></linearGradient><linearGradient id="linear-gradient-4" x1="454.16" y1="4208.38" x2="461.56" y2="4142.17" gradientTransform="translate(-777.93 4233.95) rotate(7.67) scale(1 -1)" xlink:href="#linear-gradient"></linearGradient><linearGradient id="linear-gradient-5" x1="810.43" y1="4002.54" x2="829.25" y2="4002.54" gradientTransform="translate(-565.59 4125.08) rotate(-.56) scale(1 -1)" xlink:href="#linear-gradient"></linearGradient><linearGradient id="linear-gradient-6" x1="842.9" y1="4002.54" x2="861.73" y2="4002.54" gradientTransform="translate(-565.59 4125.08) rotate(-.56) scale(1 -1)" xlink:href="#linear-gradient"></linearGradient><linearGradient id="linear-gradient-7" x1="850.23" y1="3690.87" x2="883.68" y2="3690.87" xlink:href="#linear-gradient"></linearGradient><linearGradient id="linear-gradient-8" x1="762.26" y1="3688.46" x2="795.47" y2="3688.46" xlink:href="#linear-gradient"></linearGradient><linearGradient id="linear-gradient-9" x1="804.7" y1="3919.99" x2="597.23" y2="3877.29" xlink:href="#linear-gradient"></linearGradient><linearGradient id="linear-gradient-10" x1="853.26" y1="3931.38" x2="842.03" y2="3885.41" xlink:href="#linear-gradient"></linearGradient><linearGradient id="linear-gradient-11" x1="862.46" y1="3949.81" x2="756.17" y2="3927.18" xlink:href="#linear-gradient"></linearGradient><linearGradient id="linear-gradient-12" x1="770.34" y1="3997.22" x2="673.87" y2="4007.89" xlink:href="#linear-gradient"></linearGradient></defs><g id="background"><path class="cls-14" d="M415.95,383.77c-2.15,3.3-4.4,6.49-6.74,9.52-52.76,69.72-146.34,79.18-227.25,76.78-23.62-.69-48.48-1.76-68.59-14.19-6.27-3.88-11.97-8.89-15.55-15.31-3.19-5.77-4.52-12.37-5.62-18.86-1.58-9.43-2.77-18.9-3.58-28.42-3.16-38.16.03-76.59,9.43-113.71,4.01-15.68,9.13-31.29,9.58-47.46.82-29.5-13.98-58.16-10.68-87.48,2.86-25.41,19.14-47.58,38.67-64.08,31.83-26.87,74.32-41.54,115.74-37.38,41.42,4.16,81.03,27.84,102.1,63.76,23.87,40.67,22.95,91.79,44.4,133.79,9.89,19.41,24.41,36.54,31.35,57.19,9.56,28.39,3.14,60.78-13.27,85.85Z"></path><path class="cls-14" d="M409.21,393.29c-52.76,69.72-146.34,79.18-227.25,76.78-23.62-.69-48.48-1.76-68.59-14.19-6.27-3.88-11.97-8.89-15.55-15.31-3.19-5.77-4.52-12.37-5.62-18.86-1.58-9.43-2.77-18.9-3.58-28.42h320.58Z"></path><path class="cls-1" d="M143.55,396.52c57.8-2.18,115.62-2.14,173.46.11,2.63,3.1-.4,7.68-3.28,10.54l-32.05,31.79c-3.56,3.53-7.61,7.28-12.62,7.46-4.78.04-8.98-3.19-10.16-7.82-.64-2.8-.07-5.82-1.07-8.57-1.9-5.23-8.65-6.77-14.23-6.43-22.45,1.37-37.32,30.83-59.89,24.68-10.13-2.76-18.5-12.31-24.62-20.29-1.93-2.46-16.71-31.43-15.53-31.47Z"></path></g><g id="character"><path class="cls-17" d="M174.67,115.34c-.93-3.34-.95-6.87-.08-10.23,1.04-3.47,2.85-6.66,5.29-9.35,0,0,4.04-1.41,7.36-.11,3.31,1.29-1.37,7.25-.95,10.08s3.14-5.05,4.76-4.37c1.62.69-2.49,11.55-5.55,12.91"></path><path class="cls-20" d="M260.32,271.73c-6.55,3.41-13.4,6.2-20.47,8.34-5.91,1.69-16.31,2.91-24.47,2.86-6.49,0-11.58-.85-11.92-2.86-.52-3.01-7.04-49.82-11.04-82.12-.67-5.37-1.28-10.34-1.73-14.65-1.06-9.24-1.61-15.4-1.25-15.77.7-.69,4.04-.24,7.71.58,5.12,1.09,10.86,2.86,10.86,2.86l19.03-.67s16.46,1.33,18.74,2.86c2.27,1.52,14.53,98.58,14.53,98.58Z"></path><path class="cls-20" d="M293.02,211.02c-.42,1.63-1.11,3.18-2.04,4.58h0c-1.79,2.4-3.7,1.79-5.71,1.79-3.61,0-24.9-4.88-33.17-8.37h0c-1.9-.79-3.12-1.52-3.27-2.09-.75-3.04-2.21-3.16-2.21-3.16l-3.06-31.68s4.55,1.51,6.8,4.55,44.94,26.8,42.66,34.38Z"></path><path class="cls-20" d="M207.44,204.79c-.1.7-.31,1.38-.64,2.01,0,0-10.15-2.67-14.37-8.86-.26-.36-.5-.73-.7-1.12-3.3-6.27-19.34-32.57-22.32-43.45v-.07c-.35-1-.51-2.06-.49-3.12.67-8.64,4.88-37.12,4.88-37.12,0,0,.46-2.33,5.95-1.61,1.76.17,3.44.83,4.85,1.9h0c.66.51,1.16,1.19,1.46,1.97l.49,33.39.61,1.12,9.96,18.26,6.2,11.31s5.66,17.53,4.12,25.38Z"></path><path class="cls-17" d="M268.99,428.62s3.21,12.1,4.7,12.98,6.75-1.9,9.78-4.11c3.04-2.21,1.96-6.89,1.96-6.89l-1.32-3.67-15.12,1.69Z"></path><path class="cls-17" d="M188.48,422.8s-5.84,16.45-5.25,18.08,7.73-.75,11.42-.51,5.19-5.56,5.19-5.56l1.33-3.66-12.69-8.35Z"></path><path class="cls-17" d="M206.51,161.84s2.27,9.85,1.51,13.64,5.28,14.4,12.9,14.4,7.61-12.88,7.61-14.4-2.27-2.27-1.51-6.06c.76-3.8-19.76-12.12-20.51-7.58Z"></path><path class="cls-18" d="M226.97,169.42c-.59,2.93.63,4.04,1.22,5.1-1.67,1.66-3.89,2.65-6.24,2.77-4.55,0-11.36-3.81-14.4-10.61-.06-.12-.1-.26-.16-.38-.43-2.5-.88-4.45-.88-4.45.75-4.55,21.21,3.79,20.46,7.58Z"></path><path class="cls-19" d="M208.16,174.07s6.11,14.28,11.32,15.81c0,0,1.43.76-2.37,3.04-3.8,2.27-14.4-9.1-12.88-17.44.33-2.17,1.78-4.01,3.81-4.83l.12,3.43Z"></path><path class="cls-19" d="M226.97,170.94s1.67,10.52-2.57,17.76c0,0,1.81,2.7,3.32,2.7s5.31-9.1,3.81-15.92c-.9-3.98-3.81-5.59-4.56-4.54Z"></path><path class="cls-16" d="M203.47,280.07l8.29,65.89-25.78,85.27s4.76,2.63,14.59,1.9l34.99-84.32.49-53.59,11.37,46.23,21.78,90.15s11.09,2.44,17.62-2.27l-14.39-87.86-12.13-69.76-56.84,8.35Z"></path><path class="cls-2" d="M203.47,280.07l8.29,65.89-25.78,85.27s4.76,2.63,14.59,1.9l34.99-84.32.49-53.59,11.37,46.23,21.78,90.15s11.09,2.44,17.62-2.27l-14.39-87.86-12.13-69.76-56.84,8.35Z"></path><path class="cls-19" d="M200.77,437.08c-.12,0-.23-.07-.28-.18-.07-.16,0-.34.15-.41,2.77-1.25,2.47-2.21,2.46-2.22-.05-.16.03-.33.18-.4.15-.06.32,0,.39.15.11.26.11.56,0,.82-.3.78-1.22,1.52-2.75,2.21-.05.02-.11.03-.16.03Z"></path><path class="cls-17" d="M231.51,139.87s1.52,19.7,0,25.01c-1.52,5.31-6.06,9.85-10.6,9.85s-11.42-3.81-14.4-10.61-4.55-23.5-3.81-25.77,5.34-9.43,17.44-8.34c8.39.76,11.37,6.82,11.37,9.86Z"></path><path class="cls-15" d="M203.63,149.57c.69,1.55,3.1,1.63,4.33.45,1.12-1.31,1.58-3.07,1.24-4.76-.22-1.69-.79-3.32-.89-5.02-.07-.39.03-.79.27-1.1.3-.25.7-.36,1.09-.3,2.28.06,4.98.95,6.58-.67.95-.95,1.24-2.66,2.52-3.12,1.06-.38,2.17.32,3.17.85,2.38,1.23,5.15,1.49,7.72.74.93-.07,1.63-.87,1.56-1.8,0-.11-.03-.22-.05-.32-.33-2.76-1.85-5.23-4.15-6.79-1.94-1.14-4.1-1.88-6.34-2.16-2.57-.47-5.17-.79-7.78-.95-1.39-.19-2.81,0-4.11.51-1.29.65-2.18,1.9-3.24,2.86-1.48,1.39-3.38,2.36-4.51,4.04-.95,1.36-2.92,1.32-3.62,4.66-.61,2.92-1.01,5.87-1.5,8.8s.72,5.97,1.33,8.88q1.27,6,3.44,8.04c1.31,1.12,2.76,2.05,4.33,2.76.54.37,1.21.51,1.86.38.62-.21.86-1.25.26-1.48"></path><path class="cls-17" d="M206.17,152.64s-.76-4.55-3.81-3.03.76,9.85,2.27,10.61c.68.42,1.47.64,2.27.64"></path><path class="cls-20" d="M279.42,215.37l-19.63-43.95s3.33-7.95,13.23-5.51c0,0,15.66,22.12,21.09,41.7,2.35,8.45-13.62,9.95-14.68,7.76Z"></path><circle class="cls-20" cx="231.95" cy="128.57" r="47.76"></circle><path class="cls-7" d="M279.28,134.95c-3.53,26.13-27.57,44.46-53.71,40.93-26.13-3.53-44.46-27.57-40.93-53.71,3.51-25.97,27.29-44.26,53.28-40.98l.39.05c26.14,3.52,44.48,27.56,40.96,53.7,0,0,0,.01,0,.02Z"></path><path class="cls-8" d="M279.28,134.95c-2.88,21.27-19.6,38.01-40.87,40.92h-.38c-26.15-3.53-44.48-27.6-40.94-53.74,2.88-21.27,19.58-38.01,40.84-40.93l.39.05c26.14,3.52,44.48,27.56,40.96,53.7,0,0,0,0,0,0Z"></path><path class="cls-20" d="M209.31,142.37l48.22-.22s-3.01,19.03-23.48,18.95c-24.24-.1-24.74-18.73-24.74-18.73Z"></path><path class="cls-6" d="M209.31,142.37l48.22-.22s-3.01,19.03-23.48,18.95c-24.24-.1-24.74-18.73-24.74-18.73Z"></path><path class="cls-20" d="M205.74,119.3c-.13-2.35.65-4.65,2.18-6.43,1.66-1.78,4.1-2.66,7.21-2.64s5.71.95,7.38,2.78c1.41,1.64,2.13,3.75,2.03,5.9l-2.45-.21c.04-1.46-.47-2.89-1.41-4.01-1.18-1.28-3.05-1.9-5.57-1.96s-4.24.6-5.4,1.85c-1.05,1.28-1.6,2.9-1.53,4.56l-2.45.16Z"></path><path class="cls-12" d="M205.74,119.3c-.13-2.35.65-4.65,2.18-6.43,1.66-1.78,4.1-2.66,7.21-2.64s5.71.95,7.38,2.78c1.41,1.64,2.13,3.75,2.03,5.9l-2.45-.21c.04-1.46-.47-2.89-1.41-4.01-1.18-1.28-3.05-1.9-5.57-1.96s-4.24.6-5.4,1.85c-1.05,1.28-1.6,2.9-1.53,4.56l-2.45.16Z"></path><path class="cls-20" d="M238.21,118.99c-.12-2.34.66-4.65,2.18-6.43,1.66-1.78,4.1-2.67,7.21-2.64s5.71.95,7.39,2.78c1.41,1.63,2.13,3.75,2.02,5.9l-2.45-.21c.06-1.48-.45-2.93-1.41-4.05-1.17-1.28-3.05-1.9-5.57-1.96s-4.23.59-5.4,1.85c-1.05,1.28-1.6,2.9-1.53,4.56l-2.45.21Z"></path><path class="cls-13" d="M238.21,118.99c-.12-2.34.66-4.65,2.18-6.43,1.66-1.78,4.1-2.67,7.21-2.64s5.71.95,7.39,2.78c1.41,1.63,2.13,3.75,2.02,5.9l-2.45-.21c.06-1.48-.45-2.93-1.41-4.05-1.17-1.28-3.05-1.9-5.57-1.96s-4.23.59-5.4,1.85c-1.05,1.28-1.6,2.9-1.53,4.56l-2.45.21Z"></path><path class="cls-17" d="M266.16,151.15c-.4-.66-.97-1.19-1.66-1.54-.85-.28-1.78-.24-2.6.13-2.82,1.11-4.82,3.66-5.22,6.66-.24,2.11.35,4.23.4,6.35.03.43-.03.87-.19,1.28-.42.68-1.01,1.23-1.72,1.59-.65.46-1.28,1.19-1.08,1.95.3.7.97,1.16,1.73,1.19.74.02,1.47.18,2.15.48.3.26.65.46,1.02.61.28.04.57.01.84-.08l8.2-2.01c3.72-.9,2.94-3.85,2.31-6.96-.7-3.48-2.13-6.76-4.19-9.65Z"></path><path class="cls-16" d="M302.26,439.44c.59.31,1.09.78,1.45,1.35.7,1.4-.42,3.05-1.7,3.96-2.11,1.31-4.47,2.15-6.94,2.46-6.86,1.25-13.85,1.6-20.8,1.05-.63,0-1.26-.17-1.81-.49-.52-.44-.9-1.02-1.08-1.67-.8-2.23-1.07-4.61-.8-6.97-.1.79,7.74-1.28,8.37-1.58,2.15-1.04,4.36-4.33,6.51-4.83s5.88,2.1,7.96,2.86c3.07.99,6.04,2.29,8.85,3.87Z"></path><path class="cls-16" d="M214.34,443.98c.55.38.99.91,1.26,1.52.52,1.48-.81,2.97-2.2,3.7-2.26,1.03-4.72,1.55-7.2,1.54-6.96.35-13.94-.2-20.76-1.66-.63-.08-1.23-.32-1.73-.7-.46-.5-.76-1.13-.86-1.8-.5-2.32-.47-4.72.11-7.01-.19.77,7.83-.27,8.5-.49,2.27-.76,4.88-3.73,7.08-3.95s5.56,2.86,7.51,3.87c2.92,1.38,5.7,3.04,8.29,4.97Z"></path><path class="cls-11" d="M302.26,439.44c.59.31,1.09.78,1.45,1.35.7,1.4-.42,3.05-1.7,3.96-2.11,1.31-4.47,2.15-6.94,2.46-6.86,1.25-13.85,1.6-20.8,1.05-.63,0-1.26-.17-1.81-.49-.52-.44-.9-1.02-1.08-1.67-.8-2.23-1.07-4.61-.8-6.97-.1.79,7.74-1.28,8.37-1.58,2.15-1.04,4.36-4.33,6.51-4.83s5.88,2.1,7.96,2.86c3.07.99,6.04,2.29,8.85,3.87Z"></path><path class="cls-9" d="M214.34,443.98c.55.38.99.91,1.26,1.52.52,1.48-.81,2.97-2.2,3.7-2.26,1.03-4.72,1.55-7.2,1.54-6.96.35-13.94-.2-20.76-1.66-.63-.08-1.23-.32-1.73-.7-.46-.5-.76-1.13-.86-1.8-.5-2.32-.47-4.72.11-7.01-.19.77,7.83-.27,8.5-.49,2.27-.76,4.88-3.73,7.08-3.95s5.56,2.86,7.51,3.87c2.92,1.38,5.7,3.04,8.29,4.97Z"></path><path class="cls-10" d="M215.39,282.94c-6.49,0-11.58-.85-11.92-2.86-.52-3.01-7.04-49.82-11.04-82.12-.26-.36-.5-.73-.7-1.12-3.3-6.27-19.34-32.57-22.32-43.45,5.88,10.88,12.44,21.43,21.29,29.92.36.4.73.73,1.12,1.09,4.12,3.81,8.74,7.13,11.86,11.76,1.75,2.64,3.04,5.57,3.81,8.64,1.85,7.16,1.51,15.13,1.58,22.66.1,15.56,10.11,38.73,6.32,55.46Z"></path><path class="cls-5" d="M293.64,211.97c-1.32.83-2.27,2.12-2.66,3.63h0c-1.79,2.4-3.7,1.79-5.71,1.79-3.61,0-24.9-4.88-33.17-8.37h0c-1.46-2.73-2-6.1-1.69-10.47,12.3,4.35,24.89,7.81,37.69,10.36,1.09.21,5.56-.13,6.2.77.39.62-.1,1.86-.65,2.28Z"></path><path class="cls-3" d="M274.3,197.15c1.58,1.35,3.53,2.62,5.59,2.31.49-1.47-.39-3-1.24-4.28-2.58-3.75-4.76-7.76-6.51-11.96-1.76-4.56-2.63-9.52-5.06-13.72-.24-.72-.99-1.13-1.73-.95-1.62.1-3.23.31-4.83.61-.48.09-1.04.26-1.17.72-.03.34.07.68.27.95,5.08,8.96,6.71,19.49,14.68,26.32Z"></path><path class="cls-4" d="M188.37,154.25c-2.79-2.46-5.77-5.16-6.59-8.77-.24-1.45-.32-2.93-.24-4.4.21-6.61.48-13.22.82-19.83.09-1.67-.54-7.61,1.54-7.98.24-.02.48,0,.7.07h0c.66.51,1.16,1.19,1.46,1.97l.49,33.39.61,1.12c.26,1.51.66,2.99,1.21,4.43Z"></path></g></svg>