<svg transform="scale(1)" id="_0108_hero_employee" xmlns="http://www.w3.org/2000/svg" xmlns:xlink="http://www.w3.org/1999/xlink" viewBox="0 0 500 500" class="show_show__wrapper__graphic__5Waiy "><title>React</title><defs><style>.cls-1{fill:url(#linear-gradient);}.cls-1,.cls-2,.cls-3,.cls-4,.cls-5,.cls-6,.cls-7,.cls-8,.cls-9,.cls-10,.cls-11,.cls-12,.cls-13,.cls-14,.cls-15{stroke-width:0px;}.cls-2{isolation:isolate;opacity:.18;}.cls-2,.cls-15{fill:#68e1fd;}.cls-3{fill:url(#linear-gradient-10);}.cls-4{fill:url(#linear-gradient-4);}.cls-5{fill:url(#linear-gradient-2);}.cls-6{fill:url(#linear-gradient-3);}.cls-7{fill:url(#linear-gradient-8);}.cls-8{fill:url(#linear-gradient-9);}.cls-9{fill:url(#linear-gradient-7);}.cls-10{fill:url(#linear-gradient-5);}.cls-11{fill:url(#linear-gradient-6);}.cls-12{fill:#3e3e54;}.cls-13{fill:#fff;}.cls-14{fill:#ffb4a3;}</style><linearGradient id="linear-gradient" x1="705.16" y1="1448.69" x2="789.88" y2="1448.69" gradientTransform="translate(-500.42 1781.06) scale(1 -1)" gradientUnits="userSpaceOnUse"><stop offset="0" stop-color="#000" stop-opacity="0"></stop><stop offset=".99" stop-color="#000"></stop></linearGradient><linearGradient id="linear-gradient-2" x1="665.44" y1="1544.97" x2="802.94" y2="1627.47" xlink:href="#linear-gradient"></linearGradient><linearGradient id="linear-gradient-3" x1="659.87" y1="1497.04" x2="767.59" y2="1682.7" xlink:href="#linear-gradient"></linearGradient><linearGradient id="linear-gradient-4" x1="850.48" y1="1616.04" x2="668.67" y2="1565.62" xlink:href="#linear-gradient"></linearGradient><linearGradient id="linear-gradient-5" x1="804.13" y1="1581.36" x2="809.05" y2="1601.65" gradientTransform="translate(-500.42 1781.06) scale(1 -1)" gradientUnits="userSpaceOnUse"><stop offset="0" stop-color="#000" stop-opacity="0"></stop><stop offset=".72" stop-color="#000" stop-opacity=".51"></stop><stop offset=".99" stop-color="#000"></stop></linearGradient><linearGradient id="linear-gradient-6" x1="708.54" y1="1569.71" x2="1040.59" y2="1507.12" xlink:href="#linear-gradient"></linearGradient><linearGradient id="linear-gradient-7" x1="775.14" y1="1607.96" x2="800.2" y2="1592.17" xlink:href="#linear-gradient"></linearGradient><linearGradient id="linear-gradient-8" x1="753.33" y1="1578.32" x2="749.47" y2="1465.51" xlink:href="#linear-gradient"></linearGradient><linearGradient id="linear-gradient-9" x1="667.92" y1="1515.38" x2="738.61" y2="1452.22" xlink:href="#linear-gradient"></linearGradient><linearGradient id="linear-gradient-10" x1="657.61" y1="1583.76" x2="648.78" y2="1608.53" gradientTransform="translate(-500.42 1781.06) scale(1 -1)" gradientUnits="userSpaceOnUse"><stop offset=".02" stop-color="#fff" stop-opacity="0"></stop><stop offset="1" stop-color="#fff"></stop></linearGradient></defs><path class="cls-2" id="background" d="M279.11,454.82c19.75-10.9,37.11-25.84,56.95-36.49,25.15-13.4,53.53-19.53,81.96-17.71,7.9.52,16.12,1.61,23.53-1.19,6.65-2.52,11.79-7.9,16.17-13.5,24.83-31.69,31.73-76.57,17.55-114.26-5.13-13.66-12.85-26.51-15-40.99-4.95-33.25,20.62-65.18,16.63-98.56-2.76-22.98-19.98-42.67-41.1-52.04-21.12-9.37-45.57-9.32-67.95-3.7-24.44,6.12-46.91,18.47-71.13,25.45-45.82,13.13-94.84,6.2-142.08,12.17-47.25,5.97-98.82,31.94-108.18,78.68-5.65,28.23,5.51,58.11-1.68,85.98-6.05,23.44-24.39,42.5-29.16,66.25-12.72,63.81,59.2,81.73,99.76,105.27,49.61,28.79,112.77,32.76,163.73,4.63Z"></path><g id="character"><path class="cls-12" d="M288.95,327.58c.5,4.59.98,9.34-.4,13.78-2.44,7.8-10.02,12.72-17.32,16.39-14.72,7.4-30.62,12.54-45.97,18.6-5.15,2.05-10.92,4.93-12.15,10.33-.55,2.42-.07,5.02-.93,7.33s-4.14,4.01-5.75,2.12c-.6-.88-.9-1.94-.85-3.01l-.67-12.34c-.22-4.12-.45-8.33.59-12.34s3.53-7.85,7.34-9.46c1.28-.53,2.66-.81,3.97-1.31,4.84-1.88,7.79-6.65,10.71-10.95,6.86-10.1,15.91-19.53,27.57-22.97-7.4-11.4-9.73-25.36-6.43-38.54,1.71-6.64,5.16-13.24,11.11-16.65,4.67-2.66,10.41-2.59,15.01.18,5.3,3.42,6.08,9.62,7.48,15.34,3.53,14.28,5.11,28.92,6.68,43.51Z"></path><path class="cls-1" d="M288.95,328.13c.5,4.6.98,9.34-.4,13.78-2.44,7.8-10.02,12.72-17.32,16.4-14.72,7.43-30.62,12.55-45.97,18.64-5.15,2.04-10.92,4.92-12.15,10.33-.55,2.41-.07,5.02-.93,7.33s-4.14,4-5.75,2.12c-.6-.88-.9-1.94-.85-3.01l-.67-12.34c-.22-4.14-.45-8.33.59-12.34s3.53-7.85,7.34-9.46c1.28-.54,2.66-.81,3.97-1.31,4.84-1.89,7.79-6.66,10.71-10.95,6.86-10.1,15.91-19.53,27.57-22.97-7.4-11.4-9.73-25.37-6.43-38.55,1.71-6.64,5.16-13.23,11.11-16.64,4.67-2.66,10.41-2.59,15.01.18,5.3,3.42,6.08,9.62,7.48,15.34,3.53,14.27,5.11,28.89,6.68,43.45Z"></path><path class="cls-12" d="M262.29,270.43c0,9.49-2.26,18.84-6.6,27.28-2.26,4.38-5.08,8.56-6.36,13.29-8.73,31.23-44.13,48.56-70.55,68.32-10.73,8.02-22.51,16.16-27.31,28.46-.65,1.68-1.3,3.56-2.94,4.4-2.34,1.19-5.3-.75-6.14-3.18s-.11-5.08.6-7.56l3.77-13.22c.31-1.51.96-2.93,1.89-4.16,1.13-1.05,2.41-1.92,3.81-2.58,9.73-5.66,12.8-17.61,17.87-27.45,5.82-11.16,14.83-20.34,25.88-26.37,2.93-1.6,6.07-3.03,8.31-5.46,2.25-2.43,3.5-5.94,4.61-9.19,3.73-10.86,8.01-21.52,12.82-31.94,1.92-4.17,13.01-23.33,16.25-26.67,8.32-8.54,16.02,7.24,24.08,16.03Z"></path><path class="cls-15" d="M302.59,189.42c0,1.35-.1,2.74-.1,4.14,0,4.49-.42,9.43-3.61,12.59-2.43,2.41-5.95,3.24-9.19,4.3-23.5,7.68-38.51,30.36-59.32,43.7-4.41,2.82-9.54,5.3-14.64,4.72-.62-.06-1.23-.18-1.83-.34-3.35-.87-6.16-3.11-9.36-4.39-6.36-2.53-13.52-1.12-19.92,1.17s-12.61,5.41-19.35,6.36-14.44-.85-18.21-6.52c-2.04-3.1-2.65-6.9-4.24-10.24-5.81-12.06-22.52-15.01-29.9-26.11-.13-.19-.27-.39-.38-.59-1.1-1.79-1.92-3.73-2.42-5.77-.15-.55-.27-1.1-.36-1.66-.7-4.03-.28-8.18,1.22-11.99l.19-.5c2.82-6.4,8.26-11.28,14.93-13.4,9.21-2.89,19.16-.35,28.82-.53,10.12-.19,20.24-3.4,30.2-1.66,7.76,1.35,14.84,5.61,21.95,9.11,5.91,2.89,11.88,5.3,18.39,5.09,5.79-.16,11.31-2.41,16.52-4.97,9.54-4.69,18.61-10.54,28.63-14.23,7.5-2.77,15.82-4.24,23.76-2.83,8.42,1.55,8.43,7.48,8.23,14.58Z"></path><path class="cls-5" d="M288.07,200.24c-2.22,2.61-5.64,3.76-8.79,5.1-14.07,5.99-17.23,23.97-27.71,35.39-6.46,7.03-27.28,15.52-27.57,13.25-.43-3.13-5.3,3.75-8.24,4.87-.62-.06-1.23-.18-1.83-.34-3.35-.87-6.16-3.11-9.36-4.39-6.36-2.53-13.52-1.12-19.92,1.17-6.4,2.29-12.61,5.41-19.35,6.36-6.74.95-14.44-.85-18.21-6.52-2.04-3.1-2.65-6.9-4.24-10.24-3.86-8.03-12.55-12.01-20.15-17.06-3.84-2.33-7.16-5.4-9.79-9.04-.13-.19-.27-.39-.38-.59-1.1-1.79-1.92-3.73-2.42-5.77,2.4-2.6,5.34-4.64,8.61-5.99,8.93-3.7,19.09-2.03,28.63-3.05,10.06-1.06,19.87-5.13,29.94-4.24,14.34,1.23,27.12,12.3,41.35,10.66,5.77-.67,11.07-3.39,16.03-6.36,9.13-5.49,17.62-12.11,27.26-16.66,7.22-3.39,15.39-5.62,23.43-4.87,1.71.11,3.37.6,4.87,1.42.08,1.34.14,2.73.27,4.11.46,4.41.46,9.37-2.44,12.8Z"></path><path class="cls-6" d="M259.7,230.79c-6.46,7.03-25.28,19.46-32.74,25.2-2.5,1.94-8.26,1.75-11.21,2.86-.62-.06-1.23-.18-1.83-.34-3.35-.87-6.16-3.11-9.36-4.39-6.36-2.53-13.52-1.12-19.92,1.17s-12.61,5.41-19.35,6.36c-6.74.95-14.44-.85-18.21-6.52-2.04-3.1-2.65-6.9-4.24-10.24-3.86-8.03-12.55-12.01-20.15-17.06,1.29-1.01,3.06-1.17,4.51-.4,7.49,5.11,17.61,3.41,26.15.37,8.54-3.04,17.06-7.27,26.09-6.68,10.18.66,18.98,7.36,28.94,9.67,7.28,1.66,14.91.92,21.74-2.12,3.72-1.65,20.21-17.38,23.5-14.98,1.21.88,13.78-6.66,14.2-5.22.32,1.11-8.1,21.2-8.1,22.32Z"></path><path class="cls-13" d="M378.39,138.32c1.27,1.35,1.6,3.33.85,5.03-.76,1.64-1.85,3.11-3.18,4.33-11.04,11.31-26.02,21.72-37.04,33.02-5.77,5.93-7.08,7.07-13.19,12.66-4,3.66-8.15,7.2-11.47,11.48-3.02,3.92-5.74,14.06-7.96,18.48l-11.17,22.27c-3.82,7.59-7.66,15.23-12.72,22.04-.88,1.38-2.09,2.53-3.51,3.34-1.4.56-2.9.83-4.41.81-7.8.45-15.8,1.74-23.33-.41-7.53-2.15-14.41-9.21-13.12-16.97.62-2.64,1.7-5.15,3.18-7.42l13.5-23.8c4.07-7.17,8.13-14.34,12.34-21.43,3.3-5.55,6.78-11.15,11.75-15.27,4.39-3.64,9.7-5.92,14.94-8.15,11.1-4.75,22.27-8.96,32.53-15.32,10.43-6.49,21.31-12.21,32.56-17.14,6.38-2.78,12.86-5.29,19.45-7.54Z"></path><path class="cls-4" d="M324.18,179.18c1.38-1.3,1.6-3.38,2.46-5.07,1.22-2.4,3.65-3.87,5.92-5.3,8.84-5.67,16.81-12.61,23.63-20.59-9.79,2.49-18.37,8.25-26.72,13.91l-13.94,9.44c-5.53,3.75-11.15,7.57-15.42,12.72-.36.38-.62.85-.73,1.36-.18,1.28,1.21,2.12,2.24,2.93,4.37,3.4,7.6,5.43,9.82-.89.92-2.64,1.92-4.24,4.54-5.6,2.62-1.36,6.12-.93,8.21-2.91Z"></path><path class="cls-10" d="M302.11,198c1.4.49,2.73,1.18,3.93,2.04.57.42,1.19.78,1.84,1.06.66.28,1.41.28,2.07,0,.14-.07.25-.17.33-.31.07-.19.07-.39,0-.58-.83-2.51-1.9-4.94-3.18-7.25-.14-.29-.34-.55-.57-.77-.4-.26-.86-.41-1.34-.42-1.38-.15-2.77-.12-4.15.1-.79.09-1.53.42-2.12.94-.42.5-.71,1.1-.82,1.74-.31,1.09-.39,2.24-.22,3.36.66,0,1.37-.29,2.07-.29.73.03,1.46.16,2.15.39Z"></path><path class="cls-11" d="M285.08,187.61c-1.1,2.69-1.66,5.57-1.64,8.48-.24,2.12.04,4.27.82,6.26.06.16.16.29.29.39.22.1.47.13.71.06,1.33-.18,2.68-.11,3.98.21.09.01.17.06.23.12.07.07.11.17.12.27l.49,2.52c1.87,9.54-1.47,20.34-9.25,26.2-2.62,1.77-5.43,3.25-8.37,4.42-5.11,2.36-10.12,5.3-13.88,9.45-3.76,4.15-6.2,9.86-5.49,15.46,7.08-3.59,13.35-8.58,18.44-14.66,3.62-4.34,6.65-9.25,11.01-12.83,2.58-2.12,5.59-3.74,7.8-6.25,4.24-4.77,4.76-11.66,5.08-18.03.43-8.91.24-19.27-6.74-24.79-.71.43-3.2,1.9-3.58,2.71Z"></path><path class="cls-14" d="M388.11,126.86c1.95-.64,4.24-.89,5.92.29.98.77,1.72,1.82,2.12,3,1.06,2.74,1.19,6.12-.68,8.4-1.25,1.31-2.78,2.31-4.47,2.93-3.45,1.73-7.09,3.07-10.84,4.01-2.27.49-5.73.6-6.92-1.93-1.06-2.25,1.19-4.73,2.42-6.44,3.19-4.39,7.19-8.5,12.46-10.25Z"></path><path class="cls-13" d="M231.83,208.39c-6.1,3.39-12.34,7.22-15.84,13.24-3.27,5.62-3.7,12.43-3.58,18.93.05,7.17.91,14.31,2.58,21.28.19.77.51,1.65,1.26,1.9.56.1,1.15,0,1.63-.31,4.85-2.39,8.42-6.78,9.77-12.02.46-1.86.63-3.76.96-5.63.89-4.14,2.2-8.17,3.91-12.05.59-1.75,1.48-3.38,2.63-4.82,1.26-1.25,2.71-2.28,4.32-3.03,8.8-4.81,17.69-9.48,26.66-14,3.34-1.52,6.5-3.42,9.41-5.67,2.93-2.28,4.93-5.54,5.64-9.18.54-3.59,3.26-11.66-1.39-11.37s-14.17,4.35-18.35,6.17c-10.37,4.56-19.75,11.06-29.59,16.56Z"></path><path class="cls-13" d="M282.13,192.13c-.31,1.81-.77,3.66-.95,4.94-.72,3.64-2.72,6.89-5.64,9.17-2.91,2.25-6.06,4.15-9.41,5.67-8.96,4.52-17.84,9.18-26.66,14-1.6.76-3.06,1.79-4.32,3.03-1.16,1.44-2.05,3.07-2.63,4.82-1.71,3.87-3.02,7.91-3.91,12.05-.34,1.87-.51,3.77-.98,5.63-1.36,5.23-4.92,9.62-9.76,12.02-.49.3-1.07.41-1.63.3-.75-.23-1.06-1.12-1.25-1.89-1.67-6.99-2.54-14.14-2.59-21.32-.13-6.51.32-13.3,3.58-18.93,3.51-6.03,9.76-9.86,15.83-13.24,9.88-5.5,19.23-12,29.6-16.52,4.24-1.81,13.78-5.84,18.35-6.18,3-.19,2.94,3.1,2.34,6.45Z"></path><path class="cls-15" d="M275.36,187.09c2.44,2.42,5.09,4.61,7.93,6.54,2.86,1.96,6.29,2.9,9.74,2.66.6-.07,1.33-.29,1.47-.88s-.42-1.16-.91-1.55c-2.65-2.12-4.8-5.23-4.82-8.63,0-1.63.43-3.38-.37-4.8-1.06-1.77-3.44-2.05-5.48-1.95-2.05.09-4.09.35-6.1.76-1.7.35-15.37,6.43-13.66,6.85.29.07,6.88-3.91,12.19,1Z"></path><path class="cls-9" d="M275.87,182.51c-.66-.22-1.29-.53-1.86-.93-.58-.41-.87-1.12-.74-1.81.11-.37.32-.7.6-.96,2.04-2.12,5.09-2.94,7.99-3.49,4.19-.8,8.8-1.22,12.47.94.47.28.96.71.88,1.25-.08.3-.25.56-.5.75-1.54,1.44-3.37,2.48-4.98,3.83-1.61,1.35-2.34,3.53-3.88,4.88-2.89,2.53-7.14-3.3-9.99-4.45Z"></path><path class="cls-7" d="M282.13,192.13c-.31,1.81-.77,3.66-.95,4.94-.72,3.64-2.72,6.89-5.64,9.17-2.91,2.25-6.06,4.15-9.41,5.67-8.96,4.52-17.84,9.18-26.66,14-1.6.76-3.06,1.79-4.32,3.03-1.16,1.44-2.05,3.07-2.63,4.82-1.71,3.87-3.02,7.91-3.91,12.05-.34,1.87-.51,3.77-.98,5.63-.69,2.74-2,5.28-3.84,7.42-.66-4.6-1.02-9.23-1.06-13.88-.12-6.5.32-13.31,3.58-18.93,3.5-6.02,9.74-9.85,15.84-13.25,9.88-5.49,19.22-11.99,29.59-16.5,2.34-1.07,6.44-2.81,10.37-4.18Z"></path><path class="cls-12" d="M204.46,274.79c2.93-3.76,7.4-6,12.16-6.09,2.17-.31,4.38-.1,6.46.6,3.2,1.34,5.29,4.47,5.3,7.94.02,1.17-.35,2.31-1.06,3.24-.72.94-1.94,1.36-3.1,1.06-.34-.09-.61-.33-.73-.66-.05-.19-.05-.38,0-.57.36-1.62.24-3.31-.33-4.87-.59-1.58-1.92-2.77-3.55-3.18-1.46-.11-2.94.01-4.36.37-2.12.65-5.76,2.12-7,3.91s-1.34,4.85-3.23,6.19c-1.28.9-3.34,1.52-4.24-.45-.9-1.96,2.45-6.13,3.68-7.52Z"></path><path class="cls-13" d="M310.4,195.64c.11.47.15,1.06-.23,1.33-.35.21-.79.21-1.15,0-1.78-.82-3.03-2.67-4.95-3.09-1.18-.1-2.36-.1-3.53,0-1.18-.06-2.52-.78-2.56-1.96,0-.92.74-1.64,1.44-2.25,1.25-1.06,2.4-2.26,3.61-3.37,1.51-1.38,1.79-1.42,3.04.28,2.02,2.71,3.49,5.79,4.33,9.07Z"></path><path class="cls-15" d="M292.36,194.9c-.17.06-.31.17-.42.31-.08.15-.11.32-.08.49.12,1.32.62,2.58,1.44,3.63.77,1.06,1.69,2.04,2.4,3.18,2.26-1.1,3.73-3.35,3.84-5.86.09-.95-.21-1.89-.83-2.62-1.61-1.7-4.72.1-6.34.88Z"></path><path class="cls-15" d="M293.08,214.52c-.34,3.71-1.91,7.21-4.45,9.94-1.93,1.79-4.22,3.16-6.71,4.01-5.12,1.96-10.6,2.79-15.91,4.06-5.3,1.27-10.71,3.06-14.91,6.61-5.63,4.76-8.48,12.07-10.09,19.25l9.45-1.06c.56-.02,1.11-.17,1.61-.41.56-.4,1.01-.94,1.3-1.57,3.38-5.78,7.71-11.14,13.31-14.84,5.19-3.39,11.23-5.21,16.77-7.95,5.55-2.75,10.93-6.87,12.78-12.79.63-2.26.94-4.6.93-6.95.08-3.11,0-6.22-.18-9.33,0-2.13-.49-4.24-1.44-6.15-1.25,2.67-2.79,4.92-2.5,7.89.35,3.09.37,6.21.04,9.31Z"></path><path class="cls-14" d="M218.35,257.28c-1.35.95-2.38,2.3-2.94,3.86-1.56,3.3-3.18,6.87-2.59,10.48.12.96.51,1.87,1.13,2.62,1.01.97,2.41,1.41,3.8,1.21,1.36-.22,2.68-.67,3.88-1.35,2.31-1.16,4.73-2.66,5.58-5.1.72-2.12.11-4.39-.5-6.52-.4-1.39-1.06-5.47-2.41-6.21-1.1-.57-4.9.43-5.96,1.02Z"></path><path class="cls-12" d="M241.48,277.41c.81-.07,1.63.03,2.4.3.71.36,1.32.9,1.75,1.57,1.66,2.5,2.41,5.5,2.12,8.48-.3,2.96-.94,5.88-1.91,8.69l-6.36,21.21c-.47,2.12-1.43,4.09-2.8,5.77-2.41,2.5-6.25,2.8-9.71,2.88-14.44.37-28.89-.27-43.31-1.06-3.43-.01-6.83-.58-10.07-1.68-1.91-.76-3.8-2.12-4.35-4.05-.21-.94-.24-1.91-.1-2.86.39-2.94.96-5.84,1.72-8.71,1.61-6.65,3.24-13.36,6.17-19.55.84-2.05,2.14-3.9,3.79-5.39,1.05-.82,2.23-1.48,3.49-1.93,6.04-2.32,12.49-.84,18.78-1.44,8.24-.79,16.49-1.37,24.75-1.75,4.53-.25,9.08-.41,13.66-.49Z"></path><path class="cls-8" d="M239.93,277.6c.81-.07,1.63.03,2.4.3.72.36,1.32.9,1.76,1.57,1.65,2.5,2.4,5.5,2.12,8.48-.31,2.96-.95,5.88-1.92,8.69l-6.36,21.21c-.47,2.12-1.43,4.09-2.8,5.77-2.41,2.5-6.25,2.8-9.71,2.89-14.44.36-28.88-.28-43.31-1.06-3.43-.01-6.83-.58-10.07-1.68-1.9-.76-3.8-2.12-4.35-4.05-.21-.94-.24-1.91-.08-2.86.38-2.93.95-5.84,1.71-8.71,1.61-6.65,3.24-13.36,6.17-19.55.85-2.05,2.14-3.89,3.79-5.39,1.05-.82,2.23-1.47,3.49-1.92,6.04-2.33,12.49-.85,18.79-1.45,8.23-.79,16.47-1.37,24.74-1.75,4.53-.24,9.08-.41,13.66-.5Z"></path><path class="cls-14" d="M299.85,170.05c.34-.37.59-.8.75-1.27.09-.45.09-.91,0-1.36-.47-2.87-1.41-5.72-1.22-8.63.25-3.12,1.68-6.02,3.99-8.13,2.31-2.07,5.2-3.38,8.28-3.75,2-.36,4.06-.03,5.84.93,2.35,1.45,3.44,4.24,4.06,6.96.63,2.71,1.01,5.53,2.52,7.84.41.63.94,1.35.72,2.12-.14.32-.32.62-.55.88-1.61,2.35.31,5.96-1.34,8.29-.42.54-.95.99-1.56,1.3-2.61,1.42-5.78,1.22-8.61,2.12-2.71.98-5.1,2.67-6.93,4.89-1.91,2.12-3.48,4.55-5.21,6.83-1.36,2.28-3.98,3.48-6.6,3.01-1.73.33-3.39-.81-3.71-2.54,0-.01,0-.03,0-.04-.63-1.57-1.01-3.23-1.12-4.92-.08-3.34,1.89-4.49,3.9-6.68,2.36-2.56,4.62-5.17,6.79-7.85Z"></path><path class="cls-12" d="M315.12,141.96c-2.23-1.11-4.77-1.44-7.21-.96-1.47.15-2.91.56-4.24,1.21-3.75,1.93-5.65,6.29-9.19,8.58-1.28.84-2.79,1.4-3.8,2.54-.99,1.11-1.38,2.62-1.06,4.07.22.55.31,1.15.28,1.74-.22.62-.58,1.19-1.06,1.64-1.24,1.63-1.31,3.87-.17,5.57,1.46,2.12,4.36,2.66,6.08,4.53.88.95,1.59,2.31,2.88,2.47.9,0,1.76-.36,2.4-.99,1.77-1.4,3.4-3.3,3.54-5.56,0-.77-.1-1.56,0-2.33.01-.79.43-1.52,1.11-1.93.87-.29,1.83-.05,2.45.63.66.6,1.12,1.39,1.77,2,.05.06.12.1.19.11.07,0,.14-.04.19-.1.66-.78.82-1.87.42-2.81-.41-.92-.69-1.89-.83-2.88.07-1.33.71-2.57,1.76-3.39.99-.87,2.12-1.53,3.18-2.39,1.65-1.42,3.75-4.04,4.24-6.22s-1.1-4.46-2.94-5.52Z"></path><path class="cls-13" d="M293.91,190.41c.81.78,1.81,1.88,1.24,2.85s-1.75.71-2.74.61c-1.55-.22-3.12.22-4.33,1.21-1.52,1.42-1.82,3.94-3.63,4.99-.84-5.16-.81-10.43.08-15.59.12-.78.32-1.54.59-2.28.62-1.26,1.45-2.4,2.46-3.37,1.41-1.06,3.3-1.2,4.85-.35,0,0-2.38,3.52-2.24,4.62.39,2.78,1.69,5.34,3.7,7.3Z"></path><path class="cls-3" d="M208.8,196.23c0,2.65-3.33,4.17-5.94,3.65s-4.77-2.25-7.16-3.39c-7.85-3.75-17.05-.73-25.73-.65-10.6.12-20.97-4.32-31.62-4.12-7.45.15-14.68,2.55-20.74,6.87-.64.36-1.24.8-1.78,1.3-.29.32-3.18,5.73-6.09,10.86-.7-4.03-.28-8.18,1.22-11.99l.19-.5c2.83-6.4,8.27-11.28,14.94-13.39,9.21-2.89,19.16-.35,28.82-.53,10.12-.19,20.24-3.4,30.2-1.66,7.76,1.35,14.84,5.61,21.95,9.11.38.67.72,1.35,1.06,2.04.4.75.63,1.57.68,2.42Z"></path></g></svg>