<svg transform="scale(1)" id="_0391_hiking_2" xmlns="http://www.w3.org/2000/svg" xmlns:xlink="http://www.w3.org/1999/xlink" viewBox="0 0 500 500" class="show_show__wrapper__graphic__5Waiy "><title>React</title><defs><style>.cls-1{clip-path:url(#clippath);}.cls-2{fill:none;}.cls-2,.cls-3,.cls-4,.cls-5,.cls-6,.cls-7,.cls-8,.cls-9,.cls-10,.cls-11,.cls-12,.cls-13,.cls-14,.cls-15,.cls-16,.cls-17,.cls-18,.cls-19,.cls-20,.cls-21,.cls-22,.cls-23,.cls-24,.cls-25,.cls-26,.cls-27,.cls-28,.cls-29,.cls-30,.cls-31,.cls-32,.cls-33,.cls-34,.cls-35,.cls-36,.cls-37{stroke-width:0px;}.cls-3{fill:url(#linear-gradient);}.cls-4{fill:url(#linear-gradient-29);}.cls-5{fill:url(#linear-gradient-32);}.cls-6{fill:url(#linear-gradient-30);}.cls-7{fill:url(#linear-gradient-31);}.cls-8{fill:url(#linear-gradient-28);}.cls-9{fill:url(#linear-gradient-25);}.cls-10{fill:url(#linear-gradient-11);}.cls-11{fill:url(#linear-gradient-12);}.cls-12{fill:url(#linear-gradient-13);}.cls-13{fill:url(#linear-gradient-10);}.cls-14{fill:url(#linear-gradient-17);}.cls-15{fill:url(#linear-gradient-16);}.cls-16{fill:url(#linear-gradient-19);}.cls-17{fill:url(#linear-gradient-15);}.cls-18{fill:url(#linear-gradient-23);}.cls-19{fill:url(#linear-gradient-21);}.cls-20{fill:url(#linear-gradient-18);}.cls-21{fill:url(#linear-gradient-14);}.cls-22{fill:url(#linear-gradient-22);}.cls-23{fill:url(#linear-gradient-20);}.cls-24{fill:url(#linear-gradient-27);}.cls-25{fill:url(#linear-gradient-24);}.cls-26{fill:url(#linear-gradient-26);}.cls-27{isolation:isolate;opacity:.42;}.cls-27,.cls-37{fill:#68e1fd;}.cls-28{fill:url(#linear-gradient-4);}.cls-29{fill:url(#linear-gradient-2);}.cls-30{fill:url(#linear-gradient-3);}.cls-31{fill:url(#linear-gradient-8);}.cls-32{fill:url(#linear-gradient-9);}.cls-33{fill:url(#linear-gradient-7);}.cls-34{fill:url(#linear-gradient-5);}.cls-35{fill:url(#linear-gradient-6);}.cls-36{fill:#ffb4a3;}</style><clipPath id="clippath"><path class="cls-2" d="M122.54,77.4c17.23-12.07,35.89-22.39,56.07-26.7,29.55-6.27,60.77.9,87.31,16.24,31.91,18.41,57.12,47.46,85.82,71.23,33.35,27.6,71.8,48.19,101.94,79.76,30.15,31.57,51.29,79.16,37.52,121.86-12.18,37.79-47.5,60.77-81.82,76.34-77.53,35.18-163.2,48.53-247.76,38.6-74.03-8.85-153.12-60.59-152.29-150.43.83-90.48,42.99-177.72,113.21-226.9Z"></path></clipPath><linearGradient id="linear-gradient" x1="-1023.34" y1="2962.43" x2="-1008.25" y2="3269.78" gradientTransform="translate(1273.04 3332.81) scale(1 -1)" gradientUnits="userSpaceOnUse"><stop offset="0" stop-color="#231f20" stop-opacity="0"></stop><stop offset="1" stop-color="#231f20"></stop></linearGradient><linearGradient id="linear-gradient-2" x1="-962.96" y1="2944.94" x2="-921.48" y2="3146.7" xlink:href="#linear-gradient"></linearGradient><linearGradient id="linear-gradient-3" x1="-1136.73" y1="2962.77" x2="-1129.19" y2="3337.06" gradientTransform="translate(1273.04 3332.81) scale(1 -1)" gradientUnits="userSpaceOnUse"><stop offset=".02" stop-color="#fff" stop-opacity="0"></stop><stop offset=".58" stop-color="#fff" stop-opacity=".39"></stop><stop offset=".68" stop-color="#fff" stop-opacity=".68"></stop><stop offset="1" stop-color="#fff"></stop></linearGradient><linearGradient id="linear-gradient-4" x1="-1067.54" y1="3051.36" x2="-1059.06" y2="2727.05" xlink:href="#linear-gradient"></linearGradient><linearGradient id="linear-gradient-5" x1="-1185.93" y1="2833.12" x2="-1095.42" y2="3092.07" xlink:href="#linear-gradient"></linearGradient><linearGradient id="linear-gradient-6" x1="-1002.34" y1="2966.05" x2="-607.62" y2="2859.2" xlink:href="#linear-gradient"></linearGradient><linearGradient id="linear-gradient-7" x1="-1032.4" y1="3014.56" x2="-805.59" y2="2856.48" xlink:href="#linear-gradient"></linearGradient><linearGradient id="linear-gradient-8" x1="-1155.6" y1="2928.33" x2="-914.25" y2="2674.72" xlink:href="#linear-gradient"></linearGradient><linearGradient id="linear-gradient-9" x1="-1186.5" y1="2932.09" x2="-943.43" y2="2813.5" xlink:href="#linear-gradient"></linearGradient><linearGradient id="linear-gradient-10" x1="-885.9" y1="3032.47" x2="-888.42" y2="3109.78" xlink:href="#linear-gradient-3"></linearGradient><linearGradient id="linear-gradient-11" x1="-1035.81" y1="3074.28" x2="-941.53" y2="2967.43" xlink:href="#linear-gradient"></linearGradient><linearGradient id="linear-gradient-12" x1="-767.24" y1="2748.12" x2="-952.02" y2="3159.19" xlink:href="#linear-gradient"></linearGradient><linearGradient id="linear-gradient-13" x1="-1050.54" y1="2957.27" x2="-1019.43" y2="2808.31" xlink:href="#linear-gradient"></linearGradient><linearGradient id="linear-gradient-14" x1="-1097.02" y1="3047.02" x2="-880.8" y2="3488.88" xlink:href="#linear-gradient"></linearGradient><linearGradient id="linear-gradient-15" x1="-1113.32" y1="3135.87" x2="-1063.5" y2="3131.47" xlink:href="#linear-gradient"></linearGradient><linearGradient id="linear-gradient-16" x1="-1126.97" y1="3088.96" x2="-1042.75" y2="3081.72" xlink:href="#linear-gradient"></linearGradient><linearGradient id="linear-gradient-17" x1="-1130.95" y1="3094.83" x2="-1063.27" y2="3078.7" xlink:href="#linear-gradient"></linearGradient><linearGradient id="linear-gradient-18" x1="-1108.65" y1="3078.61" x2="-1053.66" y2="3038.23" xlink:href="#linear-gradient"></linearGradient><linearGradient id="linear-gradient-19" x1="-1104.71" y1="3119.12" x2="-1086.11" y2="3120.28" xlink:href="#linear-gradient"></linearGradient><linearGradient id="linear-gradient-20" x1="-1206.39" y1="3119.09" x2="-924.18" y2="3052.47" xlink:href="#linear-gradient"></linearGradient><linearGradient id="linear-gradient-21" x1="-1196.12" y1="3114.9" x2="-978.96" y2="3063.63" xlink:href="#linear-gradient"></linearGradient><linearGradient id="linear-gradient-22" x1="-1145.94" y1="3075.9" x2="-1117.97" y2="3075.9" xlink:href="#linear-gradient"></linearGradient><linearGradient id="linear-gradient-23" x1="-1150.53" y1="3149.55" x2="-1076.16" y2="3093.19" xlink:href="#linear-gradient"></linearGradient><linearGradient id="linear-gradient-24" x1="-1169.7" y1="3085.74" x2="-1038.97" y2="3081.35" xlink:href="#linear-gradient"></linearGradient><linearGradient id="linear-gradient-25" x1="-1088.04" y1="2968.91" x2="-897.8" y2="2984" xlink:href="#linear-gradient"></linearGradient><linearGradient id="linear-gradient-26" x1="-1116.5" y1="2952.44" x2="-987.85" y2="3066.42" xlink:href="#linear-gradient"></linearGradient><linearGradient id="linear-gradient-27" x1="-1157.94" y1="3153.23" x2="-1087.28" y2="3112.52" xlink:href="#linear-gradient"></linearGradient><linearGradient id="linear-gradient-28" x1="-1127.49" y1="3124.82" x2="-1087.05" y2="3006.03" xlink:href="#linear-gradient"></linearGradient><linearGradient id="linear-gradient-29" x1="-1140.25" y1="3120.48" x2="-1099.82" y2="3001.68" xlink:href="#linear-gradient"></linearGradient><linearGradient id="linear-gradient-30" x1="-1155.1" y1="3115.42" x2="-1114.66" y2="2996.63" xlink:href="#linear-gradient"></linearGradient><linearGradient id="linear-gradient-31" x1="-1166.74" y1="3111.46" x2="-1126.3" y2="2992.67" xlink:href="#linear-gradient"></linearGradient><linearGradient id="linear-gradient-32" x1="-1091.24" y1="3024.51" x2="-1202.69" y2="3021.16" xlink:href="#linear-gradient"></linearGradient></defs><g id="background"><g class="cls-1"><path class="cls-27" d="M122.54,77.4c17.23-12.07,35.89-22.39,56.07-26.7,29.55-6.27,60.77.9,87.31,16.24,31.91,18.41,57.12,47.46,85.82,71.23,33.35,27.6,71.8,48.19,101.94,79.76,30.15,31.57,51.29,79.16,37.52,121.86-12.18,37.79-47.5,60.77-81.82,76.34-77.53,35.18-163.2,48.53-247.76,38.6-74.03-8.85-153.12-60.59-152.29-150.43.83-90.48,42.99-177.72,113.21-226.9Z"></path><path class="cls-37" d="M60.65,234.33c13.71,7.66,26.65,16.62,38.65,26.76,9.55,8.06,18.57,16.9,29.39,23.15s24.02,9.67,35.91,5.84c20.2-6.52,32.44-32.11,53.67-32.01,5.79,0,12.01,2.04,17.14-.65,3.14-1.66,5.18-4.77,7.09-7.76l21.49-33.67,19.76,35.55c.9,1.59,1.86,3.27,3.48,4.1,2.25,1.16,4.95.3,7.49.21,11.6-.4,19.14,15.06,30.73,14.58,3.08-.13,6.13-1.42,9.16-.83,4.65.9,7.32,5.79,11.4,8.19,6.27,3.72,14.48.8,20.42-3.46,5.95-4.25,11.18-9.85,18.14-12.13s16.47.84,17.39,8.06c8.06-1.02,9.3-14.5,17.29-15.97,5.73-1.05,10.06,4.8,13.23,9.68,12.9,19.79,31.12,35.54,52.56,45.45,5.58,2.57,12.25,5.89,12.72,12.02.47,6.12-5.76,10.51-11.19,13.48-83.45,45.51-170.43,92.08-265.32,97.54-47.46,2.69-96.47-4.84-141.54,10.16-20.68,6.89-41.1,18.55-62.68,15.81-.99-.07-1.95-.37-2.79-.9-1.55-1.12-1.79-3.3-1.79-5.21-1.66-44.47-3.31-88.94-4.96-133.42-.71-16.12-1.41-25.64,9.09-38.21,13.63-16.33,28.71-31.64,44.07-46.35Z"></path><path class="cls-3" d="M486.55,334.93c-83.44,45.51-170.42,92.08-265.31,97.54-47.46,2.69-96.47-4.84-141.54,10.17-20.67,6.89-41.1,18.54-62.68,15.8-.99-.06-1.94-.37-2.78-.9-1.56-1.12-1.79-3.3-1.84-5.21-1.65-44.48-3.3-88.96-4.95-133.42-.11-2.69-.21-5.19-.26-7.56-.28-11.86.66-20.25,9.41-30.72,13.6-16.3,28.68-31.6,44.05-46.31,13.71,7.66,26.65,16.62,38.65,26.76,9.54,8.06,18.57,16.9,29.39,23.15s24.02,9.68,35.91,5.84c20.2-6.52,32.44-32.11,53.67-32.01,5.79,0,12.01,2.04,17.14-.65,3.14-1.66,5.18-4.78,7.09-7.76,7.16-11.23,14.33-22.45,21.49-33.67l5.7,10.26,14.05,25.29c.9,1.59,1.86,3.27,3.48,4.1,2.26,1.16,4.96.3,7.48.21,11.6-.4,19.14,15.06,30.74,14.58,3.07-.13,6.12-1.43,9.15-.84,1.83.44,3.51,1.34,4.89,2.62,2.16,1.79,4.08,4.15,6.52,5.59,6.27,3.71,14.48.78,20.42-3.47,5.95-4.24,11.18-9.85,18.14-12.13,6.96-2.28,16.46.84,17.39,8.06,8.06-1.03,9.29-14.5,17.29-15.97,5.72-1.05,10.06,4.8,13.23,9.68l.39.57c12.87,19.53,30.94,35.08,52.18,44.89,5.58,2.55,12.26,5.88,12.72,12.01.46,6.12-5.77,10.54-11.2,13.51Z"></path><path class="cls-29" d="M378.59,300.39c-20.95.85-39.71,13.91-60.56,16.22-17.47,1.93-35.48-3.83-52.54.36-13.83,3.4-25.47,12.99-39.25,16.62-8.95,2.35-18.34,2.07-27.58,1.67-15.65-.68-31.29-1.66-46.9-2.95,15.15,11.81,34.69,16.36,53.73,18.73,19.04,2.37,38.5,2.93,56.99,8.14,15.22,4.29,29.55,11.64,44.93,15.22,15.56,3.64,31.76,3.3,47.73,2.47,28.96-1.51,57.84-4.6,86.51-8.95,16.12-2.47,36.28-6.47,45.38-21.74,7.39-12.4,2.69-30.53-10.28-37.28-11.24-5.86-26.41-4.77-38.5-8.28-10.5-3.05-19-7.94-30.05-4.95-9.63,2.8-19.58,4.39-29.6,4.73Z"></path><path class="cls-30" d="M269.69,226.23c-.06.57-.17,1.13-.35,1.67-1.19,3.45-3.5,3.16-5.09,5.95-5.05,8.95-2.2,14.81-4.93,24.36-2.09,7.3-9.8,11.42-17.11,13.43-7.31,2.01-15.22,3.02-21.36,7.48-6.13,4.46-9.34,14.26-3.98,19.64-8.29.9-13.48,9.93-21.49,12.31-2.79.69-5.67.95-8.54.77l-52.2-.54c-2.47,0-5.05-.08-7.3-1.16-2.51-1.24-4.24-3.58-5.95-5.81-7.25-9.32-16.05-17.32-26.02-23.65-1.89-1.19-3.9-2.35-6.12-2.51-2.22-.15-4.24.62-6.27,1.39l-27.7,10.66c-5.18,1.98-10.39,3.99-15.03,7.02-4.17,2.69-7.8,6.19-12.02,8.83-6.32,3.89-13.69,5.73-21.1,5.27-.28-11.86.66-20.25,9.41-30.72,13.66-16.3,28.74-31.6,44.11-46.31,13.71,7.66,26.65,16.62,38.65,26.76,9.54,8.06,18.57,16.9,29.39,23.15s24.02,9.68,35.91,5.84c20.2-6.52,32.44-32.11,53.67-32.01,5.79,0,12.01,2.04,17.14-.65,3.14-1.66,5.18-4.78,7.09-7.76,7.16-11.23,14.33-22.45,21.49-33.67l5.7,10.26Z"></path><path class="cls-37" d="M325.55,327.28c-9.46-2.94-19.29-5.64-29.15-4.67-13.39,1.33-25.12,9.23-37.83,13.62-34.44,11.88-71.97-2.74-108.35-2.29-14.85.18-29.55,2.89-44.28,4.58-28.8,3.28-57.88,2.62-86.86,3.53-2.33.07-4.82.21-6.66,1.62-2.69,2.05-3,5.92-3.08,9.3-.73,32.58-1.24,66.38,11.82,96.25,1.88,4.3,4.26,8.73,8.37,11,3.58,1.98,7.89,1.99,11.98,1.94l204.87-2.18c18.8-.21,37.67-.42,56.08-4.09,14.33-2.87,28.12-7.78,41.71-13.06,18.14-7.05,36.47-15.07,50.39-28.65,19.6-19.14,14.95-40.22-3-58.36-15.97-16.13-45-22.05-66.02-28.54Z"></path><path class="cls-28" d="M325.55,327.28c-9.46-2.94-19.29-5.64-29.15-4.67-13.39,1.33-25.12,9.23-37.83,13.62-34.44,11.88-71.97-2.74-108.35-2.29-14.85.18-29.55,2.89-44.28,4.58-28.8,3.28-57.88,2.62-86.86,3.53-2.33.07-4.82.21-6.66,1.62-2.69,2.05-3,5.92-3.08,9.3-.73,32.58-1.24,66.38,11.82,96.25,1.88,4.3,4.26,8.73,8.37,11,3.58,1.98,7.89,1.99,11.98,1.94l204.87-2.18c18.8-.21,37.67-.42,56.08-4.09,14.33-2.87,28.12-7.78,41.71-13.06,18.14-7.05,36.47-15.07,50.39-28.65,19.6-19.14,14.95-40.22-3-58.36-15.97-16.13-45-22.05-66.02-28.54Z"></path><path class="cls-34" d="M76.62,397.13c9.3-7.58,18.8-15.29,30.07-19.54,12.69-4.8,26.61-4.84,40.18-4.8l80.47.17c11.51,0,23.58-.09,33.7-5.58-84.12-6.8-168.54-9.14-252.91-7-.81,15.8-6.27,63.02,11.96,70.38,18.1,7.3,44.77-24.05,56.54-33.63Z"></path><path class="cls-37" d="M363.4,318.57c-15.12,8.06-28.16,20.46-41.97,30.24-7.25,5.12-81.48,53.73-79.8,58.35l1.31,3.58c-6.03,16.63-3.99,35.13,5.54,50.04l225.65,4.48c12.2.24,24.89.39,35.99-4.71,4.68-2.17,9.21-5.55,10.83-10.45.97-2.92.81-6.07.65-9.13-1.65-30.44,2.94-69.84-5.37-99.08-4.11-14.49-10.38-10.67-24.47-11.58-14.09-.9-27.15-3.88-39.07-10.15-1.18-.62-2.35-1.26-3.5-1.95-23.66-14-52.11-13.34-77.47-3.43-2.84,1.12-5.6,2.4-8.29,3.83"></path><path class="cls-35" d="M520.91,450.05c-1.61,4.9-6.13,8.29-10.83,10.45-11.09,5.11-23.78,4.97-35.99,4.72l-225.6-4.48c-7.44-11.63-10.4-25.56-8.34-39.2.55-3.7,1.48-7.32,2.78-10.83-.43-1.2-.9-2.38-1.31-3.58-1.68-4.61,72.53-53.22,79.8-58.36,13.81-9.77,26.86-22.2,41.98-30.24,2.69-1.43,5.45-2.7,8.28-3.82,5.34-2.1,10.84-3.77,16.45-5.01,20.74-4.53,42.38-2.61,61.02,8.43,1.16.69,2.32,1.33,3.5,1.96,11.92,6.27,24.95,9.23,39.07,10.14,14.12.9,20.35-2.92,24.47,11.59,8.28,29.19,3.71,68.64,5.37,99.07.14,3.09.3,6.24-.67,9.15Z"></path><path class="cls-33" d="M388.14,309.73c-.03.64-.09,1.27-.2,1.9-1.11,7.31-2.43,15.03-7.35,20.53-3.99,4.48-9.85,6.79-14.49,10.51-11.44,9.16-14.63,25.35-24.36,36.32-6.62,7.48-16.28,12.59-20.32,21.72-7.91,17.86,6.74,53.77-23.22,58.93-20.32,3.49-44.69-23.39-58.06-38.09.55-3.7,1.48-7.32,2.78-10.83-.43-1.2-.9-2.38-1.31-3.58-1.68-4.61,72.53-53.22,79.8-58.36,13.81-9.77,26.86-22.2,41.98-30.24,2.69-1.43,5.45-2.7,8.28-3.82,5.34-2.09,10.84-3.77,16.45-5Z"></path><path class="cls-37" d="M124.84,410.44c12.11-7.77,21.07-19.57,32.44-28.38,12.07-9.32,26.52-15.05,41.7-16.55,2.69-.26,5.51-.37,8.06.59,2.95,1.11,5.19,3.54,7.32,5.88l34.86,38.44c2.56,3.04,5.45,5.79,8.62,8.18,3.84,2.69,8.3,4.29,12.45,6.47,14.16,7.44,23.84,21.05,32.97,34.17-25.35,2-50.33,7.38-74.26,15.99-10.23,3.69-20.29,7.97-30.83,10.68-15.97,4.1-32.65,4.48-49.14,4.48-18.94-.05-37.9-.64-56.75-2.5-10.39-1.03-20.92-2.59-30.7-6.33-6.55-2.51-23.91-10.28-21.49-19.05,1.47-5.37,13.52-15.28,17.82-19.91,7.41-7.97,17.58-12.72,27.64-16.45,13.2-4.93,27.27-8.02,39.3-15.74Z"></path><path class="cls-31" d="M303.25,459.26c-25.36,2-50.33,7.37-74.26,15.99-10.23,3.68-20.29,7.97-30.83,10.68-15.97,4.1-32.65,4.48-49.14,4.48-18.94,0-37.9-.64-56.76-2.5l-1.79-.2c-9.8-1.02-19.7-2.61-28.9-6.13-6.54-2.52-23.9-10.28-21.49-19.05,1.47-5.37,13.53-15.28,17.83-19.9,7.41-7.97,17.57-12.72,27.63-16.45,13.23-4.9,27.32-7.99,39.35-15.7,12.03-7.71,21.07-19.58,32.45-28.39,12.07-9.32,26.52-15.05,41.69-16.55,2.69-.25,5.51-.37,8.06.58,1.23.48,2.37,1.15,3.38,1.99,1.41,1.2,2.72,2.5,3.93,3.9l34.85,38.45c2.56,3.04,5.46,5.79,8.63,8.18,3.84,2.69,8.3,4.29,12.45,6.47,14.09,7.4,23.77,21.02,32.92,34.13Z"></path><path class="cls-32" d="M210.42,368.13c-4.41,5.41-9.37,10.35-14.79,14.74-9.19,7.41-20.33,14.1-23.83,25.38-2.44,7.86-.9,17.35-6.42,23.48-6.27,6.94-19.05,6.27-23.28,14.6-1,2-1.33,4.25-2.01,6.38-3.76,11.69-16.79,17.08-27.86,22.39-7.59,3.63-14.87,7.86-21.79,12.63-9.8-1.02-19.7-2.61-28.9-6.13-6.54-2.52-23.9-10.28-21.49-19.05,1.47-5.37,13.53-15.28,17.83-19.9,7.41-7.97,17.57-12.72,27.63-16.45,13.23-4.9,27.32-7.99,39.35-15.7s21.07-19.58,32.45-28.39c12.07-9.32,26.52-15.05,41.69-16.55,2.69-.25,5.51-.37,8.06.58,1.22.48,2.35,1.15,3.37,1.99Z"></path><path class="cls-13" d="M432.86,264.56c-.09,1.41-.21,2.81-.31,4.22-1.91-2.04-4.42-3.43-7.16-3.98-.78-.2-1.6-.18-2.36.05-.99.52-1.78,1.34-2.27,2.34-3.8,6.15-7.56,12.33-11.28,18.53-1.61-2.04-1.98-4.75-2.41-7.32-.43-2.56-1.13-5.28-3.1-6.98s-5.61-1.57-6.65.81c-.13-2.58-3.81-3.5-6.05-2.22s-3.44,3.76-4.97,5.84c-4.1,5.46-10.73,8.41-17.53,7.79-1.79-.18-3.58-.59-5.29,0-2.07.74-3.35,2.84-5.32,3.82-4.07,2.03-8.74-1.54-11.25-5.32-2.27-3.46-4.79-6.75-7.56-9.83l.13-.08c2.16,1.79,4.08,4.15,6.52,5.59,6.27,3.71,14.48.78,20.42-3.47s11.18-9.85,18.14-12.13,16.46.84,17.39,8.06c8.06-1.03,9.29-14.5,17.29-15.97,5.72-1.05,10.06,4.8,13.23,9.68l.39.56Z"></path><path class="cls-10" d="M325.43,292.14c-11.46-5.94-22.26-14.56-35.15-15.41-5.17-.34-11.07.4-14.86-3.14-1.84-1.74-2.81-4.21-4.48-6.12s-4.71-3.15-6.68-1.57c-1.1.9-1.5,2.37-1.79,3.75l-3.69,15.39c-.67,2.78-1.37,5.62-3.01,7.96-1.95,2.78-5.01,4.48-7.89,6.35-10.96,6.99-20.25,16.31-27.22,27.28,33.87-.14,67.67-2.94,101.1-8.37,6.03-.98,32.85-3.31,33.86-10.53,1.05-7.66-25.47-13.15-30.2-15.6Z"></path><path class="cls-11" d="M421.96,336.09c-1.96,19.12-7.4,37.72-16.06,54.88-4.69,9.3-10.49,18.87-9.76,29.26,8.06,1.1,15.89-4.03,20.41-10.75,4.51-6.72,6.34-14.87,8.06-22.8l7.72,17.82c.73,1.67,1.52,3.44,3.04,4.48,2.62,1.79,6.42.46,8.41-2.01s2.6-5.73,3.11-8.86c3.29-20.05,4.75-40.35,4.39-60.67,9.86,9.8,18.64,20.63,26.2,32.3,2.74,4.23,5.37,8.64,6.6,13.53,1.45,5.7.95,11.7,1.17,17.6.56,13.94,5.17,27.41,13.27,38.76,3.81,5.33,8.06,13.66,2.54,17.27-1.38.77-2.9,1.25-4.48,1.39-24.1,3.8-126.26,18.07-122.58-18.11,1.68-16.33,16.74-37.36,21.71-54.01,5.44-18.24,10.25-38.04,26.26-50.1Z"></path><path class="cls-12" d="M223.24,426.8l8.65,9.17c-1.64,4.77-2.22,9.83-1.71,14.85.01,1.03.36,2.03.98,2.85.54.51,1.19.89,1.89,1.13,5.17,2.14,12.03,3.9,15.6-.39,1.61-1.94,2.44-5.03,4.92-5.46,1.02-.09,2.04.09,2.96.53,9.56,3.59,18.43,8.81,26.21,15.42-10.16-.01-20.28,1.12-30.18,3.37-5.86,1.33-11.64,3.04-17.38,4.76-8.4,2.51-40.17,17.91-31.34-.9,4.35-9.21,9.04-9.9,10.52-20.88,1.21-8.78,3.88-17.05,8.87-24.44Z"></path></g></g><g id="character"><path class="cls-37" d="M116.26,256.03c-.47.71-.68,1.56-.58,2.41v2.18l6.34-.08c.21.02.43-.03.61-.15.15-.17.24-.38.24-.61.2-1.59.81-3.85-.81-4.78-1.18-.68-4.9.02-5.79,1.03Z"></path><path class="cls-36" d="M149.37,346.71c1.69,8.61,4.17,17.12,4.54,25.89-.08.81.21,1.62.8,2.19.42.22.9.32,1.37.29h3.18c.99.12,1.99-.11,2.83-.64,1-.79,1.14-2.24,1.16-3.52.28-17.01-4.07-34.28-.47-50.92.06-.3-9.35.29-10.19.45-3.38.63-3.64,1.96-4.22,5.28-1.18,6.98-.33,14.12,1.01,20.98Z"></path><path class="cls-36" d="M192.21,315.78c.15,1.03.08,2.08-.21,3.08-1.1,5.75-.25,11.64.61,17.47l3.27,22.01c1.79,1.28,4.48.21,5.68-1.65s1.33-4.16,1.41-6.37l1.2-31.15c.21-2.46.08-4.94-.39-7.37-.76-3.14-2.62-5.9-4.65-8.43-.25-.39-.62-.69-1.05-.85-.42-.07-.85-.02-1.24.15-2.58.9-8.74,3.45-9.8,6.27-1.16,3.23,4.37,3.61,5.15,6.83Z"></path><path class="cls-37" d="M143.67,318.53c.04,1.53,1.3,2.75,2.83,2.73,6.26,1.23,12.69,1.23,18.95,0,1.11,0,2.02-.9,2.02-2.01,0-.09,0-.17-.02-.26l1.31-12.84c2.13,4.64,4.61,9.11,7.41,13.38l20.59-14.43c.82-.47,1.49-1.17,1.9-2.02.43-1.26-.3-2.6-1-3.72-5.22-8.36-10.6-16.63-16.12-24.8-.9-1.28-1.79-2.63-3.27-3.17-1.63-.61-3.44,0-5.08.54l-19.15,6.72c-7.86,2.75-9.95,6.61-11.04,14.6-1.14,8.41-.91,16.96.67,25.3Z"></path><path class="cls-21" d="M143.67,318.53c.04,1.53,1.3,2.75,2.83,2.73,6.26,1.23,12.69,1.23,18.95,0,1.11,0,2.02-.9,2.02-2.01,0-.09,0-.17-.02-.26l1.31-12.84c2.13,4.64,4.61,9.11,7.41,13.38l20.59-14.43c.82-.47,1.49-1.17,1.9-2.02.43-1.26-.3-2.6-1-3.72-5.22-8.36-10.6-16.63-16.12-24.8-.9-1.28-1.79-2.63-3.27-3.17-1.63-.61-3.44,0-5.08.54l-19.15,6.72c-7.86,2.75-9.95,6.61-11.04,14.6-1.14,8.41-.91,16.96.67,25.3Z"></path><path class="cls-36" d="M177.69,204.29c.35.43.54.98.51,1.53-.13.35-.31.68-.54.98-.62,1.09-.21,2.52-.65,3.69s-1.79,1.93-2.84,2.69c-.78.68-1.64,1.28-2.54,1.79-.93.5-2.07.4-2.91-.25-.51-.61-.81-1.37-.84-2.17-.5-3.34-.76-6.71-.78-10.09-.04-.55.05-1.1.27-1.61.26-.41.61-.75,1.03-.98,1.79-1.13,4.74-1.84,6.77-.9,1.82.85,1.64,3.71,2.53,5.33Z"></path><path class="cls-37" d="M167.54,190.9c1.88-.65,4.19-.47,5.57.96.74.77,1.17,1.85,2.08,2.42.89.45,1.9.59,2.87.39.97-.2,1.96-.2,2.93,0,.99.25,1.64,1.2,1.51,2.21-.2.79-.98,1.24-1.71,1.62-3.35,1.75-6.76,3.41-10.22,4.98-1.05.53-2.16.94-3.3,1.23-.51.16-1.05.16-1.56,0-.35-.17-.66-.42-.9-.73-1.92-2.17-2.89-5.02-2.69-7.91.2-2.58,3.13-4.37,5.41-5.17Z"></path><path class="cls-17" d="M167.54,190.9c1.88-.65,4.19-.47,5.57.96.74.77,1.17,1.85,2.08,2.42.89.45,1.9.59,2.87.39.97-.2,1.96-.2,2.93,0,.99.25,1.64,1.2,1.51,2.21-.2.79-.98,1.24-1.71,1.62-3.35,1.75-6.76,3.41-10.22,4.98-1.05.53-2.16.94-3.3,1.23-.51.16-1.05.16-1.56,0-.35-.17-.66-.42-.9-.73-1.92-2.17-2.89-5.02-2.69-7.91.2-2.58,3.13-4.37,5.41-5.17Z"></path><path class="cls-37" d="M186.98,222.01c2.04,3.9,2.57,8.84.4,12.67-.75,1.46-2.01,2.59-3.54,3.19-1.57.57-3.32.1-4.41-1.16-1.8,8.1-2.35,16.43-1.65,24.7.25,2.95.63,6.09-.76,8.69-1.1,1.81-2.7,3.28-4.6,4.22-9.26,5.19-20.75,4.24-30.99,1.47-1.52-.11-2.67-1.44-2.56-2.96,0-.09.02-.17.03-.26-.21-4.75-.21-9.5-.21-14.26v-18.95c0-5.94.09-12.22,3.2-17.27,1.23-2.08,3.02-3.77,5.17-4.89,2.02-.87,4.15-1.44,6.34-1.67,10.83-1.65,27.8-7.92,33.58,6.48Z"></path><path class="cls-15" d="M186.98,222.01c2.04,3.9,2.57,8.84.4,12.67-.75,1.46-2.01,2.59-3.54,3.19-1.57.57-3.32.1-4.41-1.16-1.8,8.1-2.35,16.43-1.65,24.7.25,2.95.63,6.09-.76,8.69-1.1,1.81-2.7,3.28-4.6,4.22-9.26,5.19-20.75,4.24-30.99,1.47-1.52-.11-2.67-1.44-2.56-2.96,0-.09.02-.17.03-.26-.21-4.75-.21-9.5-.21-14.26v-18.95c0-5.94.09-12.22,3.2-17.27,1.23-2.08,3.02-3.77,5.17-4.89,2.02-.87,4.15-1.44,6.34-1.67,10.83-1.65,27.8-7.92,33.58,6.48Z"></path><path class="cls-14" d="M171.04,221.34c-.13,1.76-.13,3.52,0,5.27,0,4.8-1.79,9.38-3.25,13.98s-2.35,9.66-.54,14.11c.28.56.47,1.17.57,1.79,0,.51-.05,1.02-.14,1.52-.06,1.43.09,2.86.44,4.25.83,4.67.64,9.44.47,14.17-.58.07-.83-.71-.9-1.29l-.67-10.28c-2.45,2.27-1.46,6.27-2.14,9.53-.08.8-.52,1.51-1.2,1.94-.98.33-2.06-.11-2.53-1.03-.43-.91-.62-1.91-.56-2.91l-.44-17.64c-.3-5.97-.15-11.96.45-17.91.44-3.5,1.18-6.95,1.79-10.43.26-2.4.84-4.76,1.73-7.01,1.83-3.86,5.54-6.49,9.79-6.94.78-.07,3.21-.15,3.36.96.1.73-2.2,1.55-2.73,1.96-1.89,1.46-3.14,3.59-3.49,5.95Z"></path><path class="cls-37" d="M171.04,253.27c-2.19,1.58-4.92,2.8-7.55,2.14-.29.52.15,1.19.69,1.44s1.17.28,1.73.48c1.19.55,2.01,1.68,2.15,2.98.13,1.28.11,2.57-.06,3.85-.28,4.48.84,8.89,1.95,13.23.39,1.52,1.41,3.45,2.94,3.03,1.28-.36,1.48-2.07,1.4-3.39-.28-4.28-.83-8.55-1.66-12.76-.45-2.26-.95-4.7.04-6.77.48-.87,1.06-1.69,1.72-2.44,2.27-2.94,4.48-7.61,3.89-11.37-1.35,1.04-1.71,3.36-2.64,4.8-1.22,1.87-2.78,3.49-4.59,4.79Z"></path><path class="cls-20" d="M171.04,253.27c-2.19,1.58-4.92,2.8-7.55,2.14-.29.52.15,1.19.69,1.44s1.17.28,1.73.48c1.19.55,2.01,1.68,2.15,2.98.13,1.28.11,2.57-.06,3.85-.28,4.48.84,8.89,1.95,13.23.39,1.52,1.41,3.45,2.94,3.03,1.28-.36,1.48-2.07,1.4-3.39-.28-4.28-.83-8.55-1.66-12.76-.45-2.26-.95-4.7.04-6.77.48-.87,1.06-1.69,1.72-2.44,2.27-2.94,4.48-7.61,3.89-11.37-1.35,1.04-1.71,3.36-2.64,4.8-1.22,1.87-2.78,3.49-4.59,4.79Z"></path><path class="cls-37" d="M175.05,213.81c1.03-.06,2.05.15,3.08.13.32,0,.73-.1.78-.42,0-.21-.1-.41-.27-.54-1.19-1.12-2.72-1.81-4.34-1.99-1.62-.17-3.25-.17-4.86,0-.57-.02-1.12.14-1.59.46-1.41,1.16-.64,4.48,1.22,4.78,1.07.17,1.79-.68,2.61-1.22,1-.69,2.16-1.11,3.38-1.21Z"></path><path class="cls-16" d="M175.05,213.81c1.03-.06,2.05.15,3.08.13.32,0,.73-.1.78-.42,0-.21-.1-.41-.27-.54-1.19-1.12-2.72-1.81-4.34-1.99-1.62-.17-3.25-.17-4.86,0-.57-.02-1.12.14-1.59.46-1.41,1.16-.64,4.48,1.22,4.78,1.07.17,1.79-.68,2.61-1.22,1-.69,2.16-1.11,3.38-1.21Z"></path><path class="cls-36" d="M188.83,231.78c-.15-.32-.34-.5-.71-.51-.17,0-.33.03-.5.06-.44.09-.86.1-1.28.27-1.45.59-2.71,1.63-3.92,2.59-.85.41-1.21,1.43-.81,2.28.04.08.09.16.14.24,1.68,3.64,3.77,7.11,5.09,10.89.43,1.2.73,2.45.9,3.72.9,6.33-1.45,12.72-4.22,18.5-1.25,2.26-2.26,4.64-3.04,7.11-.62,2.51-.47,5.37,1.12,7.41l2.89-2.75,3.54,2.97c.8-.9-.96-5.31-1.01-6.51-.24-7.1,9.88-15.47,8.14-26.76-.79-5.12-4.1-14.94-6.35-19.5Z"></path><path class="cls-37" d="M159.86,181.86c-1.12-1.91-2.61-3.59-4.37-4.94-3.9-2.69-9.09-2.23-13.8-1.67-7.3.9-15.8,2.57-18.98,9.2-1.33,2.76-1.45,5.91-1.49,8.95-.3,20.04,1.79,40.15-.04,60.11-.6,6.35-1.6,12.79-.52,19.08,1.08,6.29,4.75,12.59,10.75,14.8,3.68,1.35,7.75,1.02,11.64.57,4.7-.55,9.38-1.24,14.03-2.07,1.88-.33,3.89-.76,5.2-2.15s1.65-3.48,1.79-5.42c.83-9.39-1.73-18.15-1.67-27.4.04-6.72,3.72-12.74,5.37-19.16,4.21-16.77,1.55-35.33-7.92-49.91Z"></path><path class="cls-23" d="M167.76,231.78c-1.61,6.42-5.29,12.45-5.37,19.16-.05,9.26,2.5,18.01,1.67,27.4-.17,1.93-.48,4.01-1.79,5.42s-3.32,1.79-5.2,2.16c-4.66.82-9.33,1.51-14.03,2.06-3.74.43-7.66.76-11.22-.43-.14,0-.29-.09-.44-.15-5.98-2.19-9.64-8.5-10.75-14.8-1.1-6.3-.08-12.72.51-19.08,1.89-19.96-.25-40.06.04-60.1,0-3.05.17-6.21,1.49-8.95,2.69-5.65,9.29-7.7,15.68-8.74h0c1.11-.18,2.21-.32,3.3-.46,4.71-.57,9.85-1.03,13.8,1.66,1.77,1.35,3.25,3.03,4.37,4.95,9.51,14.55,12.17,33.11,7.95,49.91Z"></path><path class="cls-19" d="M153,231.78c-1.62,6.42-5.29,12.45-5.37,19.16-.07,9.26,2.5,18.01,1.67,27.4-.17,1.93-.48,4.01-1.79,5.42s-3.32,1.79-5.19,2.16c-3.48.6-6.98,1.14-10.49,1.63-.14,0-.29-.09-.44-.15-5.98-2.19-9.64-8.5-10.75-14.8-1.1-6.3-.08-12.72.51-19.08,1.89-19.96-.25-40.06.04-60.1,0-3.05.17-6.21,1.49-8.95,2.69-5.65,9.29-7.7,15.68-8.74h0c.82.31,1.6.71,2.33,1.2,1.76,1.35,3.25,3.03,4.36,4.95,9.51,14.55,12.17,33.11,7.95,49.91Z"></path><path class="cls-22" d="M138.17,233.31c-.24.09-.44.26-.58.47-.09.29-.07.61.05.9,1.15,4.15,1.13,8.55-.07,12.69-1.2,4.12-2.78,8.12-4.72,11.95l9.45-1.52c2.14-.34,4.41-.68,6.44.11,2.17.83,3.72,2.82,5.88,3.68-5.89-1.19-12.01-.65-17.6,1.55-1.3.38-2.42,1.2-3.16,2.33-.31.67-.47,1.4-.48,2.14-.34,5.53,1.93,10.85,4.15,15.94,1.43.03,2.81.58,3.88,1.53-2.75,1.07-5.54,2.02-8.39,2.84-1.14.33-2.6.54-3.3-.42-.24-.39-.38-.84-.42-1.3-1.17-6.13-1.89-12.34-2.18-18.58-.27-12.89,3.22-25.6,7.84-37.61.14-.51.43-.97.83-1.32.34-.2.72-.33,1.11-.37l11.55-1.99c1.47-.25,7.24-1.84,6.58.9-.57,2.42-5.5,2.13-7.16,2.47-3.37.78-6.63,2-9.69,3.62Z"></path><path class="cls-18" d="M156.63,186.12c-2.52,1.42-5.37,3.58-4.96,6.47.15.8.42,1.57.8,2.29,1.48,3.36,2.31,6.97,2.45,10.64-1.29-2.87-2.92-5.57-4.84-8.06-1.47,2.93-2.32,6.13-2.49,9.4-.08,1.53,0,3.14-.75,4.48-1.13,2.1-3.72,2.86-6.07,3.26s-4.92.76-6.55,2.5c-.04-1.57-1.64-2.69-3.19-2.95-1.55-.27-3.13.09-4.71.07s-3.33-.52-4.07-1.91-.19-3.16.48-4.63c1.59-3.43,3.71-6.6,6.27-9.38,3.01-3.3,6.6-6.03,9.49-9.41,1.62-1.89,3.02-3.98,4.77-5.75,1.68-1.87,3.96-3.1,6.45-3.47,1.79-.16,6.64-.27,8.11.77,2.26,1.62.69,4.59-1.18,5.69Z"></path><path class="cls-37" d="M134.21,229.9c.33,6.72,1.42,13.64-.55,20.08-.96,3.13-2.61,6.03-3.43,9.2-1.67,6.46.26,13.23,2.01,19.7.8,2.88,1.07,6.84-1.68,8-1.63.54-3.43.02-4.53-1.3-1.06-1.3-1.8-2.84-2.16-4.48-2.51-8.83-2.85-18.14-1-27.14,1.3-6.27,3.67-12.37,4.54-18.75.94-6.89.08-13.9-.83-20.8-.29-2.14-.13-5.01,1.96-5.56.72-.12,1.46-.07,2.16.14,5.37,1.26,4.41,2.53,3.88,7.61-.36,4.42-.48,8.86-.37,13.3Z"></path><path class="cls-25" d="M134.21,229.9c.33,6.72,1.42,13.64-.55,20.08-.96,3.13-2.61,6.03-3.43,9.2-1.67,6.46.26,13.23,2.01,19.7.8,2.88,1.07,6.84-1.68,8-1.63.54-3.43.02-4.53-1.3-1.06-1.3-1.8-2.84-2.16-4.48-2.51-8.83-2.85-18.14-1-27.14,1.3-6.27,3.67-12.37,4.54-18.75.94-6.89.08-13.9-.83-20.8-.29-2.14-.13-5.01,1.96-5.56.72-.12,1.46-.07,2.16.14,5.37,1.26,4.41,2.53,3.88,7.61-.36,4.42-.48,8.86-.37,13.3Z"></path><path class="cls-37" d="M195.5,353.93c-.44.04-.85.23-1.17.53-.27.46-.36,1-.24,1.52l1.05,9.85c.13,1.25.39,2.69,1.49,3.3.45.22.94.35,1.44.38,6.63.81,13.28,1.32,19.95,1.53.78,0,1.7,0,2.1-.7.2-.4.24-.85.13-1.28-.46-1.61-1.54-2.97-3-3.78-1.4-.9-2.97-1.45-4.41-2.25-2.52-1.39-4.61-3.44-6.05-5.93-1.04-1.79-2-4.03-4.24-4.28-1.94-.23-5.06.67-7.04,1.1Z"></path><path class="cls-37" d="M155.72,372.52c-.91,0-1.8.29-2.55.81-.62.66-1,1.51-1.06,2.41-.26,1.87-.1,3.78.48,5.58.12.44.33.85.64,1.19.71.53,1.6.74,2.47.56,4.85-.36,9.54-1.85,13.71-4.35,1.48-.9,3-2.11,3.21-3.82.07-.39-.01-.79-.22-1.13-.75-1.03-6-1.48-7.46-1.79-2.96-.57-6.24.21-9.21.54Z"></path><path class="cls-9" d="M195.5,353.93c-.44.04-.85.23-1.17.53-.27.46-.36,1-.24,1.52l1.05,9.85c.13,1.25.39,2.69,1.49,3.3.45.22.94.35,1.44.38,6.63.81,13.28,1.32,19.95,1.53.78,0,1.7,0,2.1-.7.2-.4.24-.85.13-1.28-.46-1.61-1.54-2.97-3-3.78-1.4-.9-2.97-1.45-4.41-2.25-2.52-1.39-4.61-3.44-6.05-5.93-1.04-1.79-2-4.03-4.24-4.28-1.94-.23-5.06.67-7.04,1.1Z"></path><path class="cls-26" d="M155.72,372.52c-.91,0-1.8.29-2.55.81-.62.66-1,1.51-1.06,2.41-.26,1.87-.1,3.78.48,5.58.12.44.33.85.64,1.19.71.53,1.6.74,2.47.56,4.85-.36,9.54-1.85,13.71-4.35,1.48-.9,3-2.11,3.21-3.82.07-.39-.01-.79-.22-1.13-.75-1.03-6-1.48-7.46-1.79-2.96-.57-6.24.21-9.21.54Z"></path><path class="cls-37" d="M157.46,180.9c-3.58,3.06-7.11,3.72-9.52,8.37-2,4.18-2.9,8.8-2.62,13.43.05,2.21.16,4.77-1.51,6.21-.83.61-1.79,1.02-2.8,1.2-4.24,1-8.59,1.4-12.94,1.2-2.37-.03-4.71-.52-6.89-1.44h0c-1.12-.49-2.12-1.21-2.95-2.1-2.43-2.69-2.78-6.6-2.82-10.21-.05-5.05.36-10.41,3.28-14.54,2.05-2.91,5.18-4.92,8.43-6.39,7.85-3.57,16.66-4.46,25.07-2.55h0c3.31.78,9.12,3.5,5.28,6.82Z"></path><path class="cls-24" d="M154.63,179.97c-3.53,3.04-7.11,3.71-9.51,8.37-2.01,4.18-2.94,8.8-2.69,13.43.07,2.21.16,4.76-1.51,6.21-.83.61-1.78,1.02-2.79,1.19-4.25,1.01-8.61,1.41-12.97,1.21-1.36-.05-2.72-.22-4.06-.5h0c-1.12-.49-2.12-1.21-2.95-2.1-2.43-2.69-2.78-6.6-2.82-10.21-.05-5.05.36-10.41,3.28-14.54,2.05-2.91,5.18-4.92,8.43-6.39,7.85-3.57,16.66-4.46,25.07-2.55h0c2.9,1.29,5.39,3.4,2.53,5.88Z"></path><path class="cls-37" d="M153.88,223.25c-1.84-.18-3.7-.23-5.55-.17-3.44.24-6.72,1.5-9.93,2.75-1.19.39-2.31,1-3.28,1.79-.44.34-.71.85-.77,1.41,0,1.36,1.9,1.73,3.24,1.5,5.29-.9,10.62-3.88,15.72-2.21,2.29.75,4.24,2.39,6.55,3.05,1.46.35,2.97.5,4.48.45,1.05.08,2.1-.07,3.08-.44,1.4-.75,2.35-2.12,2.57-3.69,1.38-7.55-11.38-4.14-16.12-4.44Z"></path><path class="cls-37" d="M149.9,253.42c-1.85-.17-3.7-.23-5.55-.16-3.44.23-6.72,1.5-9.92,2.74-1.2.39-2.31,1-3.29,1.79-.44.34-.71.85-.76,1.41,0,1.36,1.89,1.73,3.23,1.5,5.3-.9,10.63-3.87,15.72-2.2,2.3.74,4.24,2.38,6.55,3.05,1.47.35,2.97.49,4.48.44,1.05.08,2.1-.07,3.09-.43,1.39-.75,2.35-2.13,2.56-3.7,1.39-7.54-11.38-4.13-16.12-4.44Z"></path><path class="cls-37" d="M121.72,228.25c-1.01-.01-2.01.19-2.93.6-.93.43-1.54,1.34-1.6,2.36.06.66.28,1.3.64,1.86.08.18.19.35.34.48.42.23.91.25,1.35.08,1.81-.42,3.68-.48,5.51-.19.35.1.73.1,1.08,0,1.22-.48,2.14-3.49,1.26-4.48-1.02-1.21-4.35-.77-5.65-.73Z"></path><path class="cls-8" d="M153.88,223.25c-1.84-.18-3.7-.23-5.55-.17-3.44.24-6.72,1.5-9.93,2.75-1.19.39-2.31,1-3.28,1.79-.44.34-.71.85-.77,1.41,0,1.36,1.9,1.73,3.24,1.5,5.29-.9,10.62-3.88,15.72-2.21,2.29.75,4.24,2.39,6.55,3.05,1.46.35,2.97.5,4.48.45,1.05.08,2.1-.07,3.08-.44,1.4-.75,2.35-2.12,2.57-3.69,1.38-7.55-11.38-4.14-16.12-4.44Z"></path><path class="cls-4" d="M149.9,253.42c-1.85-.17-3.7-.23-5.55-.16-3.44.23-6.72,1.5-9.92,2.74-1.2.39-2.31,1-3.29,1.79-.44.34-.71.85-.76,1.41,0,1.36,1.89,1.73,3.23,1.5,5.3-.9,10.63-3.87,15.72-2.2,2.3.74,4.24,2.38,6.55,3.05,1.47.35,2.97.49,4.48.44,1.05.08,2.1-.07,3.09-.43,1.39-.75,2.35-2.13,2.56-3.7,1.39-7.54-11.38-4.13-16.12-4.44Z"></path><path class="cls-6" d="M121.72,228.25c-1.01-.01-2.01.19-2.93.6-.93.43-1.54,1.34-1.6,2.36.06.66.28,1.3.64,1.86.08.18.19.35.34.48.42.23.91.25,1.35.08,1.81-.42,3.68-.48,5.51-.19.35.1.73.1,1.08,0,1.22-.48,2.14-3.49,1.26-4.48-1.02-1.21-4.35-.77-5.65-.73Z"></path><path class="cls-7" d="M115.76,255.79c-.47.71-.68,1.56-.58,2.41v2.18l6.34-.08c.21.02.43-.03.61-.15.15-.17.24-.38.24-.61.2-1.59.81-3.85-.81-4.78-1.18-.68-4.9.02-5.79,1.03Z"></path><path class="cls-5" d="M159.27,296.75c-.32-.41-.78-.68-1.3-.75-.9,0-1.31,1.12-1.41,2.01-.34,3.06.08,6.17-.2,9.24-.36,3.94-1.85,7.72-2.04,11.64-.06.56,0,1.13.21,1.66.63,1.37,2.47,1.56,3.98,1.46,2.57-.16,5.11-.55,7.61-1.16.48-.07.93-.27,1.3-.59.37-.48.57-1.08.56-1.69.31-3.4,2.14-9.68.53-12.7-1.87-3.47-6.74-6.04-9.24-9.12Z"></path></g></svg>