<svg transform="scale(1)" id="_0466_laptop" xmlns="http://www.w3.org/2000/svg" viewBox="0 0 500 500" class="show_show__wrapper__graphic__5Waiy "><title>React</title><defs><style>.cls-1{fill:#fff;}.cls-2{fill:#f4a28c;}.cls-3{opacity:.46;}.cls-3,.cls-4,.cls-5,.cls-6,.cls-7,.cls-8{fill:none;}.cls-9{fill:#a5a5a5;}.cls-4{opacity:.58;}.cls-10{fill:#ce8172;}.cls-11{fill:#e6e6e6;}.cls-5{opacity:.09;}.cls-6{opacity:.73;}.cls-7{opacity:.08;}.cls-8{opacity:.31;}.cls-12{fill:#24285b;}.cls-13{fill:#000001;}.cls-14{fill:#acbdff;}.cls-15{fill:#68e1fd;}</style></defs><g id="person"><path class="cls-12" d="m191.8,393.99c-14.05,7.83-31.47,8.78-47.84,8.52-15.04-.24-30.3-1.26-44.47-6.3s-27.29-14.6-33.74-28.19c-6.97-14.67-12.21-86.66-13.56-108.11-.88-13.86-1.13-28.22,4.04-41.1,5.89-14.68,18.44-25.99,32.62-32.99s29.97-10.08,45.68-11.92c19.42-2.28,39.45-2.73,58.19,2.86,18.74,5.59,36.17,17.95,44.24,35.76,4.4,9.7,5.85,20.5,6.2,31.14.91,27.5-5.21,54.63-13.28,80.75-6.78,21.95-12.74,50.61-31.93,65.54-1.96,1.52-4,2.86-6.13,4.05Z"></path><path class="cls-15" d="m284.5,156.41s22.28,46.39,1.9,103.18c-20.38,56.79,24,85.47-62,93.08-86.01,7.61,60.11-196.26,60.11-196.26Z"></path><g class="cls-3"><path class="cls-1" d="m284.5,156.41s22.28,46.39,1.9,103.18c-20.38,56.79,24,85.47-62,93.08-86.01,7.61,60.11-196.26,60.11-196.26Z"></path></g><path class="cls-2" d="m240.9,65.7s-1.93,14.32-6.39,23.13c-1.81,3.57-6.24,5.02-9.79,3.16-4.41-2.31-9.69-6.71-9.59-14.51l-1.45-13.26s-.62-8.34,8.61-12.27c9.23-3.93,20.22,5.08,18.61,13.74Z"></path><polygon class="cls-2" points="215.06 67.94 186.54 105.73 208.49 119.96 220.13 87.59 215.06 67.94"></polygon><path class="cls-2" d="m239.22,74.66l2.71,6.31c.67,1.56-.51,3.28-2.21,3.23l-5.62-.19,5.11-9.34Z"></path><g class="cls-8"><path class="cls-10" d="m219.8,88.51s-6.48-7.19-7.28-11.45c0,0-6.98,17.57,1.6,27.24l5.68-15.79Z"></path></g><path class="cls-2" d="m222.54,72.09s1.11-5.45-3.06-5.95c-4.17-.5-5.83,7.37-.45,9.34l3.51-3.4Z"></path><path class="cls-12" d="m209.92,59.11l.72,5.97s-1.91,13.71,3.55,23.56c5.46,9.85,17.52,13.46,22.2,5.25,5.38-9.42-2.28-9.89-10.99-14.1-8.71-4.22-2.25-15.54-2.25-15.54,3.88,1.73,7.47.79,10.28-.81l6.35-.42c6.12-.41,10.48-6.16,9.15-12.15-.75-3.37-2.34-6.69-5.5-8.75-8.51-5.54-36.1-.96-33.51,16.99Z"></path><path class="cls-2" d="m217.11,63.63s-4.82-6.57-9.41-2.47c-4.6,4.1.89,11.21,7.11,10.18,0,0-.48-4.11,2.3-7.71Z"></path><path class="cls-15" d="m226.59,102.49l-25.78-4.44s-85.74.13-100.75,29.49c-15.01,29.36-11.86,138.66,37.74,228.37l101.55,2.94s-5.63-65.9,13.29-101.78c18.92-35.88,77.74-112.13-26.05-154.58Z"></path><g class="cls-7"><path class="cls-13" d="m146.51,138.07s28.15,24.68,22.49,51.92c-.91,4.4-1.86,9.73-2.82,15.56-7.46,45.74,6,92.42,36.5,127.3l17.73,20.28-82.63,2.78-7.07-13.84-38.57-64.11,54.35-139.9Z"></path></g><path class="cls-15" d="m98.63,130.24c-18.81,26.47-35.53,84.94-21.01,167.32,4.42,25.07,25.55,43.81,50.96,45.42l77.59,4.9v-25.31s-58.96-8.52-58.96-8.52c-13.72-1.98-22.42-15.72-18.39-28.98,10.38-34.19,26.47-96.15,22.32-140.31-2.52-26.83-36.89-36.48-52.5-14.51Z"></path><g class="cls-3"><path class="cls-1" d="m98.63,130.24c-18.81,26.47-35.53,84.94-21.01,167.32,4.42,25.07,25.55,43.81,50.96,45.42l77.59,4.9v-25.31s-58.96-8.52-58.96-8.52c-13.72-1.98-22.42-15.72-18.39-28.98,10.38-34.19,26.47-96.15,22.32-140.31-2.52-26.83-36.89-36.48-52.5-14.51Z"></path></g><path class="cls-2" d="m207.86,327.28s33.85-.86,29.03,16.79c-4.82,17.65-29.03,3.82-29.03,3.82v-20.61Z"></path><polygon class="cls-14" points="356.12 356.82 375.43 247.68 238.51 247.68 226.63 340.71 163.86 341.59 163.86 356.82 356.12 356.82"></polygon><circle class="cls-1" cx="301.6" cy="300" r="13.71"></circle></g><g id="table"><g class="cls-4"><path class="cls-15" d="m428.58,328.21s-22.57-6.16-27.48-27.17c0,0,34.96-7.07,35.96,29.02l-8.49-1.86Z"></path></g><g class="cls-6"><path class="cls-15" d="m431.35,325.97s-15.77-24.93-1.89-48.23c0,0,26.59,16.88,14.77,48.28l-12.88-.05Z"></path></g><path class="cls-15" d="m435.41,325.99s8.33-26.32,33.51-31.31c0,0,4.72,17.09-16.31,31.38l-17.21-.07Z"></path><polygon class="cls-12" points="419.04 325.4 423.62 356.69 452.43 356.82 456.68 325.56 419.04 325.4"></polygon><rect class="cls-11" x="12.97" y="354.23" width="474.07" height="105.72" transform="translate(500 814.19) rotate(-180)"></rect><g class="cls-5"><rect class="cls-13" x="12.97" y="354.23" width="132.97" height="105.72"></rect></g></g><g id="chats"><polygon class="cls-11" points="318.38 150.28 318.38 205.98 351.22 205.98 351.22 231.14 370.18 205.98 423.98 205.98 423.98 150.28 318.38 150.28"></polygon><polygon class="cls-11" points="375.43 84.2 294.99 84.2 294.99 135.75 306.27 135.75 306.27 158.15 319.02 135.75 375.43 135.75 375.43 84.2"></polygon><polygon class="cls-9" points="443.6 78.65 391.63 78.65 391.63 123.14 427.05 123.14 435.82 134.32 435.82 123.14 443.6 123.14 443.6 78.65"></polygon></g></svg>