<svg transform="scale(1)" version="1.1" id="Layer_1" xmlns="http://www.w3.org/2000/svg" xmlns:xlink="http://www.w3.org/1999/xlink" x="0px" y="0px" viewBox="0 0 500 500" xml:space="preserve" class="show_show__wrapper__graphic__5Waiy "><title>React</title><style type="text/css">
	.st0{fill:#8082ff;}
	.st1{fill:#A04040;}
	.st2{fill:#EA8383;}
	.st3{fill:#F2EBEB;}
	.st4{fill:#000001;}
	.st5{fill:#469F78;}
	.st6{fill:#FFFFFF;}
	.st7{fill:#87CCDB;}
</style><g id="character-2"><path class="st0" d="M291.2,310.5l-16,5.9c0,0,13.8,45,23.8,48.7c9.4,3.5,83.1-52.1,83.1-52.1l-19.8-33.5l-54.6,57.9L291.2,310.5z"></path><path class="st0" d="M340.2,367.7l57.9,2.2c0,0,14.2-76.4-12.6-94.9c-19.4-13.4-26,8.8-44.3,36.2c-1.7,2.5-1.9,5.8-0.6,8.5l10,20.5
		L340.2,367.7z"></path><path class="st1" d="M362.6,207.6c0,0,11.5-1.9,19-0.4c7.4,1.5,12,5.9,13.5,13.6c1.6,8.1,2.1,13.1-2.6,19.4s-10.7,10.6-20.7,5.8
		s-12.1-24.2-18.4-25.6s-8.6-9.9-5.1-12.3S352.1,205.1,362.6,207.6z"></path><path class="st2" d="M360,293.3c-1.9,0.8,0-3.9,4.5-12.6c5-9.6,4.6-20.8,0.6-23.6s-17.6-11.3-17.6-11.3s-9.3,1-9.9-0.8
		s6.5-11.3,9.5-16.8s9.8-12.6,9.8-12.6c-0.3,1,1.3,8.2,6.5,13.3c3.1,3.1,10.3,4.7,10.3,4.7s-3.3-9.4,4.2-6.8s-0.7,12.2,0.4,13.6
		c2.3,2.9,2.1,32.7,4.4,36.6C383.1,277.7,367,290.6,360,293.3z"></path><path class="st3" d="M363.1,232.3c0,0-8.7-3.7-12,2.4C351.1,234.7,360.2,238.3,363.1,232.3z"></path><path class="st4" d="M363.5,232.3c-2.2-0.5-4.5-0.7-6.8-0.6c-1.1,0.1-2.2,0.3-3.1,0.8c-1,0.5-1.9,1.2-2.5,2.1
		c0.3-1.2,1.1-2.2,2.1-2.8c1-0.7,2.2-1,3.5-1.1c1.2-0.1,2.4,0,3.6,0.3C361.4,231.3,362.5,231.7,363.5,232.3z"></path><path class="st4" d="M355.2,231.5c0,0,2.3,0.8,1,4.3c0,0-4.6-0.2-5-1.1C351.1,234.7,353.3,231.3,355.2,231.5z"></path><path class="st4" d="M363.1,235.8c-0.3,0-0.5,0-0.8,0.1c-0.2,0-0.2,0-0.3,0c-0.1-0.1-0.1-0.2-0.1-0.3c0-0.3,0-0.6,0-0.9
		c0.2-0.2,0.5-0.4,0.8-0.5c0.2,0,0.4,0,0.6,0.2c0.2,0.2,0.3,0.4,0.3,0.6C363.5,235.3,363.4,235.6,363.1,235.8z"></path><path class="st4" d="M360.8,236.7c-0.3,0-0.6,0-0.9-0.1c-0.1,0-0.3-0.1-0.4-0.1c-0.1-0.1,0-0.2,0-0.3c0.1-0.3,0.1-0.6,0.1-0.8
		c0.2-0.3,0.5-0.4,0.9-0.4c0.2,0,0.5,0.1,0.6,0.3c0.1,0.2,0.2,0.4,0.2,0.6C361.2,236.3,361,236.5,360.8,236.7z"></path><path class="st1" d="M361.7,245c-1-0.6-2.3-0.5-3.1,0.4c-1.3,1.5,2.7,4.7,5.1,3.1S361.7,245,361.7,245z"></path><path class="st4" d="M361.3,242.5c0.7,0.5,1.1,1.2,1.2,2c0.2,0.8,0,1.7-0.3,2.5c-0.4,0.7-1,1.4-1.7,1.8c-0.3,0.2-0.7,0.3-1.1,0.4
		c-0.4,0.1-0.8,0.1-1.2,0c0.2-0.3,0.4-0.6,0.7-0.9c0.2-0.3,0.4-0.5,0.6-0.8c0.4-0.4,0.7-0.9,0.9-1.4c0.2-0.5,0.4-1,0.6-1.6
		C361.1,243.9,361.2,243.2,361.3,242.5z"></path><path class="st5" d="M395.7,235.4c1.1,0.6,2.1,1.3,3,2.1c0.5,0.5,0.9,1,1.2,1.6c0.4,0.8,0.4,1.7,0,2.4c-0.5,0.6-1.1,1.1-1.9,1.3
		c-0.6,0.2-1.1,0.4-1.7,0.6c-0.5,0.2-1,0.4-1.5,0.7c-0.4,0.2-0.7,0.4-1,0.8c-0.1,0.1-0.1,0.2-0.1,0.4v0.3l0.1,0.3
		c0.2,0.5,0.4,1,0.7,1.5c0.2,0.4,0.3,0.9,0.3,1.4c-0.1,0.6-0.4,1.1-1,1.4c-0.6,0.3-1.3,0.5-2,0.5c-0.5,0-0.9,0.1-1.3,0.3
		c0,0-0.1,0-0.1,0.2c0.1,0.3,0.2,0.5,0.3,0.8c0.4,1.1,0.9,2.2,1.6,3.2c-1-0.8-1.8-1.7-2.4-2.8c-0.2-0.3-0.4-0.6-0.5-0.9
		c-0.1-0.2-0.1-0.5-0.1-0.7c0-0.3,0.1-0.5,0.3-0.8c0.3-0.3,0.7-0.5,1.1-0.6c0.3-0.1,0.6-0.2,0.9-0.3c0.5-0.1,1-0.3,1.4-0.5
		c0.1-0.1,0-0.1,0,0c0-0.1-0.1-0.3-0.2-0.4c-0.3-0.6-0.6-1.1-0.8-1.8c0-0.2-0.1-0.4-0.1-0.6c0-0.2-0.1-0.4-0.1-0.6
		c0-0.5,0.1-0.9,0.4-1.4c0.4-0.7,1.1-1.2,1.8-1.5c0.6-0.3,1.2-0.5,1.8-0.7c0.6-0.2,1.2-0.4,1.8-0.5c0.4-0.1,0.8-0.3,1.1-0.6
		c0.2-0.3,0.3-0.7,0.1-1c-0.2-0.5-0.4-1-0.7-1.4C397.2,237.2,396.5,236.2,395.7,235.4z"></path><path class="st1" d="M400.5,245.9c0,0,42,22.6,36.1,41s-34.6-9.7-39.5-39.3C397.1,247.6,398.2,244.6,400.5,245.9z"></path><path class="st1" d="M362.3,228c-1.5-0.1-2.7-0.4-3.9-0.5c-0.6-0.1-1.1-0.1-1.7-0.1c-0.6,0-1.2,0.1-2,0.1c0.3-0.7,0.9-1.3,1.6-1.6
		c0.7-0.3,1.5-0.5,2.3-0.4c0.8,0.1,1.5,0.4,2.1,0.8C361.5,226.7,362,227.3,362.3,228z"></path><path class="st2" d="M291.2,310.5c-1.8-5.3,0-8.9-0.5-14.2c-0.5-4.7,0.6-13.9-2-13.9s-4.2,11-4.2,11s-12.8-8-18.1-12.8
		s-8.7-7.4-4.8,0c0,0-5.2-5-6.5-4.6s2.8,7.2,2.8,7.2c-0.7,3.8-0.6,7.7,0.4,11.5c1.7,5.8,16.1,17.9,17,21.8L291.2,310.5z"></path><path class="st4" d="M279.7,304c-0.3-1-0.3-2.1-0.3-3.1c0.1-1,0.3-2.1,0.6-3c0.3-1,0.8-2,1.5-2.9c0.2-0.2,0.4-0.4,0.6-0.6
		c0.2-0.2,0.4-0.4,0.7-0.5c0.3-0.1,0.5-0.2,0.8-0.3c0.3,0,0.6,0,0.8,0c-0.7,0.6-1.2,1.4-1.5,2.3c-0.3,0.9-0.6,1.8-0.9,2.6
		s-0.6,1.8-1,2.8C280.6,302.2,280.2,303.1,279.7,304z"></path><path class="st4" d="M273.1,301.7c-1.5-1.3-3-2.5-4.5-3.7c-0.7-0.6-1.5-1.1-2.3-1.5c-0.7-0.4-1.5-0.7-2.3-0.8h-0.6L263,295
		l-1.3-3.5c-0.5-1.2-0.9-2.3-1.4-3.4c-0.5-1.1-1.1-2.2-1.9-3.1c-0.1-0.2-0.3-0.3-0.5-0.5c0,0,0.1-0.1,0,0s-0.1,0.2-0.2,0.3
		c-0.2,0.6-0.3,1.2-0.5,1.8c-0.1-0.7-0.2-1.3-0.1-2c0-0.2,0.1-0.4,0.2-0.6c0.1-0.1,0.2-0.2,0.3-0.3c0.2-0.1,0.3-0.1,0.5-0.1
		c0.4,0.1,0.8,0.3,1.1,0.6c0.5,0.4,1,0.9,1.5,1.4c0.4,0.5,0.8,1.1,1.1,1.6c0.7,1.1,1.2,2.3,1.8,3.5c0.5,1.2,1,2.4,1.4,3.6l-0.9-0.7
		c1.1,0.1,2.2,0.5,3.1,1.2c0.8,0.6,1.6,1.3,2.3,2C270.9,298.4,272.1,300,273.1,301.7z"></path><path class="st4" d="M271.6,288c-1.4,0.8-2.9,1.5-4.4,2c-0.7,0.3-1.4,0.5-2.1,0.8c-0.7,0.3-1.4,0.7-2.1,1.1
		c0.1-0.9,0.5-1.8,1.2-2.4c0.7-0.6,1.4-1.1,2.3-1.4c0.8-0.3,1.7-0.5,2.5-0.5C269.9,287.6,270.8,287.7,271.6,288z"></path><path class="st2" d="M425.5,360.7c-4.5,8.8-49.7,13.8-49.7,13.8c-2,1.5-12.6-0.6-12.6-0.6s-7.6-1.1-10,0.6s-5.1-1.9-5.1-1.9H346
		c-0.9,0,1.9-7,1.9-7s3.2-11.2,4.9-11s21.8,6.6,21.8,6.6l11.4-6.3C386,354.8,438.6,335,425.5,360.7z"></path><path class="st4" d="M354.1,362.2c-0.5,1.2-1.1,2.4-1.7,3.6c-0.6,1.1-1.3,2.2-2,3.3l-1,1.6c-0.3,0.5-0.5,1-0.8,1.5c0,0,0,0.1,0,0.1
		c0,0,0,0,0,0s0,0-0.1,0l0.1,0.1c0,0,0.1,0.1,0.1,0.2c0.2,0.2,0.4,0.4,0.6,0.6c0.5,0.4,1,0.7,1.6,1c-0.7,0.1-1.4,0.1-2.1-0.1
		c-0.3-0.1-0.7-0.3-1-0.5l-0.2-0.2l-0.1-0.1c-0.1-0.1-0.1-0.2-0.2-0.2c-0.1-0.2-0.2-0.3-0.2-0.5c0-0.1,0-0.3,0-0.4
		c0.1-0.8,0.3-1.5,0.6-2.2c0.3-0.6,0.6-1.2,1-1.8c0.7-1.1,1.5-2.2,2.4-3.1C352.1,363.9,353,363,354.1,362.2z"></path><path class="st4" d="M358.7,365.5c-0.5,0.9-1.1,1.8-1.7,2.6c-0.6,0.8-1.3,1.6-1.9,2.3l-1.9,2.2c-0.3,0.3-0.6,0.7-0.9,1.1
		c-0.3,0.4-0.4,0.9-0.2,1.3c-0.3-0.1-0.5-0.4-0.6-0.6c-0.1-0.3-0.1-0.6-0.1-0.9c0.1-0.6,0.2-1.1,0.5-1.7c0.5-1,1.1-1.9,1.8-2.7
		c0.7-0.8,1.5-1.5,2.3-2.1C356.8,366.3,357.7,365.8,358.7,365.5z"></path><path class="st0" d="M385.5,275.1c0,0,72.4,55.6,71.9,72.5s-74.7,26-74.7,26l-5-14.2l44.4-22.8c0,0-41.9-23.8-41.9-28.3
		S385.5,275.1,385.5,275.1z"></path><path class="st4" d="M382.7,311.5c3.4,1.9,6.7,3.9,10.1,5.9s6.7,4,10,6l9.9,6.1l9.9,6.2l1.5,0.9l-1.5,0.8
		c-7.4,3.8-14.8,7.6-22.3,11.2c-3.7,1.8-7.5,3.7-11.2,5.5c-3.8,1.8-7.5,3.6-11.3,5.3c3.6-2.1,7.2-4.1,10.9-6.2s7.3-4,11-6
		c7.3-3.9,14.7-7.8,22.1-11.6l-0.1,1.7l-9.8-6.3l-9.8-6.4c-3.2-2.1-6.5-4.3-9.7-6.5C389.1,315.9,385.9,313.8,382.7,311.5z"></path><path class="st4" d="M350.6,340.4c-2.3-2.8-4.3-5.7-6.1-8.8c-0.9-1.5-1.8-3.1-2.5-4.7c-0.8-1.6-1.5-3.4-2-5.1
		c-0.2-0.9-0.4-1.9-0.3-2.9c0-0.9,0.2-1.9,0.4-2.8c0.5-1.8,1.1-3.5,1.8-5.1c1.5-3.3,3.3-6.4,5.5-9.2c-1.4,3.3-2.8,6.5-4,9.8
		c-0.6,1.6-1.1,3.3-1.4,5c-0.2,0.8-0.3,1.6-0.3,2.5c0,0.8,0.1,1.6,0.3,2.4c0.4,1.7,1,3.3,1.8,4.8c0.7,1.6,1.5,3.2,2.2,4.8
		L350.6,340.4z"></path><path class="st5" d="M367.2,206.3c2.8-0.5,5.8-0.5,8.6,0c4.8,0.8,11,9.8,8.2,19.8l-6.9,0.7c0,0-2-17.7-4.6-18.4
		C370.7,207.9,368.9,207.2,367.2,206.3z"></path><path class="st0" d="M379.4,222.9c0,0-12,1.2-10.8,15.6s13,12,18.1,8.9S394.5,222.4,379.4,222.9z"></path><path class="st6" d="M376,244.3c-2.1-1.1-3.3-3.3-3.6-6.6c-0.8-9.1,6.9-10,7-10l0,0c3.3-0.3,6.2,1.8,7,5c1.2,4.2-0.2,9.5-2.2,10.7
		c-1.6,1-3.4,1.5-5.3,1.6C378,245,377,244.8,376,244.3z M379.6,228.7c-0.5,0-6.8,0.9-6.1,8.9c0.2,3,1.3,4.9,3,5.8
		c2.2,1.1,5.3,0.4,7.2-0.8c1.5-0.9,3-5.7,1.8-9.6c-0.6-2.6-3-4.4-5.7-4.3L379.6,228.7z"></path></g><g id="table"><path class="st3" d="M453.3,382.7c0,0,11.8-13.6,0-13.6s-406.3-2.3-408.5,0s0,13.6,0,13.6H453.3z"></path></g><g id="character-1"><path class="st7" d="M181.1,357H96.3c0,0-20.7-103.1,8.7-116.2c0,0,35.7-9.4,76.6,15.3c4,2.4,6.4,6.7,6.4,11.3
		C187.8,287.1,181.9,325.9,181.1,357z"></path><path class="st7" d="M140,335.9l2.9,31.9c0,0-81.2,4.6-80.7-8s27.8-119.9,42.7-119s-0.1,85.7-0.1,85.7L140,335.9z"></path><path class="st0" d="M170.6,367.8c0,0,4.5-40.2,7.5-66.3c0,0,51.9-1.9,56.1-0.5s-15,66.3-16.9,68S175.1,369,170.6,367.8z"></path><path class="st1" d="M140,335.9c0,0,31.6-1.7,34.6-1.5s34.7,32.7,34.1,35.4s-8.9-1.1-8.9-1.1s-0.6,3.8-5.1,2.1
		c0,0-8.5,1.4-14.6,0.4s-17.6-3.4-17.6-3.4h-19.6L140,335.9z"></path><path class="st1" d="M187.9,357c0,0,10.2,12.4,16.5,13.2"></path><path class="st4" d="M187.9,357c1.5,1.1,2.8,2.3,4.1,3.5l4,3.5c1.3,1.2,2.6,2.3,4,3.4c1.3,1.1,2.8,2.1,4.4,2.8
		c-1.9,0-3.7-0.5-5.3-1.5c-1.6-0.9-3.1-2-4.4-3.2c-1.4-1.2-2.6-2.5-3.8-4C189.8,360.1,188.8,358.6,187.9,357z"></path><path class="st1" d="M185.6,364.1c0,0,10.4,10.8,13.4,6.1"></path><path class="st4" d="M185.6,364.1c1.2,0.7,2.4,1.4,3.5,2.2l3.3,2.2c1,0.7,2.1,1.4,3.3,1.9c1.1,0.7,2.4,0.6,3.4-0.2
		c-0.2,0.8-0.8,1.3-1.6,1.6c-0.7,0.2-1.5,0.3-2.3,0.1c-1.4-0.3-2.7-0.9-3.9-1.7c-1.1-0.8-2.2-1.7-3.2-2.7
		C187.1,366.5,186.3,365.3,185.6,364.1z"></path><path class="st4" d="M140,332.3c-2.9-0.6-5.8-1.2-8.8-1.9s-5.8-1.3-8.7-2c-5.8-1.3-11.6-2.7-17.4-4.2l-0.9-0.2l0.2-0.9l3.6-15.7
		l3.6-15.7c1.2-5.2,2.3-10.5,3.3-15.7c0.5-2.6,1-5.3,1.4-7.9c0.2-1.3,0.4-2.6,0.5-4c0.1-1.3,0.2-2.7,0.1-4c0.4,2.7,0.4,5.4,0.1,8.1
		c-0.2,2.7-0.5,5.3-0.9,8c-0.7,5.3-1.7,10.6-2.7,15.9s-2.2,10.6-3.4,15.9s-2.4,10.5-3.8,15.7l-0.7-1.1c5.8,1.5,11.5,3.1,17.3,4.7
		c2.9,0.8,5.7,1.6,8.6,2.5S137.2,331.4,140,332.3z"></path><path class="st1" d="M134.1,245c0,0,5.8-61.8,9.5-63.2s34.1,3.2,34.8,7.2c2.7,16.4,10.5,24.3,5.4,26.3c-4.6,1.8-7.3,0-7.3,0
		s-0.5,16-4.2,17.2s-9.6-0.4-9.6-0.4l3.6,21.8C166.3,254,141,246.2,134.1,245z"></path><path class="st4" d="M154.3,211.5c0,0-13,14.8-16.5,14.5s0.2-45.1,2.8-47.4s35.2-13.3,39.9-11.2s-0.9,8.4-0.9,8.4s12.2-2,14,3
		s-10.8,7.9-16.5,9.1s-17.6-0.3-17.6-0.3s3.5,10.1,2.2,12.1s-5.4,4-5.4,4s-2.1-7.9-5.9-5.6S149.4,212,154.3,211.5z"></path><path class="st4" d="M163.6,213.5c0.4,0.5,0.7,1,1,1.5c0.3,0.5,0.5,0.9,0.8,1.2c0.2,0.3,0.5,0.7,0.7,1c0.4,0.4,0.8,0.7,1.3,1
		c-0.6,0.5-1.3,0.6-2,0.4c-0.7-0.2-1.3-0.7-1.7-1.3c-0.4-0.6-0.6-1.2-0.6-1.9C163,214.7,163.2,214,163.6,213.5z"></path><path class="st4" d="M168.2,197.5c-0.2-0.7,0-1.5,0.4-2.2c0.4-0.6,1-1.1,1.7-1.4c0.7-0.3,1.5-0.3,2.2-0.2c0.7,0.2,1.4,0.6,1.8,1.2
		c-0.6,0.3-1.1,0.6-1.7,0.9c-0.5,0.2-0.9,0.4-1.3,0.6C170.5,196.7,169.7,197,168.2,197.5z"></path><path class="st4" d="M152.6,231.1c1.7-0.1,3.3-0.1,5,0c1.6,0.1,3.3,0.2,4.9,0.4s3.2,0.4,4.9,0.6c1.6,0.3,3.3,0.4,4.9,0.5
		c-1.6,0.7-3.3,1.1-5,1.1c-1.7,0.1-3.3,0-5-0.2c-1.7-0.2-3.3-0.5-4.9-0.9C155.7,232.3,154.1,231.8,152.6,231.1z"></path><path class="st3" d="M165.6,201c0,0,6.9-2.7,9.5,3.2c0.2,0.4,0,0.9-0.4,1.1c0,0-0.1,0-0.1,0C172.5,205.9,167.2,206.6,165.6,201z"></path><path class="st4" d="M165.3,201c0.9-0.5,1.9-0.9,3-1c1.1-0.1,2.1-0.1,3.2,0.2c1.1,0.3,2,0.9,2.8,1.7c0.7,0.8,1.1,1.8,1.2,2.9
		c-0.8-1.8-2.4-3.1-4.2-3.6c-0.9-0.3-1.9-0.4-2.9-0.4C167.3,200.8,166.3,200.9,165.3,201z"></path><path class="st4" d="M169.3,205.3c0,0,0.4-2.5,2.2-3.4s4.7,2.6,3.8,3.3C173.4,206.2,171.2,206.2,169.3,205.3z"></path><path class="st5" d="M162.4,170.4c-2.8-0.6-5.8-0.6-8.6,0c-4.8,1-11,12.4-8.1,25.1l6.9,0.9c0,0,2-22.4,4.6-23.4
		C159,172.4,160.8,171.5,162.4,170.4z"></path><path class="st0" d="M150.2,192.6c0,0,12,1.2,10.8,15.6s-13,12-18.1,8.9S135.1,192.1,150.2,192.6z"></path><path class="st6" d="M150.7,214.6c-1.8,0-3.7-0.6-5.2-1.5c-2-1.2-3.5-6.5-2.2-10.8c0.8-3.1,3.7-5.3,6.9-5l0,0c0.1,0,7.8,0.9,7,10
		c-0.3,3.3-1.5,5.6-3.6,6.6C152.7,214.4,151.7,214.7,150.7,214.6z M149.8,198.4c-2.7-0.1-5.1,1.7-5.7,4.3c-1.2,3.9,0.3,8.7,1.8,9.6
		c1.9,1.2,5,1.9,7.2,0.8c1.8-0.9,2.8-2.9,3-5.8c0.7-8-5.6-8.9-6.1-8.9L149.8,198.4z"></path></g><g id="record"><path class="st3" d="M155.2,79.6c0,0,62.4-2.6,66.5,0s1.5,44,0,50.6s-61.4,2.1-66.5,0S152.6,79.7,155.2,79.6z"></path><path class="st4" d="M169.4,106c0,0,3.9-0.7,3.3-4.4s-8.9-3.2-9.3-3s0,14.4,0,14.4s1.6,0.2,2.1,0.2s0.4-6.6,0.4-6.6
		c3.5,1.6,5.4,6.3,5.4,6.3s2.1,0.6,2.2,0S169.4,106,169.4,106z M166.2,104.5v-4.6c0,0,3.2-0.3,3.4,1.9S167,104.8,166.2,104.5z"></path><path class="st4" d="M176.8,98.8c0,0,8.3-0.8,8.4,0c0.1,0.4,0.1,0.9,0,1.3h-5.7l-0.1,4.4h3.3v1.6c0,0-3.3,0.1-3.3,0.3
		s-0.1,4.7-0.1,4.7s5.2,0.1,5.3,0.5s0.1,1.9,0.1,1.9s-7.3,0.2-7.7,0S176.8,98.8,176.8,98.8z"></path><path class="st4" d="M195.9,101.7c0,0,1-1,1-1.4s-2.8-3.3-7.7-0.5s-4.1,10.4,0.4,12.5s7.3-0.9,7.3-0.9s-0.6-1.7-1-1.7
		s-1.9,1.8-4.6,1.2s-4.3-5.8-2.4-8.8S194.4,100.1,195.9,101.7z"></path><path class="st2" d="M208.6,102.2c-2.5,0.1-4.4,2.1-4.3,4.6c0,0,0,0,0,0c0,4.5,3.9,4.3,7,3.3S212.5,101.7,208.6,102.2z"></path></g><g id="sound-wave"><path class="st7" d="M289.3,68.3c0,0,76.6-2.4,81.6,0s1.9,42.1,0,48.5s-75.3,2-81.6,0S286.2,68.4,289.3,68.3z"></path><path class="st6" d="M306.1,88c0.4,1,0.6,2,0.8,3c0.1,1,0.2,2,0.2,3c0,1-0.1,2-0.2,3c-0.1,1-0.4,2-0.8,3c-0.4-1-0.6-2-0.8-3
		c-0.3-2-0.3-4,0-6C305.4,90,305.7,89,306.1,88z"></path><path class="st6" d="M315.7,78.4c0.4,2.6,0.7,5.2,0.8,7.8c0.2,2.6,0.2,5.2,0.2,7.8s-0.1,5.2-0.2,7.8c-0.1,2.6-0.4,5.2-0.8,7.8
		c-0.4-2.6-0.6-5.2-0.8-7.8s-0.2-5.2-0.2-7.8s0.1-5.2,0.2-7.8C315,83.6,315.3,81,315.7,78.4z"></path><path class="st6" d="M325.3,82.7c0.4,1.7,0.6,3.5,0.8,5.2c0.1,1.7,0.2,3.5,0.2,5.2s-0.1,3.5-0.2,5.2c-0.1,1.8-0.4,3.5-0.8,5.2
		c-0.4-1.7-0.7-3.5-0.8-5.2c-0.1-1.8-0.2-3.5-0.2-5.2s0.1-3.5,0.2-5.2C324.6,86.1,324.9,84.4,325.3,82.7z"></path><path class="st6" d="M334.4,87.1c0.4,1,0.6,2,0.8,3c0.1,1,0.2,2,0.2,3c0,1-0.1,2-0.2,3c-0.1,1-0.4,2-0.8,3c-0.4-1-0.6-2-0.8-3
		c-0.1-1-0.2-2-0.2-3c0-1,0.1-2,0.2-3C333.7,89.1,334,88.1,334.4,87.1z"></path><path class="st6" d="M353.3,77.6c0.4,2.6,0.6,5.2,0.8,7.8c0.2,2.6,0.2,5.2,0.2,7.8s-0.1,5.2-0.2,7.8s-0.4,5.2-0.8,7.8
		c-0.4-2.6-0.7-5.2-0.8-7.8c-0.1-2.6-0.2-5.2-0.2-7.8s0.1-5.2,0.2-7.8C352.6,82.8,352.9,80.2,353.3,77.6z"></path><path class="st6" d="M343.7,81.8c0.4,1.7,0.7,3.5,0.8,5.2c0.1,1.7,0.2,3.5,0.2,5.2s-0.1,3.5-0.2,5.2c-0.1,1.8-0.4,3.5-0.8,5.2
		c-0.4-1.7-0.6-3.5-0.8-5.2c-0.1-1.8-0.2-3.5-0.2-5.2s0.1-3.5,0.2-5.2C343,85.3,343.3,83.6,343.7,81.8z"></path></g><g id="microphone"><path class="st4" d="M192.7,326.3c0,0,0.7,9.8,2.1,8.7s2-8.1,2-8.1L192.7,326.3z"></path><path class="st4" d="M145.7,370.2c0,0,8.6-11.4,19.9-12.8s28.7,12.5,26.9,13.2S145.7,370.2,145.7,370.2z"></path><path class="st4" d="M175.1,306.4c0,0-1.4,4.5-1.1,6.2s3.4,7.6,3.4,7.6s4.8,2.8,5.8,2.7s17.5-9.5,17.5-9.5l1.5-5.1
		c0,0-4.3-9-5.1-9.5s-4.1-0.9-4.1-0.9L175.1,306.4z"></path><path class="st5" d="M163,282.3c0,0,19.2,39.1,22.6,43.1s9.1,3,14.3-0.5s2-11.7-0.3-16.5s-17-34.9-21.1-38S160.3,271,163,282.3z"></path><path class="st4" d="M165.1,360.1c0,0,2.4-49,4.2-49.8s35.4-1.8,35.5-1.3c0.1,1.1,0.1,2.2,0,3.3c0,0-31.8-0.8-32.8,0.7
		s-3.1,47.1-3.1,47.1L165.1,360.1z"></path><path class="st6" d="M169.2,279.7c-0.6-0.3-1.2-0.7-1.7-1.2c-0.5-0.4-0.9-0.9-1.2-1.5c-0.4-0.5-0.6-1.1-0.9-1.7
		c-0.2-0.6-0.4-1.3-0.4-2c0.6,0.3,1.2,0.7,1.7,1.2c0.5,0.4,0.9,0.9,1.3,1.5c0.3,0.5,0.6,1.1,0.9,1.7
		C169.1,278.4,169.2,279,169.2,279.7z"></path><path class="st6" d="M172.6,277c-0.6-0.3-1.2-0.7-1.7-1.1c-0.9-0.9-1.6-1.9-2.1-3.1c-0.2-0.6-0.4-1.3-0.4-2
		c0.6,0.3,1.2,0.7,1.7,1.1c0.5,0.4,0.9,0.9,1.2,1.5c0.3,0.5,0.6,1.1,0.9,1.7C172.5,275.6,172.6,276.3,172.6,277z"></path><path class="st6" d="M176.2,275c-0.6-0.2-1.1-0.5-1.5-0.9c-0.4-0.4-0.8-0.8-1.1-1.3c-0.3-0.5-0.5-1-0.7-1.5
		c-0.2-0.6-0.3-1.2-0.2-1.8c0.6,0.2,1.1,0.6,1.5,1c0.4,0.4,0.7,0.8,1,1.3c0.3,0.5,0.5,1,0.7,1.5C176.2,273.8,176.2,274.4,176.2,275z
		"></path><path class="st6" d="M170.9,298.2c1.3-1.2,2.8-2.2,4.3-3.2c1.5-1,3-1.9,4.5-2.7c1.5-0.8,3.1-1.6,4.7-2.3c1.6-0.7,3.3-1.3,5-1.8
		c-1.3,1.2-2.8,2.2-4.3,3.2c-1.5,1-3,1.9-4.5,2.7s-3.1,1.6-4.7,2.3C174.3,297.1,172.6,297.7,170.9,298.2z"></path><path class="st6" d="M172.9,302.2c1.3-1.2,2.7-2.3,4.2-3.2c1.5-1,3-1.9,4.5-2.8s3.1-1.6,4.7-2.4c1.6-0.8,3.3-1.4,5-1.9
		c-1.3,1.2-2.7,2.3-4.2,3.2c-1.5,1-3,1.9-4.5,2.8s-3.1,1.6-4.7,2.4C176.3,301.1,174.7,301.7,172.9,302.2z"></path><path class="st4" d="M251.6,432.8c0.2-7,0.4-14.1,0.4-21.1s0.1-14,0-21.1c-0.1-3.5-0.2-7-0.5-10.5c-0.1-1.7-0.3-3.5-0.6-5.2
		c-0.1-0.9-0.3-1.7-0.5-2.5c-0.2-0.8-0.4-1.5-0.8-2.2c-0.4-0.6-1-1-1.7-1.3c-0.8-0.3-1.5-0.5-2.3-0.7c-1.7-0.3-3.4-0.4-5.1-0.4
		c-3.5-0.1-7,0.1-10.5,0.3s-7,0.4-10.6,0.4c-3.6,0.1-7.2-0.2-10.7-1.1c-1.9-0.5-3.6-1.5-4.9-3c-1.2-1.5-2.1-3.3-2.4-5.2
		c-0.3-1.8-0.3-3.7,0-5.5c0.3-1.8,0.8-3.6,1.7-5.2c0.4-0.9,1-1.7,1.6-2.4c0.4-0.4,0.8-0.7,1.3-0.9c0.6-0.3,1.3-0.2,1.9,0.1
		c0.6,0.3,1,0.8,1.2,1.4c0.2,0.5,0.2,1.1,0.2,1.6c-0.1,1-0.5,1.9-1,2.8c-0.5,0.8-1.2,1.6-2,2.1c-0.9,0.5-1.9,0.8-2.9,0.6
		c-1-0.1-1.9-0.5-2.6-1.1c-0.7-0.6-1.4-1.2-2-2c-2.2-2.9-3.7-6.2-4.5-9.6c-0.8-3.5-0.7-7.1,0.4-10.5c-0.5,1.7-0.7,3.4-0.6,5.2
		c0,1.7,0.3,3.5,0.7,5.1c0.9,3.3,2.5,6.5,4.7,9.1c1,1.3,2.4,2.3,4,2.6c1.6,0,3-0.8,3.7-2.3c0.4-0.7,0.6-1.4,0.7-2.2
		c0.1-0.8-0.2-1.4-0.6-1.6c-0.2-0.1-0.5-0.1-0.7,0c-0.3,0.1-0.6,0.4-0.8,0.6c-0.5,0.6-1,1.3-1.3,2c-1.4,3-1.9,6.4-1.4,9.8
		c0.3,1.6,1,3.1,2,4.3c1.1,1.2,2.5,2,4.1,2.4c3.3,0.7,6.8,1,10.2,0.9c3.5,0,7-0.3,10.5-0.4s7-0.3,10.6-0.2c1.8,0,3.6,0.2,5.4,0.5
		c0.9,0.2,1.8,0.4,2.7,0.8c1,0.4,1.8,1.1,2.4,2c0.5,0.9,0.8,1.8,1,2.7c0.2,0.9,0.4,1.8,0.5,2.7c0.2,1.8,0.4,3.5,0.5,5.3
		c0.2,3.5,0.3,7.1,0.3,10.6C253.4,404.7,252.7,418.8,251.6,432.8z"></path><path class="st4" d="M299.6,326.3c0,0-0.7,9.8-2.1,8.7s-2-8.1-2-8.1L299.6,326.3z"></path><path class="st4" d="M346.6,370.2c0,0-8.6-11.4-19.9-12.8s-28.7,12.5-26.9,13.2S346.6,370.2,346.6,370.2z"></path><path class="st4" d="M317.2,306.4c0,0,1.4,4.5,1.1,6.2s-3.4,7.6-3.4,7.6s-4.8,2.8-5.8,2.7s-17.5-9.5-17.5-9.5l-1.5-5.1
		c0,0,4.3-9,5.1-9.5s4.1-0.9,4.1-0.9L317.2,306.4z"></path><path class="st5" d="M329.3,282.3c0,0-19.2,39.1-22.6,43.1s-9.1,3-14.3-0.5s-2-11.7,0.3-16.5s17-34.9,21.1-38S332,271,329.3,282.3z
		"></path><path class="st4" d="M327.2,360.1c0,0-2.4-49-4.2-49.8s-35.4-1.8-35.5-1.3c-0.1,1.1-0.1,2.2,0,3.3c0,0,31.8-0.8,32.8,0.7
		s3.1,47.1,3.1,47.1L327.2,360.1z"></path><path class="st6" d="M323.1,279.7c0-0.7,0.1-1.4,0.4-2c0.2-0.6,0.5-1.2,0.9-1.7c0.4-0.5,0.8-1,1.2-1.5c0.5-0.5,1.1-0.9,1.7-1.2
		c0,0.7-0.1,1.4-0.4,2c-0.2,0.6-0.5,1.2-0.9,1.7c-0.4,0.5-0.8,1-1.2,1.5C324.3,279,323.7,279.4,323.1,279.7z"></path><path class="st6" d="M319.6,277c0-0.7,0.1-1.4,0.4-2c0.2-0.6,0.5-1.2,0.9-1.7c0.3-0.5,0.7-1,1.2-1.5c0.5-0.5,1.1-0.9,1.7-1.1
		c0,0.7-0.1,1.4-0.4,2c-0.2,0.6-0.5,1.2-0.9,1.7c-0.3,0.5-0.8,1-1.2,1.5C320.8,276.3,320.3,276.7,319.6,277z"></path><path class="st6" d="M316.1,275c0-0.6,0-1.2,0.2-1.8c0.2-0.5,0.4-1,0.7-1.5c0.3-0.5,0.6-0.9,1-1.3c0.4-0.4,1-0.8,1.5-1
		c0,0.6,0,1.2-0.2,1.8c-0.2,0.5-0.4,1-0.7,1.5c-0.3,0.5-0.7,0.9-1.1,1.3C317.1,274.4,316.6,274.8,316.1,275z"></path><path class="st6" d="M321.4,298.2c-1.7-0.5-3.4-1.1-5-1.8c-1.6-0.7-3.2-1.4-4.7-2.3c-1.5-0.8-3-1.7-4.5-2.7c-1.5-1-2.9-2-4.3-3.2
		c1.7,0.5,3.4,1.1,5,1.8c1.6,0.7,3.2,1.5,4.7,2.3c1.5,0.8,3,1.7,4.5,2.7C318.6,296,320.1,297,321.4,298.2z"></path><path class="st6" d="M319.4,302.2c-1.7-0.5-3.4-1.1-5-1.9c-1.6-0.7-3.2-1.5-4.7-2.4c-1.5-0.9-3-1.8-4.5-2.8c-1.5-1-2.8-2-4.1-3.2
		c1.7,0.5,3.4,1.1,5,1.9c1.6,0.7,3.2,1.5,4.7,2.4s3,1.8,4.5,2.8C316.7,300,318.1,301,319.4,302.2z"></path><path class="st4" d="M297.5,330.7c0.8,4.7,1.3,9.4,1.8,14.2c0.4,4.8,0.5,9.6,0.2,14.4c-0.1,2.4-0.6,4.9-1.2,7.2
		c-0.4,1.2-0.9,2.4-1.7,3.5c-0.4,0.6-1,1.1-1.6,1.4c-0.3,0.2-0.6,0.3-1,0.4c-0.3,0.1-0.7,0.2-1,0.2c-4.9,0.8-9.7,0.4-14.4,0.3
		c-2.4-0.1-4.7-0.1-7,0.1c-2.3,0.1-4.5,0.6-6.6,1.4c-0.5,0.2-1,0.5-1.5,0.8c-0.2,0.2-0.4,0.3-0.5,0.5s-0.3,0.4-0.5,0.6
		c-0.6,0.9-1.1,1.9-1.5,2.9c-0.8,2.2-1.3,4.5-1.7,6.8c-0.7,4.7-1.2,9.4-1.4,14.1c-0.3,4.7-0.4,9.5-0.4,14.2
		c-0.4-4.8-0.5-9.5-0.5-14.3c0-4.8,0.3-9.6,0.9-14.3c0.3-2.4,0.8-4.8,1.6-7.1c0.4-1.2,1-2.4,1.7-3.4c0.2-0.3,0.4-0.5,0.7-0.8
		c0.3-0.3,0.5-0.5,0.8-0.7c0.6-0.3,1.1-0.6,1.7-0.9c2.3-0.9,4.8-1.5,7.2-1.6c2.4-0.2,4.8-0.2,7.2-0.1c4.8,0.1,9.5,0.5,14.1-0.1
		c0.3,0,0.5-0.1,0.8-0.1c0.2,0,0.4-0.1,0.6-0.2c0.4-0.2,0.8-0.6,1.1-0.9c0.7-0.9,1.2-1.8,1.5-2.9c0.7-2.2,1.1-4.5,1.4-6.8
		c0.4-4.7,0.6-9.4,0.4-14.2C298.2,340.1,297.9,335.4,297.5,330.7z"></path><path class="st7" d="M332.5,254.5c0.2,1.3,0,2.6-0.4,3.9c-0.4,1.2-0.8,2.4-1.4,3.5c-0.5,1.1-1.2,2.2-1.9,3.3
		c-0.7,1.1-1.5,2.1-2.4,2.9c0.2-1.2,0.6-2.5,1-3.7c0.4-1.2,0.9-2.3,1.5-3.4s1.1-2.2,1.7-3.3S331.9,255.6,332.5,254.5z"></path><path class="st7" d="M345,263.6c-0.4,0.7-0.8,1.3-1.4,1.8c-0.5,0.5-1.1,1.1-1.7,1.5c-1.1,1-2.3,1.9-3.6,2.7
		c-1.2,0.8-2.5,1.6-3.9,2.3c-1.3,0.7-2.7,1.3-4.2,1.8c1-1.1,2.1-2.1,3.3-3.1c1.2-0.9,2.4-1.8,3.6-2.6s2.5-1.6,3.8-2.3
		c0.6-0.4,1.3-0.7,2-1C343.8,264.4,344.4,264,345,263.6z"></path><path class="st7" d="M334.3,279.5c0.5-0.6,1.2-1.1,1.9-1.5c0.7-0.4,1.4-0.7,2.1-1c0.7-0.3,1.5-0.5,2.2-0.6c0.8-0.1,1.6-0.2,2.4-0.1
		c-0.5,0.6-1.2,1.1-1.9,1.5c-1.3,0.8-2.8,1.3-4.3,1.6C335.9,279.6,335.1,279.6,334.3,279.5z"></path></g><g id="speech-bubble"><path class="st3" d="M239.1,198.4c0,0-8.1,27.4,2.8,35.4s49.2,0.8,55.6,2.9s10.5,11.7,13.5,7.3s7.2-32.6-6.5-48.6
		S248.2,180.3,239.1,198.4z"></path><path class="st6" d="M290.2,211.9c-0.3-1.1-0.9-2.1-1.5-3c-0.3-0.5-0.7-0.9-1.1-1.2c-0.4-0.3-0.9-0.5-1.4-0.4
		c-1,0.2-1.9,0.9-2.5,1.8c-0.6,0.9-1.1,1.9-1.4,2.9c-0.6,2.1-0.8,4.4-0.8,6.6c0,1.1,0.1,2.2,0.3,3.3c0.2,1,0.5,2,1,2.9l0.2,0.2
		c0.1,0,0.1,0.1,0.2,0.1c0.1,0,0.1,0,0.2,0c0.3-0.2,0.6-0.4,0.8-0.8c0.4-0.8,0.5-1.8,0.2-2.6c-0.7-2-1.7-3.9-3.2-5.5
		c-1.3-1.7-3-3-4.9-4c-0.4-0.2-0.8-0.3-1.2-0.3c-0.3,0-0.5,0.1-0.7,0.3c-0.4,0.8-0.6,1.8-0.5,2.7c-0.1,1,0,2.1,0.3,3.1
		c0.2,1,0.6,1.9,1.2,2.7c0.1,0.1,0.2,0.2,0.3,0.3c-0.1,0-0.2,0-0.3,0c-0.1,0-0.2,0.1-0.3,0.2c0,0-0.1,0.1-0.1,0.1c0-0.1,0-0.3,0-0.4
		c0-0.2,0-0.5-0.1-0.7c-0.2-1-0.6-2-1.1-2.9c-1-1.9-2.2-3.7-3.8-5.3c-0.4-0.4-0.8-0.7-1.2-1c-0.3-0.3-0.7-0.4-1.1-0.5
		c-0.3,0-0.4,0-0.7,0.4c-0.2,0.4-0.4,0.8-0.4,1.3c-0.3,2.2-0.4,4.4-0.2,6.6c0.1,0.5,0.1,1.1,0.3,1.6c0.1,0.5,0.3,0.9,0.5,1.4
		c0,0.1,0.1,0.1,0.1,0.1s-0.2,0-0.1,0c0.1-0.1,0.2-0.3,0.3-0.5c0.1-0.2,0.2-0.5,0.2-0.7c0.1-0.2,0.1-0.5,0.1-0.7
		c-0.1-1.1-0.5-2.1-1.1-2.9c-0.6-0.9-1.4-1.7-2.3-2.4c-0.9-0.7-1.8-1.3-2.9-1.7c-0.5-0.2-1-0.4-1.6-0.4c-0.6-0.1-1.1,0.1-1.6,0.4
		c0.4-0.4,1-0.6,1.6-0.6c0.6,0,1.2,0.1,1.7,0.3c1.1,0.4,2.1,0.9,3.1,1.6c1,0.7,1.8,1.5,2.5,2.4c0.8,0.9,1.3,2.1,1.5,3.3
		c0,0.3,0,0.7-0.1,1c-0.1,0.3-0.1,0.6-0.2,0.9c-0.1,0.4-0.3,0.7-0.6,1c-0.3,0.2-0.6,0.3-0.9,0.2c-0.2-0.1-0.4-0.2-0.6-0.4
		c-0.4-0.5-0.6-1.1-0.8-1.8c-0.2-0.6-0.3-1.2-0.4-1.7c-0.3-2.3-0.4-4.7-0.1-7c0.1-0.7,0.3-1.3,0.6-1.9c0.2-0.4,0.5-0.7,0.9-0.9
		c0.4-0.2,0.8-0.3,1.3-0.3c0.7,0.1,1.4,0.3,2,0.7c0.5,0.3,1,0.7,1.5,1.2c1.7,1.7,3.1,3.6,4.2,5.7c0.6,1.1,1,2.2,1.3,3.4
		c0.1,0.3,0.1,0.7,0.1,1c0,0.4,0,0.9-0.2,1.3c-0.1,0.2-0.2,0.3-0.3,0.4c-0.2,0.2-0.4,0.3-0.6,0.4c-0.4,0.1-0.8,0.1-1.1-0.1
		c-0.4-0.2-0.7-0.5-1-0.8c-0.8-1-1.3-2.2-1.6-3.5c-0.3-1.2-0.4-2.4-0.3-3.6c0-0.6,0.1-1.2,0.2-1.8c0.1-0.3,0.1-0.7,0.2-1
		c0.1-0.4,0.3-0.7,0.6-1c0.5-0.7,1.4-1.1,2.3-1.1c0.7,0,1.4,0.2,2,0.5c1.1,0.5,2.1,1.2,3.1,2c0.9,0.8,1.7,1.6,2.5,2.6
		c1.6,1.8,2.8,4,3.4,6.3c0.2,0.7,0.2,1.3,0.2,2c0,0.7-0.3,1.4-0.7,2c-0.2,0.3-0.4,0.6-0.7,0.8l-0.5,0.3c-0.2,0.1-0.4,0.2-0.6,0.2
		c-0.5,0.1-1,0-1.4-0.2c-0.2-0.1-0.3-0.3-0.5-0.4c-0.1-0.1-0.2-0.3-0.3-0.4c-0.6-1.1-1-2.3-1.1-3.5c-0.2-1.2-0.2-2.3-0.2-3.5
		c0-2.3,0.4-4.7,1.1-6.9c0.4-1.1,1-2.2,1.7-3.1c0.2-0.2,0.4-0.4,0.6-0.6c0.2-0.2,0.4-0.4,0.7-0.6c0.5-0.4,1.1-0.6,1.7-0.6
		c0.6,0,1.2,0.2,1.7,0.6c0.4,0.4,0.8,0.8,1.1,1.4C289.5,209.7,289.9,210.8,290.2,211.9z"></path></g></svg>